<svg version="1.1" viewBox="0.0 0.0 638.9422572178478 387.750656167979" fill="none" stroke="none" stroke-linecap="square" stroke-miterlimit="10" xmlns:xlink="http://www.w3.org/1999/xlink" xmlns="http://www.w3.org/2000/svg"><clipPath id="p.0"><path d="m0 0l638.94226 0l0 387.75067l-638.94226 0l0 -387.75067z" clip-rule="nonzero"/></clipPath><g clip-path="url(#p.0)"><path fill="#000000" fill-opacity="0.0" d="m0 0l638.94226 0l0 387.75067l-638.94226 0z" fill-rule="evenodd"/><path fill="#fce5cd" d="m32.000443 32.942883l20.566929 0l0 20.566929l-20.566929 0z" fill-rule="evenodd"/><path stroke="#595959" stroke-width="1.0" stroke-linejoin="round" stroke-linecap="butt" d="m32.000443 32.942883l20.566929 0l0 20.566929l-20.566929 0z" fill-rule="evenodd"/><path fill="#fce5cd" d="m53.773243 32.942883l20.566929 0l0 20.566929l-20.566929 0z" fill-rule="evenodd"/><path stroke="#595959" stroke-width="1.0" stroke-linejoin="round" stroke-linecap="butt" d="m53.773243 32.942883l20.566929 0l0 20.566929l-20.566929 0z" fill-rule="evenodd"/><path fill="#fce5cd" d="m75.54604 32.942883l20.566925 0l0 20.566929l-20.566925 0z" fill-rule="evenodd"/><path stroke="#595959" stroke-width="1.0" stroke-linejoin="round" stroke-linecap="butt" d="m75.54604 32.942883l20.566925 0l0 20.566929l-20.566925 0z" fill-rule="evenodd"/><path fill="#fce5cd" d="m97.31884 32.942883l20.566933 0l0 20.566929l-20.566933 0z" fill-rule="evenodd"/><path stroke="#595959" stroke-width="1.0" stroke-linejoin="round" stroke-linecap="butt" d="m97.31884 32.942883l20.566933 0l0 20.566929l-20.566933 0z" fill-rule="evenodd"/><path fill="#fce5cd" d="m32.000443 54.71568l20.566929 0l0 20.566929l-20.566929 0z" fill-rule="evenodd"/><path stroke="#595959" stroke-width="1.0" stroke-linejoin="round" stroke-linecap="butt" d="m32.000443 54.71568l20.566929 0l0 20.566929l-20.566929 0z" fill-rule="evenodd"/><path fill="#fce5cd" d="m53.773243 54.71568l20.566929 0l0 20.566929l-20.566929 0z" fill-rule="evenodd"/><path stroke="#595959" stroke-width="1.0" stroke-linejoin="round" stroke-linecap="butt" d="m53.773243 54.71568l20.566929 0l0 20.566929l-20.566929 0z" fill-rule="evenodd"/><path fill="#fce5cd" d="m75.54604 54.71568l20.566925 0l0 20.566929l-20.566925 0z" fill-rule="evenodd"/><path stroke="#595959" stroke-width="1.0" stroke-linejoin="round" stroke-linecap="butt" d="m75.54604 54.71568l20.566925 0l0 20.566929l-20.566925 0z" fill-rule="evenodd"/><path fill="#fce5cd" d="m97.31884 54.71568l20.566933 0l0 20.566929l-20.566933 0z" fill-rule="evenodd"/><path stroke="#595959" stroke-width="1.0" stroke-linejoin="round" stroke-linecap="butt" d="m97.31884 54.71568l20.566933 0l0 20.566929l-20.566933 0z" fill-rule="evenodd"/><path fill="#fce5cd" d="m32.000443 76.48848l20.566929 0l0 20.566933l-20.566929 0z" fill-rule="evenodd"/><path stroke="#595959" stroke-width="1.0" stroke-linejoin="round" stroke-linecap="butt" d="m32.000443 76.48848l20.566929 0l0 20.566933l-20.566929 0z" fill-rule="evenodd"/><path fill="#fce5cd" d="m53.773243 76.48848l20.566929 0l0 20.566933l-20.566929 0z" fill-rule="evenodd"/><path stroke="#595959" stroke-width="1.0" stroke-linejoin="round" stroke-linecap="butt" d="m53.773243 76.48848l20.566929 0l0 20.566933l-20.566929 0z" fill-rule="evenodd"/><path fill="#fce5cd" d="m75.54604 76.48848l20.566925 0l0 20.566933l-20.566925 0z" fill-rule="evenodd"/><path stroke="#595959" stroke-width="1.0" stroke-linejoin="round" stroke-linecap="butt" d="m75.54604 76.48848l20.566925 0l0 20.566933l-20.566925 0z" fill-rule="evenodd"/><path fill="#fce5cd" d="m97.31884 76.48848l20.566933 0l0 20.566933l-20.566933 0z" fill-rule="evenodd"/><path stroke="#595959" stroke-width="1.0" stroke-linejoin="round" stroke-linecap="butt" d="m97.31884 76.48848l20.566933 0l0 20.566933l-20.566933 0z" fill-rule="evenodd"/><path fill="#fce5cd" d="m32.000443 98.261284l20.566929 0l0 20.566925l-20.566929 0z" fill-rule="evenodd"/><path stroke="#595959" stroke-width="1.0" stroke-linejoin="round" stroke-linecap="butt" d="m32.000443 98.261284l20.566929 0l0 20.566925l-20.566929 0z" fill-rule="evenodd"/><path fill="#fce5cd" d="m53.773243 98.261284l20.566929 0l0 20.566925l-20.566929 0z" fill-rule="evenodd"/><path stroke="#595959" stroke-width="1.0" stroke-linejoin="round" stroke-linecap="butt" d="m53.773243 98.261284l20.566929 0l0 20.566925l-20.566929 0z" fill-rule="evenodd"/><path fill="#fce5cd" d="m75.54604 98.261284l20.566925 0l0 20.566925l-20.566925 0z" fill-rule="evenodd"/><path stroke="#595959" stroke-width="1.0" stroke-linejoin="round" stroke-linecap="butt" d="m75.54604 98.261284l20.566925 0l0 20.566925l-20.566925 0z" fill-rule="evenodd"/><path fill="#fce5cd" d="m97.31884 98.261284l20.566933 0l0 20.566925l-20.566933 0z" fill-rule="evenodd"/><path stroke="#595959" stroke-width="1.0" stroke-linejoin="round" stroke-linecap="butt" d="m97.31884 98.261284l20.566933 0l0 20.566925l-20.566933 0z" fill-rule="evenodd"/><path fill="#fce5cd" d="m32.000443 120.03408l20.566929 0l0 20.566933l-20.566929 0z" fill-rule="evenodd"/><path stroke="#595959" stroke-width="1.0" stroke-linejoin="round" stroke-linecap="butt" d="m32.000443 120.03408l20.566929 0l0 20.566933l-20.566929 0z" fill-rule="evenodd"/><path fill="#fce5cd" d="m53.773243 120.03408l20.566929 0l0 20.566933l-20.566929 0z" fill-rule="evenodd"/><path stroke="#595959" stroke-width="1.0" stroke-linejoin="round" stroke-linecap="butt" d="m53.773243 120.03408l20.566929 0l0 20.566933l-20.566929 0z" fill-rule="evenodd"/><path fill="#fce5cd" d="m75.54604 120.03408l20.566925 0l0 20.566933l-20.566925 0z" fill-rule="evenodd"/><path stroke="#595959" stroke-width="1.0" stroke-linejoin="round" stroke-linecap="butt" d="m75.54604 120.03408l20.566925 0l0 20.566933l-20.566925 0z" fill-rule="evenodd"/><path fill="#fce5cd" d="m97.31884 120.03408l20.566933 0l0 20.566933l-20.566933 0z" fill-rule="evenodd"/><path stroke="#595959" stroke-width="1.0" stroke-linejoin="round" stroke-linecap="butt" d="m97.31884 120.03408l20.566933 0l0 20.566933l-20.566933 0z" fill-rule="evenodd"/><path fill="#d0e0e3" d="m32.013947 266.65924l20.566929 0l0 20.566925l-20.566929 0z" fill-rule="evenodd"/><path stroke="#595959" stroke-width="1.0" stroke-linejoin="round" stroke-linecap="butt" d="m32.013947 266.65924l20.566929 0l0 20.566925l-20.566929 0z" fill-rule="evenodd"/><path fill="#d0e0e3" d="m53.786743 266.65924l20.566933 0l0 20.566925l-20.566933 0z" fill-rule="evenodd"/><path stroke="#595959" stroke-width="1.0" stroke-linejoin="round" stroke-linecap="butt" d="m53.786743 266.65924l20.566933 0l0 20.566925l-20.566933 0z" fill-rule="evenodd"/><path fill="#d0e0e3" d="m75.55955 266.65924l20.566925 0l0 20.566925l-20.566925 0z" fill-rule="evenodd"/><path stroke="#595959" stroke-width="1.0" stroke-linejoin="round" stroke-linecap="butt" d="m75.55955 266.65924l20.566925 0l0 20.566925l-20.566925 0z" fill-rule="evenodd"/><path fill="#d0e0e3" d="m97.332344 266.65924l20.566933 0l0 20.566925l-20.566933 0z" fill-rule="evenodd"/><path stroke="#595959" stroke-width="1.0" stroke-linejoin="round" stroke-linecap="butt" d="m97.332344 266.65924l20.566933 0l0 20.566925l-20.566933 0z" fill-rule="evenodd"/><path fill="#d0e0e3" d="m32.013947 288.43204l20.566929 0l0 20.566956l-20.566929 0z" fill-rule="evenodd"/><path stroke="#595959" stroke-width="1.0" stroke-linejoin="round" stroke-linecap="butt" d="m32.013947 288.43204l20.566929 0l0 20.566956l-20.566929 0z" fill-rule="evenodd"/><path fill="#d0e0e3" d="m53.786743 288.43204l20.566933 0l0 20.566956l-20.566933 0z" fill-rule="evenodd"/><path stroke="#595959" stroke-width="1.0" stroke-linejoin="round" stroke-linecap="butt" d="m53.786743 288.43204l20.566933 0l0 20.566956l-20.566933 0z" fill-rule="evenodd"/><path fill="#d0e0e3" d="m75.55955 288.43204l20.566925 0l0 20.566956l-20.566925 0z" fill-rule="evenodd"/><path stroke="#595959" stroke-width="1.0" stroke-linejoin="round" stroke-linecap="butt" d="m75.55955 288.43204l20.566925 0l0 20.566956l-20.566925 0z" fill-rule="evenodd"/><path fill="#d0e0e3" d="m97.332344 288.43204l20.566933 0l0 20.566956l-20.566933 0z" fill-rule="evenodd"/><path stroke="#595959" stroke-width="1.0" stroke-linejoin="round" stroke-linecap="butt" d="m97.332344 288.43204l20.566933 0l0 20.566956l-20.566933 0z" fill-rule="evenodd"/><path fill="#d0e0e3" d="m32.013947 310.20486l20.566929 0l0 20.566925l-20.566929 0z" fill-rule="evenodd"/><path stroke="#595959" stroke-width="1.0" stroke-linejoin="round" stroke-linecap="butt" d="m32.013947 310.20486l20.566929 0l0 20.566925l-20.566929 0z" fill-rule="evenodd"/><path fill="#d0e0e3" d="m53.786743 310.20486l20.566933 0l0 20.566925l-20.566933 0z" fill-rule="evenodd"/><path stroke="#595959" stroke-width="1.0" stroke-linejoin="round" stroke-linecap="butt" d="m53.786743 310.20486l20.566933 0l0 20.566925l-20.566933 0z" fill-rule="evenodd"/><path fill="#d0e0e3" d="m75.55955 310.20486l20.566925 0l0 20.566925l-20.566925 0z" fill-rule="evenodd"/><path stroke="#595959" stroke-width="1.0" stroke-linejoin="round" stroke-linecap="butt" d="m75.55955 310.20486l20.566925 0l0 20.566925l-20.566925 0z" fill-rule="evenodd"/><path fill="#d0e0e3" d="m97.332344 310.20486l20.566933 0l0 20.566925l-20.566933 0z" fill-rule="evenodd"/><path stroke="#595959" stroke-width="1.0" stroke-linejoin="round" stroke-linecap="butt" d="m97.332344 310.20486l20.566933 0l0 20.566925l-20.566933 0z" fill-rule="evenodd"/><path fill="#d0e0e3" d="m32.013947 331.97766l20.566929 0l0 20.566925l-20.566929 0z" fill-rule="evenodd"/><path stroke="#595959" stroke-width="1.0" stroke-linejoin="round" stroke-linecap="butt" d="m32.013947 331.97766l20.566929 0l0 20.566925l-20.566929 0z" fill-rule="evenodd"/><path fill="#d0e0e3" d="m53.786743 331.97766l20.566933 0l0 20.566925l-20.566933 0z" fill-rule="evenodd"/><path stroke="#595959" stroke-width="1.0" stroke-linejoin="round" stroke-linecap="butt" d="m53.786743 331.97766l20.566933 0l0 20.566925l-20.566933 0z" fill-rule="evenodd"/><path fill="#d0e0e3" d="m75.55955 331.97766l20.566925 0l0 20.566925l-20.566925 0z" fill-rule="evenodd"/><path stroke="#595959" stroke-width="1.0" stroke-linejoin="round" stroke-linecap="butt" d="m75.55955 331.97766l20.566925 0l0 20.566925l-20.566925 0z" fill-rule="evenodd"/><path fill="#d0e0e3" d="m97.332344 331.97766l20.566933 0l0 20.566925l-20.566933 0z" fill-rule="evenodd"/><path stroke="#595959" stroke-width="1.0" stroke-linejoin="round" stroke-linecap="butt" d="m97.332344 331.97766l20.566933 0l0 20.566925l-20.566933 0z" fill-rule="evenodd"/><path fill="#d0e0e3" d="m32.013947 353.75046l20.566929 0l0 20.566925l-20.566929 0z" fill-rule="evenodd"/><path stroke="#595959" stroke-width="1.0" stroke-linejoin="round" stroke-linecap="butt" d="m32.013947 353.75046l20.566929 0l0 20.566925l-20.566929 0z" fill-rule="evenodd"/><path fill="#d0e0e3" d="m53.786743 353.75046l20.566933 0l0 20.566925l-20.566933 0z" fill-rule="evenodd"/><path stroke="#595959" stroke-width="1.0" stroke-linejoin="round" stroke-linecap="butt" d="m53.786743 353.75046l20.566933 0l0 20.566925l-20.566933 0z" fill-rule="evenodd"/><path fill="#d0e0e3" d="m75.55955 353.75046l20.566925 0l0 20.566925l-20.566925 0z" fill-rule="evenodd"/><path stroke="#595959" stroke-width="1.0" stroke-linejoin="round" stroke-linecap="butt" d="m75.55955 353.75046l20.566925 0l0 20.566925l-20.566925 0z" fill-rule="evenodd"/><path fill="#d0e0e3" d="m97.332344 353.75046l20.566933 0l0 20.566925l-20.566933 0z" fill-rule="evenodd"/><path stroke="#595959" stroke-width="1.0" stroke-linejoin="round" stroke-linecap="butt" d="m97.332344 353.75046l20.566933 0l0 20.566925l-20.566933 0z" fill-rule="evenodd"/><path fill="#d9d2e9" d="m53.781754 149.80154l20.566933 0l0 20.566925l-20.566933 0z" fill-rule="evenodd"/><path stroke="#595959" stroke-width="1.0" stroke-linejoin="round" stroke-linecap="butt" d="m53.781754 149.80154l20.566933 0l0 20.566925l-20.566933 0z" fill-rule="evenodd"/><path fill="#d9d2e9" d="m75.55456 149.80154l20.566925 0l0 20.566925l-20.566925 0z" fill-rule="evenodd"/><path stroke="#595959" stroke-width="1.0" stroke-linejoin="round" stroke-linecap="butt" d="m75.55456 149.80154l20.566925 0l0 20.566925l-20.566925 0z" fill-rule="evenodd"/><path fill="#d9d2e9" d="m97.327354 149.80154l20.566933 0l0 20.566925l-20.566933 0z" fill-rule="evenodd"/><path stroke="#595959" stroke-width="1.0" stroke-linejoin="round" stroke-linecap="butt" d="m97.327354 149.80154l20.566933 0l0 20.566925l-20.566933 0z" fill-rule="evenodd"/><path fill="#d9d2e9" d="m53.781754 171.57434l20.566933 0l0 20.566925l-20.566933 0z" fill-rule="evenodd"/><path stroke="#595959" stroke-width="1.0" stroke-linejoin="round" stroke-linecap="butt" d="m53.781754 171.57434l20.566933 0l0 20.566925l-20.566933 0z" fill-rule="evenodd"/><path fill="#d9d2e9" d="m75.55456 171.57434l20.566925 0l0 20.566925l-20.566925 0z" fill-rule="evenodd"/><path stroke="#595959" stroke-width="1.0" stroke-linejoin="round" stroke-linecap="butt" d="m75.55456 171.57434l20.566925 0l0 20.566925l-20.566925 0z" fill-rule="evenodd"/><path fill="#d9d2e9" d="m97.327354 171.57434l20.566933 0l0 20.566925l-20.566933 0z" fill-rule="evenodd"/><path stroke="#595959" stroke-width="1.0" stroke-linejoin="round" stroke-linecap="butt" d="m97.327354 171.57434l20.566933 0l0 20.566925l-20.566933 0z" fill-rule="evenodd"/><path fill="#d9d2e9" d="m53.781754 193.34714l20.566933 0l0 20.566925l-20.566933 0z" fill-rule="evenodd"/><path stroke="#595959" stroke-width="1.0" stroke-linejoin="round" stroke-linecap="butt" d="m53.781754 193.34714l20.566933 0l0 20.566925l-20.566933 0z" fill-rule="evenodd"/><path fill="#d9d2e9" d="m75.55456 193.34714l20.566925 0l0 20.566925l-20.566925 0z" fill-rule="evenodd"/><path stroke="#595959" stroke-width="1.0" stroke-linejoin="round" stroke-linecap="butt" d="m75.55456 193.34714l20.566925 0l0 20.566925l-20.566925 0z" fill-rule="evenodd"/><path fill="#d9d2e9" d="m97.327354 193.34714l20.566933 0l0 20.566925l-20.566933 0z" fill-rule="evenodd"/><path stroke="#595959" stroke-width="1.0" stroke-linejoin="round" stroke-linecap="butt" d="m97.327354 193.34714l20.566933 0l0 20.566925l-20.566933 0z" fill-rule="evenodd"/><path fill="#d9d2e9" d="m53.781754 215.11993l20.566933 0l0 20.566925l-20.566933 0z" fill-rule="evenodd"/><path stroke="#595959" stroke-width="1.0" stroke-linejoin="round" stroke-linecap="butt" d="m53.781754 215.11993l20.566933 0l0 20.566925l-20.566933 0z" fill-rule="evenodd"/><path fill="#d9d2e9" d="m75.55456 215.11993l20.566925 0l0 20.566925l-20.566925 0z" fill-rule="evenodd"/><path stroke="#595959" stroke-width="1.0" stroke-linejoin="round" stroke-linecap="butt" d="m75.55456 215.11993l20.566925 0l0 20.566925l-20.566925 0z" fill-rule="evenodd"/><path fill="#d9d2e9" d="m97.327354 215.11993l20.566933 0l0 20.566925l-20.566933 0z" fill-rule="evenodd"/><path stroke="#595959" stroke-width="1.0" stroke-linejoin="round" stroke-linecap="butt" d="m97.327354 215.11993l20.566933 0l0 20.566925l-20.566933 0z" fill-rule="evenodd"/><path fill="#d9d2e9" d="m32.008957 149.80154l20.566929 0l0 20.566925l-20.566929 0z" fill-rule="evenodd"/><path stroke="#595959" stroke-width="1.0" stroke-linejoin="round" stroke-linecap="butt" d="m32.008957 149.80154l20.566929 0l0 20.566925l-20.566929 0z" fill-rule="evenodd"/><path fill="#d9d2e9" d="m32.008957 171.57434l20.566929 0l0 20.566925l-20.566929 0z" fill-rule="evenodd"/><path stroke="#595959" stroke-width="1.0" stroke-linejoin="round" stroke-linecap="butt" d="m32.008957 171.57434l20.566929 0l0 20.566925l-20.566929 0z" fill-rule="evenodd"/><path fill="#d9d2e9" d="m32.008957 193.34714l20.566929 0l0 20.566925l-20.566929 0z" fill-rule="evenodd"/><path stroke="#595959" stroke-width="1.0" stroke-linejoin="round" stroke-linecap="butt" d="m32.008957 193.34714l20.566929 0l0 20.566925l-20.566929 0z" fill-rule="evenodd"/><path fill="#d9d2e9" d="m32.008957 215.11993l20.566929 0l0 20.566925l-20.566929 0z" fill-rule="evenodd"/><path stroke="#595959" stroke-width="1.0" stroke-linejoin="round" stroke-linecap="butt" d="m32.008957 215.11993l20.566929 0l0 20.566925l-20.566929 0z" fill-rule="evenodd"/><path fill="#d9d2e9" d="m32.008957 236.89273l20.566929 0l0 20.566925l-20.566929 0z" fill-rule="evenodd"/><path stroke="#595959" stroke-width="1.0" stroke-linejoin="round" stroke-linecap="butt" d="m32.008957 236.89273l20.566929 0l0 20.566925l-20.566929 0z" fill-rule="evenodd"/><path fill="#d9d2e9" d="m53.781754 236.89273l20.566933 0l0 20.566925l-20.566933 0z" fill-rule="evenodd"/><path stroke="#595959" stroke-width="1.0" stroke-linejoin="round" stroke-linecap="butt" d="m53.781754 236.89273l20.566933 0l0 20.566925l-20.566933 0z" fill-rule="evenodd"/><path fill="#d9d2e9" d="m75.55456 236.89273l20.566925 0l0 20.566925l-20.566925 0z" fill-rule="evenodd"/><path stroke="#595959" stroke-width="1.0" stroke-linejoin="round" stroke-linecap="butt" d="m75.55456 236.89273l20.566925 0l0 20.566925l-20.566925 0z" fill-rule="evenodd"/><path fill="#d9d2e9" d="m97.327354 236.89273l20.566933 0l0 20.566925l-20.566933 0z" fill-rule="evenodd"/><path stroke="#595959" stroke-width="1.0" stroke-linejoin="round" stroke-linecap="butt" d="m97.327354 236.89273l20.566933 0l0 20.566925l-20.566933 0z" fill-rule="evenodd"/><path fill="#000000" fill-opacity="0.0" d="m139.16226 190.61197l37.150055 0l0 10.408066l-37.150055 0zm0 15.612091l37.150055 0l0 10.408066l-37.150055 0z" fill-rule="evenodd"/><path stroke="#595959" stroke-width="1.0" stroke-linejoin="round" stroke-linecap="butt" d="m139.16226 190.61197l37.150055 0l0 10.408066l-37.150055 0zm0 15.612091l37.150055 0l0 10.408066l-37.150055 0z" fill-rule="evenodd"/><path fill="#000000" fill-opacity="0.0" d="m314.92087 197.29219l7.359619 -7.359619l7.8179626 7.8179626l7.8179626 -7.8179626l7.359619 7.359619l-7.8179626 7.8179474l7.8179626 7.8179626l-7.359619 7.359619l-7.8179626 -7.8179626l-7.8179626 7.8179626l-7.359619 -7.359619l7.8179626 -7.8179626z" fill-rule="evenodd"/><path stroke="#595959" stroke-width="1.0" stroke-linejoin="round" stroke-linecap="butt" d="m314.92087 197.29219l7.359619 -7.359619l7.8179626 7.8179626l7.8179626 -7.8179626l7.359619 7.359619l-7.8179626 7.8179474l7.8179626 7.8179626l-7.359619 7.359619l-7.8179626 -7.8179626l-7.8179626 7.8179626l-7.359619 -7.359619l7.8179626 -7.8179626z" fill-rule="evenodd"/><path fill="#f6b26b" d="m200.00044 32.942883l20.566925 0l0 20.566929l-20.566925 0z" fill-rule="evenodd"/><path stroke="#595959" stroke-width="1.0" stroke-linejoin="round" stroke-linecap="butt" d="m200.00044 32.942883l20.566925 0l0 20.566929l-20.566925 0z" fill-rule="evenodd"/><path fill="#f6b26b" d="m221.77324 32.942883l20.56694 0l0 20.566929l-20.56694 0z" fill-rule="evenodd"/><path stroke="#595959" stroke-width="1.0" stroke-linejoin="round" stroke-linecap="butt" d="m221.77324 32.942883l20.56694 0l0 20.566929l-20.56694 0z" fill-rule="evenodd"/><path fill="#f6b26b" d="m200.00044 54.71568l20.566925 0l0 20.566929l-20.566925 0z" fill-rule="evenodd"/><path stroke="#595959" stroke-width="1.0" stroke-linejoin="round" stroke-linecap="butt" d="m200.00044 54.71568l20.566925 0l0 20.566929l-20.566925 0z" fill-rule="evenodd"/><path fill="#f6b26b" d="m221.77324 54.71568l20.56694 0l0 20.566929l-20.56694 0z" fill-rule="evenodd"/><path stroke="#595959" stroke-width="1.0" stroke-linejoin="round" stroke-linecap="butt" d="m221.77324 54.71568l20.56694 0l0 20.566929l-20.56694 0z" fill-rule="evenodd"/><path fill="#f6b26b" d="m200.00044 76.48848l20.566925 0l0 20.566933l-20.566925 0z" fill-rule="evenodd"/><path stroke="#595959" stroke-width="1.0" stroke-linejoin="round" stroke-linecap="butt" d="m200.00044 76.48848l20.566925 0l0 20.566933l-20.566925 0z" fill-rule="evenodd"/><path fill="#f6b26b" d="m221.77324 76.48848l20.56694 0l0 20.566933l-20.56694 0z" fill-rule="evenodd"/><path stroke="#595959" stroke-width="1.0" stroke-linejoin="round" stroke-linecap="butt" d="m221.77324 76.48848l20.56694 0l0 20.566933l-20.56694 0z" fill-rule="evenodd"/><path fill="#f6b26b" d="m200.00044 98.261284l20.566925 0l0 20.566925l-20.566925 0z" fill-rule="evenodd"/><path stroke="#595959" stroke-width="1.0" stroke-linejoin="round" stroke-linecap="butt" d="m200.00044 98.261284l20.566925 0l0 20.566925l-20.566925 0z" fill-rule="evenodd"/><path fill="#f6b26b" d="m221.77324 98.261284l20.56694 0l0 20.566925l-20.56694 0z" fill-rule="evenodd"/><path stroke="#595959" stroke-width="1.0" stroke-linejoin="round" stroke-linecap="butt" d="m221.77324 98.261284l20.56694 0l0 20.566925l-20.56694 0z" fill-rule="evenodd"/><path fill="#f6b26b" d="m200.00044 120.03408l20.566925 0l0 20.566933l-20.566925 0z" fill-rule="evenodd"/><path stroke="#595959" stroke-width="1.0" stroke-linejoin="round" stroke-linecap="butt" d="m200.00044 120.03408l20.566925 0l0 20.566933l-20.566925 0z" fill-rule="evenodd"/><path fill="#f6b26b" d="m221.77324 120.03408l20.56694 0l0 20.566933l-20.56694 0z" fill-rule="evenodd"/><path stroke="#595959" stroke-width="1.0" stroke-linejoin="round" stroke-linecap="butt" d="m221.77324 120.03408l20.56694 0l0 20.566933l-20.56694 0z" fill-rule="evenodd"/><path fill="#f6b26b" d="m200.01395 266.65924l20.566925 0l0 20.566925l-20.566925 0z" fill-rule="evenodd"/><path stroke="#595959" stroke-width="1.0" stroke-linejoin="round" stroke-linecap="butt" d="m200.01395 266.65924l20.566925 0l0 20.566925l-20.566925 0z" fill-rule="evenodd"/><path fill="#f6b26b" d="m221.78674 266.65924l20.566925 0l0 20.566925l-20.566925 0z" fill-rule="evenodd"/><path stroke="#595959" stroke-width="1.0" stroke-linejoin="round" stroke-linecap="butt" d="m221.78674 266.65924l20.566925 0l0 20.566925l-20.566925 0z" fill-rule="evenodd"/><path fill="#f6b26b" d="m200.01395 288.43204l20.566925 0l0 20.566956l-20.566925 0z" fill-rule="evenodd"/><path stroke="#595959" stroke-width="1.0" stroke-linejoin="round" stroke-linecap="butt" d="m200.01395 288.43204l20.566925 0l0 20.566956l-20.566925 0z" fill-rule="evenodd"/><path fill="#f6b26b" d="m221.78674 288.43204l20.566925 0l0 20.566956l-20.566925 0z" fill-rule="evenodd"/><path stroke="#595959" stroke-width="1.0" stroke-linejoin="round" stroke-linecap="butt" d="m221.78674 288.43204l20.566925 0l0 20.566956l-20.566925 0z" fill-rule="evenodd"/><path fill="#f6b26b" d="m200.01395 310.20486l20.566925 0l0 20.566925l-20.566925 0z" fill-rule="evenodd"/><path stroke="#595959" stroke-width="1.0" stroke-linejoin="round" stroke-linecap="butt" d="m200.01395 310.20486l20.566925 0l0 20.566925l-20.566925 0z" fill-rule="evenodd"/><path fill="#f6b26b" d="m221.78674 310.20486l20.566925 0l0 20.566925l-20.566925 0z" fill-rule="evenodd"/><path stroke="#595959" stroke-width="1.0" stroke-linejoin="round" stroke-linecap="butt" d="m221.78674 310.20486l20.566925 0l0 20.566925l-20.566925 0z" fill-rule="evenodd"/><path fill="#f6b26b" d="m200.01395 331.97766l20.566925 0l0 20.566925l-20.566925 0z" fill-rule="evenodd"/><path stroke="#595959" stroke-width="1.0" stroke-linejoin="round" stroke-linecap="butt" d="m200.01395 331.97766l20.566925 0l0 20.566925l-20.566925 0z" fill-rule="evenodd"/><path fill="#f6b26b" d="m221.78674 331.97766l20.566925 0l0 20.566925l-20.566925 0z" fill-rule="evenodd"/><path stroke="#595959" stroke-width="1.0" stroke-linejoin="round" stroke-linecap="butt" d="m221.78674 331.97766l20.566925 0l0 20.566925l-20.566925 0z" fill-rule="evenodd"/><path fill="#f6b26b" d="m200.01395 353.75046l20.566925 0l0 20.566925l-20.566925 0z" fill-rule="evenodd"/><path stroke="#595959" stroke-width="1.0" stroke-linejoin="round" stroke-linecap="butt" d="m200.01395 353.75046l20.566925 0l0 20.566925l-20.566925 0z" fill-rule="evenodd"/><path fill="#f6b26b" d="m221.78674 353.75046l20.566925 0l0 20.566925l-20.566925 0z" fill-rule="evenodd"/><path stroke="#595959" stroke-width="1.0" stroke-linejoin="round" stroke-linecap="butt" d="m221.78674 353.75046l20.566925 0l0 20.566925l-20.566925 0z" fill-rule="evenodd"/><path fill="#f6b26b" d="m221.78175 149.80154l20.566925 0l0 20.566925l-20.566925 0z" fill-rule="evenodd"/><path stroke="#595959" stroke-width="1.0" stroke-linejoin="round" stroke-linecap="butt" d="m221.78175 149.80154l20.566925 0l0 20.566925l-20.566925 0z" fill-rule="evenodd"/><path fill="#f6b26b" d="m221.78175 171.57434l20.566925 0l0 20.566925l-20.566925 0z" fill-rule="evenodd"/><path stroke="#595959" stroke-width="1.0" stroke-linejoin="round" stroke-linecap="butt" d="m221.78175 171.57434l20.566925 0l0 20.566925l-20.566925 0z" fill-rule="evenodd"/><path fill="#f6b26b" d="m221.78175 193.34714l20.566925 0l0 20.566925l-20.566925 0z" fill-rule="evenodd"/><path stroke="#595959" stroke-width="1.0" stroke-linejoin="round" stroke-linecap="butt" d="m221.78175 193.34714l20.566925 0l0 20.566925l-20.566925 0z" fill-rule="evenodd"/><path fill="#f6b26b" d="m221.78175 215.11993l20.566925 0l0 20.566925l-20.566925 0z" fill-rule="evenodd"/><path stroke="#595959" stroke-width="1.0" stroke-linejoin="round" stroke-linecap="butt" d="m221.78175 215.11993l20.566925 0l0 20.566925l-20.566925 0z" fill-rule="evenodd"/><path fill="#f6b26b" d="m200.00896 149.80154l20.566925 0l0 20.566925l-20.566925 0z" fill-rule="evenodd"/><path stroke="#595959" stroke-width="1.0" stroke-linejoin="round" stroke-linecap="butt" d="m200.00896 149.80154l20.566925 0l0 20.566925l-20.566925 0z" fill-rule="evenodd"/><path fill="#f6b26b" d="m200.00896 171.57434l20.566925 0l0 20.566925l-20.566925 0z" fill-rule="evenodd"/><path stroke="#595959" stroke-width="1.0" stroke-linejoin="round" stroke-linecap="butt" d="m200.00896 171.57434l20.566925 0l0 20.566925l-20.566925 0z" fill-rule="evenodd"/><path fill="#f6b26b" d="m200.00896 193.34714l20.566925 0l0 20.566925l-20.566925 0z" fill-rule="evenodd"/><path stroke="#595959" stroke-width="1.0" stroke-linejoin="round" stroke-linecap="butt" d="m200.00896 193.34714l20.566925 0l0 20.566925l-20.566925 0z" fill-rule="evenodd"/><path fill="#f6b26b" d="m200.00896 215.11993l20.566925 0l0 20.566925l-20.566925 0z" fill-rule="evenodd"/><path stroke="#595959" stroke-width="1.0" stroke-linejoin="round" stroke-linecap="butt" d="m200.00896 215.11993l20.566925 0l0 20.566925l-20.566925 0z" fill-rule="evenodd"/><path fill="#f6b26b" d="m200.00896 236.89273l20.566925 0l0 20.566925l-20.566925 0z" fill-rule="evenodd"/><path stroke="#595959" stroke-width="1.0" stroke-linejoin="round" stroke-linecap="butt" d="m200.00896 236.89273l20.566925 0l0 20.566925l-20.566925 0z" fill-rule="evenodd"/><path fill="#f6b26b" d="m221.78175 236.89273l20.566925 0l0 20.566925l-20.566925 0z" fill-rule="evenodd"/><path stroke="#595959" stroke-width="1.0" stroke-linejoin="round" stroke-linecap="butt" d="m221.78175 236.89273l20.566925 0l0 20.566925l-20.566925 0z" fill-rule="evenodd"/><path fill="#f6b26b" d="m356.9294 184.19092l20.566925 0l0 20.566925l-20.566925 0z" fill-rule="evenodd"/><path stroke="#595959" stroke-width="1.0" stroke-linejoin="round" stroke-linecap="butt" d="m356.9294 184.19092l20.566925 0l0 20.566925l-20.566925 0z" fill-rule="evenodd"/><path fill="#f6b26b" d="m378.7022 184.19092l20.566925 0l0 20.566925l-20.566925 0z" fill-rule="evenodd"/><path stroke="#595959" stroke-width="1.0" stroke-linejoin="round" stroke-linecap="butt" d="m378.7022 184.19092l20.566925 0l0 20.566925l-20.566925 0z" fill-rule="evenodd"/><path fill="#f6b26b" d="m400.475 184.19092l20.566956 0l0 20.566925l-20.566956 0z" fill-rule="evenodd"/><path stroke="#595959" stroke-width="1.0" stroke-linejoin="round" stroke-linecap="butt" d="m400.475 184.19092l20.566956 0l0 20.566925l-20.566956 0z" fill-rule="evenodd"/><path fill="#f6b26b" d="m422.24783 184.19092l20.566925 0l0 20.566925l-20.566925 0z" fill-rule="evenodd"/><path stroke="#595959" stroke-width="1.0" stroke-linejoin="round" stroke-linecap="butt" d="m422.24783 184.19092l20.566925 0l0 20.566925l-20.566925 0z" fill-rule="evenodd"/><path fill="#f6b26b" d="m356.9294 205.96371l20.566925 0l0 20.566925l-20.566925 0z" fill-rule="evenodd"/><path stroke="#595959" stroke-width="1.0" stroke-linejoin="round" stroke-linecap="butt" d="m356.9294 205.96371l20.566925 0l0 20.566925l-20.566925 0z" fill-rule="evenodd"/><path fill="#f6b26b" d="m378.7022 205.96371l20.566925 0l0 20.566925l-20.566925 0z" fill-rule="evenodd"/><path stroke="#595959" stroke-width="1.0" stroke-linejoin="round" stroke-linecap="butt" d="m378.7022 205.96371l20.566925 0l0 20.566925l-20.566925 0z" fill-rule="evenodd"/><path fill="#f6b26b" d="m400.475 205.96371l20.566956 0l0 20.566925l-20.566956 0z" fill-rule="evenodd"/><path stroke="#595959" stroke-width="1.0" stroke-linejoin="round" stroke-linecap="butt" d="m400.475 205.96371l20.566956 0l0 20.566925l-20.566956 0z" fill-rule="evenodd"/><path fill="#f6b26b" d="m422.24783 205.96371l20.566925 0l0 20.566925l-20.566925 0z" fill-rule="evenodd"/><path stroke="#595959" stroke-width="1.0" stroke-linejoin="round" stroke-linecap="butt" d="m422.24783 205.96371l20.566925 0l0 20.566925l-20.566925 0z" fill-rule="evenodd"/><path fill="#000000" fill-opacity="0.0" d="m139.16226 70.61197l37.150055 0l0 10.408066l-37.150055 0zm0 15.612091l37.150055 0l0 10.408066l-37.150055 0z" fill-rule="evenodd"/><path stroke="#595959" stroke-width="1.0" stroke-linejoin="round" stroke-linecap="butt" d="m139.16226 70.61197l37.150055 0l0 10.408066l-37.150055 0zm0 15.612091l37.150055 0l0 10.408066l-37.150055 0z" fill-rule="evenodd"/><path fill="#000000" fill-opacity="0.0" d="m139.16226 318.61197l37.150055 0l0 10.408051l-37.150055 0zm0 15.612091l37.150055 0l0 10.408081l-37.150055 0z" fill-rule="evenodd"/><path stroke="#595959" stroke-width="1.0" stroke-linejoin="round" stroke-linecap="butt" d="m139.16226 318.61197l37.150055 0l0 10.408051l-37.150055 0zm0 15.612091l37.150055 0l0 10.408081l-37.150055 0z" fill-rule="evenodd"/><path fill="#000000" fill-opacity="0.0" d="m253.13387 32.0l0 0c13.959305 0 25.275589 1.8859711 25.275589 4.212433l0 165.96884c0 2.3264618 11.316254 4.212433 25.275574 4.212433l0 0c-13.95932 0 -25.275574 1.8859711 -25.275574 4.212433l0 165.96884c0 2.3264465 -11.316284 4.212433 -25.275589 4.212433z" fill-rule="evenodd"/><path fill="#000000" fill-opacity="0.0" d="m253.13387 32.0l0 0c13.959305 0 25.275589 1.8859711 25.275589 4.212433l0 165.96884c0 2.3264618 11.316254 4.212433 25.275574 4.212433l0 0c-13.95932 0 -25.275574 1.8859711 -25.275574 4.212433l0 165.96884c0 2.3264465 -11.316284 4.212433 -25.275589 4.212433" fill-rule="evenodd"/><path stroke="#595959" stroke-width="1.0" stroke-linejoin="round" stroke-linecap="butt" d="m253.13387 32.0l0 0c13.959305 0 25.275589 1.8859711 25.275589 4.212433l0 165.96884c0 2.3264618 11.316254 4.212433 25.275574 4.212433l0 0c-13.95932 0 -25.275574 1.8859711 -25.275574 4.212433l0 165.96884c0 2.3264465 -11.316284 4.212433 -25.275589 4.212433" fill-rule="evenodd"/><path fill="#000000" fill-opacity="0.0" d="m30.562057 2.0744045l169.32283 0l0 17.228348l-169.32283 0z" fill-rule="evenodd"/><path fill="#000000" d="m40.405807 23.925875l1.65625 -0.140625q0.125 1.0 0.546875 1.640625q0.4375 0.640625 1.34375 1.046875q0.921875 0.390625 2.0625 0.390625q1.0 0 1.78125 -0.296875q0.78125 -0.296875 1.15625 -0.8125q0.375 -0.53125 0.375 -1.15625q0 -0.625 -0.375 -1.09375q-0.359375 -0.46875 -1.1875 -0.796875q-0.546875 -0.203125 -2.390625 -0.640625q-1.828125 -0.453125 -2.5625 -0.84375q-0.96875 -0.5 -1.4375 -1.234375q-0.46875 -0.75 -0.46875 -1.671875q0 -1.0 0.578125 -1.875q0.578125 -0.89062405 1.671875 -1.343749q1.109375 -0.453125 2.453125 -0.453125q1.484375 0 2.609375 0.484375q1.140625 0.46875 1.75 1.406249q0.609375 0.921875 0.65625 2.09375l-1.6875 0.125q-0.140625 -1.265625 -0.9375 -1.90625q-0.78125 -0.65625 -2.3125 -0.65625q-1.609375 0 -2.34375 0.59375q-0.734375 0.59375 -0.734375 1.421875q0 0.71875 0.53125 1.171875q0.5 0.46875 2.65625 0.96875q2.15625 0.484375 2.953125 0.84375q1.171875 0.53125 1.71875 1.359375q0.5625 0.828125 0.5625 1.90625q0 1.0625 -0.609375 2.015625q-0.609375 0.9375 -1.75 1.46875q-1.140625 0.515625 -2.578125 0.515625q-1.8125 0 -3.046875 -0.53125q-1.21875 -0.53125 -1.921875 -1.59375q-0.6875 -1.0625 -0.71875 -2.40625zm19.146698 3.109375q-0.921875 0.765625 -1.765625 1.09375q-0.828125 0.3125 -1.796875 0.3125q-1.59375 0 -2.453125 -0.78125q-0.859375 -0.78125 -0.859375 -1.984375q0 -0.71875 0.328125 -1.296875q0.328125 -0.59375 0.84375 -0.9375q0.53125 -0.359375 1.1875 -0.546875q0.46875 -0.125 1.453125 -0.25q1.984375 -0.234375 2.921875 -0.5625q0.015625 -0.34375 0.015625 -0.421875q0 -1.0 -0.46875 -1.421875q-0.625 -0.546875 -1.875 -0.546875q-1.15625 0 -1.703125 0.40625q-0.546875 0.40625 -0.8125 1.421875l-1.609375 -0.21875q0.21875 -1.015625 0.71875 -1.640625q0.5 -0.640625 1.453125 -0.984375q0.953125 -0.34375 2.1875 -0.34375q1.25 0 2.015625 0.296875q0.78125 0.28125 1.140625 0.734375q0.375 0.4375 0.515625 1.109375q0.078125 0.421875 0.078125 1.515625l0 2.1875q0 2.28125 0.109375 2.890625q0.109375 0.59375 0.40625 1.15625l-1.703125 0q-0.265625 -0.515625 -0.328125 -1.1875zm-0.140625 -3.671875q-0.890625 0.375 -2.671875 0.625q-1.015625 0.140625 -1.4375 0.328125q-0.421875 0.1875 -0.65625 0.53125q-0.21875 0.34375 -0.21875 0.78125q0 0.65625 0.5 1.09375q0.5 0.4375 1.453125 0.4375q0.9375 0 1.671875 -0.40625q0.75 -0.421875 1.09375 -1.140625q0.265625 -0.5625 0.265625 -1.640625l0 -0.609375zm4.203842 4.859375l0 -9.671875l1.46875 0l0 1.359375q0.453125 -0.71875 1.203125 -1.140625q0.765625 -0.4375 1.71875 -0.4375q1.078125 0 1.765625 0.453125q0.6875 0.4375 0.96875 1.234375q1.15625 -1.6875 2.984375 -1.6875q1.453125 0 2.21875 0.796875q0.78125 0.796875 0.78125 2.453125l0 6.640625l-1.640625 0l0 -6.09375q0 -0.984375 -0.15625 -1.40625q-0.15625 -0.4375 -0.578125 -0.703125q-0.421875 -0.265625 -0.984375 -0.265625q-1.015625 0 -1.6875 0.6875q-0.671875 0.671875 -0.671875 2.15625l0 5.625l-1.640625 0l0 -6.28125q0 -1.09375 -0.40625 -1.640625q-0.40625 -0.546875 -1.3125 -0.546875q-0.6875 0 -1.28125 0.359375q-0.59375 0.359375 -0.859375 1.0625q-0.25 0.703125 -0.25 2.03125l0 5.015625l-1.640625 0zm15.540802 3.703125l0 -13.375l1.484375 0l0 1.25q0.53125 -0.734375 1.1875 -1.09375q0.671875 -0.375 1.625 -0.375q1.234375 0 2.171875 0.640625q0.953125 0.625 1.4375 1.796875q0.484375 1.15625 0.484375 2.546875q0 1.484375 -0.53125 2.671875q-0.53125 1.1875 -1.546875 1.828125q-1.015625 0.625 -2.140625 0.625q-0.8125 0 -1.46875 -0.34375q-0.65625 -0.34375 -1.0625 -0.875l0 4.703125l-1.640625 0zm1.484375 -8.484375q0 1.859375 0.75 2.765625q0.765625 0.890625 1.828125 0.890625q1.09375 0 1.875 -0.921875q0.78125 -0.9375 0.78125 -2.875q0 -1.84375 -0.765625 -2.765625q-0.75 -0.921875 -1.8125 -0.921875q-1.046875 0 -1.859375 0.984375q-0.796875 0.96875 -0.796875 2.84375zm8.844467 4.78125l0 -13.359374l1.640625 0l0 13.359374l-1.640625 0zm10.816696 -3.109375l1.6875 0.203125q-0.40625 1.484375 -1.484375 2.3125q-1.078125 0.8125 -2.765625 0.8125q-2.125 0 -3.375 -1.296875q-1.234375 -1.3125 -1.234375 -3.671875q0 -2.453125 1.25 -3.796875q1.265625 -1.34375 3.265625 -1.34375q1.9375 0 3.15625 1.328125q1.234375 1.3125 1.234375 3.703125q0 0.15625 0 0.4375l-7.21875 0q0.09375 1.59375 0.90625 2.453125q0.8125 0.84375 2.015625 0.84375q0.90625 0 1.546875 -0.46875q0.640625 -0.484375 1.015625 -1.515625zm-5.390625 -2.65625l5.40625 0q-0.109375 -1.21875 -0.625 -1.828125q-0.78125 -0.953125 -2.03125 -0.953125q-1.125 0 -1.90625 0.765625q-0.765625 0.75 -0.84375 2.015625zm8.485092 2.875l1.625 -0.25q0.125 0.96875 0.75 1.5q0.625 0.515625 1.75 0.515625q1.125 0 1.671875 -0.453125q0.546875 -0.46875 0.546875 -1.09375q0 -0.546875 -0.484375 -0.875q-0.328125 -0.21875 -1.671875 -0.546875q-1.8125 -0.46875 -2.515625 -0.796875q-0.6875 -0.328125 -1.046875 -0.90625q-0.359375 -0.59375 -0.359375 -1.3125q0 -0.640625 0.296875 -1.1875q0.296875 -0.5625 0.8125 -0.921875q0.375 -0.28125 1.03125 -0.46875q0.671875 -0.203125 1.421875 -0.203125q1.140625 0 2.0 0.328125q0.859375 0.328125 1.265625 0.890625q0.421875 0.5625 0.578125 1.5l-1.609375 0.21875q-0.109375 -0.75 -0.640625 -1.171875q-0.515625 -0.421875 -1.46875 -0.421875q-1.140625 0 -1.625 0.375q-0.46875 0.375 -0.46875 0.875q0 0.3125 0.1875 0.578125q0.203125 0.265625 0.640625 0.4375q0.234375 0.09375 1.4375 0.421875q1.75 0.453125 2.4375 0.75q0.6875 0.296875 1.078125 0.859375q0.390625 0.5625 0.390625 1.40625q0 0.828125 -0.484375 1.546875q-0.46875 0.71875 -1.375 1.125q-0.90625 0.390625 -2.046875 0.390625q-1.875 0 -2.875 -0.78125q-0.984375 -0.78125 -1.25 -2.328125z" fill-rule="nonzero"/><path fill="#000000" fill-opacity="0.0" d="m35.012775 28.266735l0 119.33858l-17.228348 0l0 -119.33858z" fill-rule="evenodd"/><path fill="#000000" d="m8.8644285 38.797985l13.359376 0l0 9.015625l-1.578125 0l0 -7.25l-4.140625 0l0 6.265625l-1.578126 0l0 -6.265625l-6.0625 0l0 -1.765625zm3.109375 17.724106l-0.203125 1.6875q-1.484375 -0.40625 -2.3125 -1.484375q-0.8125 -1.078125 -0.8125 -2.765625q0 -2.125 1.296875 -3.375q1.3125 -1.234375 3.671875 -1.234375q2.453126 0 3.796876 1.25q1.34375 1.265625 1.34375 3.265625q0 1.9375 -1.328125 3.15625q-1.3125 1.234375 -3.703126 1.234375q-0.15625 0 -0.4375 0l0 -7.21875q-1.59375 0.09375 -2.453125 0.90625q-0.84375 0.8125 -0.84375 2.015625q0 0.90625 0.46875 1.546875q0.484375 0.640625 1.515625 1.015625zm2.65625 -5.390625l0 5.40625q1.21875 -0.109375 1.828126 -0.625q0.953125 -0.78125 0.953125 -2.03125q0 -1.125 -0.765625 -1.90625q-0.75000095 -0.765625 -2.015626 -0.84375zm-4.578125 15.453846q-0.765625 -0.921875 -1.09375 -1.765625q-0.3125 -0.8281288 -0.3125 -1.7968788q0 -1.59375 0.78125 -2.453125q0.78125 -0.859375 1.984375 -0.859375q0.71875 0 1.296875 0.328125q0.59375 0.328125 0.9375 0.84375q0.359375 0.53125 0.546875 1.1875q0.125 0.46875 0.25 1.453125q0.234375 1.9843788 0.5625 2.9218788q0.34375 0.015625 0.421875 0.015625q1.000001 0 1.421876 -0.46875q0.546875 -0.625 0.546875 -1.875q0 -1.1562538 -0.40625 -1.7031288q-0.40625 -0.546875 -1.421876 -0.8125l0.21875 -1.609375q1.015626 0.21875 1.640626 0.71875q0.640625 0.5 0.984375 1.453125q0.34375 0.953125 0.34375 2.1875038q0 1.25 -0.296875 2.015625q-0.28125 0.78125 -0.734375 1.140625q-0.4375 0.375 -1.109375 0.515625q-0.421875 0.078125 -1.515626 0.078125l-2.1875 0q-2.28125 0 -2.890625 0.109375q-0.59375 0.109375 -1.15625 0.40625l0 -1.703125q0.515625 -0.265625 1.1875 -0.328125zm3.671875 -0.140625q-0.375 -0.890625 -0.625 -2.6718788q-0.140625 -1.015625 -0.328125 -1.4375q-0.1875 -0.421875 -0.53125 -0.65625q-0.34375 -0.21875 -0.78125 -0.21875q-0.65625 0 -1.09375 0.5q-0.4375 0.5 -0.4375 1.453125q0 0.9375038 0.40625 1.6718788q0.421875 0.75 1.140625 1.09375q0.5625 0.265625 1.640625 0.265625l0.609375 0zm-3.390625 7.781967l-1.453125 0.234375q-0.140625 -0.6875 -0.140625 -1.234375q0 -0.890625 0.28125 -1.390625q0.28125 -0.484375 0.734375 -0.6875q0.46875 -0.203125 1.9375 -0.203125l5.578126 0l0 -1.203125l1.265625 0l0 1.203125l2.390625 0l0.984375 1.625l-3.375 0l0 1.65625l-1.265625 0l0 -1.65625l-5.671876 0q-0.6875 0 -0.890625 0.078125q-0.203125 0.09375 -0.328125 0.28125q-0.109375 0.203125 -0.109375 0.578125q0 0.265625 0.0625 0.71875zm-1.46875 7.933304l1.421875 0q-1.640625 -1.125 -1.640625 -3.0625q0 -0.859375 0.328125 -1.609375q0.328125 -0.734375 0.828125 -1.09375q0.5 -0.359375 1.21875 -0.5q0.46875 -0.109375 1.53125 -0.109375l5.984376 0l0 1.640625l-5.359376 0q-1.28125 0 -1.734375 0.109375q-0.640625 0.15625 -1.015625 0.65625q-0.375 0.5 -0.375 1.234375q0 0.734375 0.375 1.375q0.390625 0.65625 1.03125 0.921875q0.65625 0.265625 1.890625 0.265625l5.187501 0l0 1.640625l-9.671876 0l0 -1.46875zm0 4.031967l9.671876 0l0 1.46875l-1.46875 0q1.03125 0.5625 1.359375 1.03125q0.328125 0.484375 0.328125 1.0625q0 0.828125 -0.53125 1.6875l-1.515625 -0.5625q0.359375 -0.609375 0.359375 -1.203125q0 -0.546875 -0.328125 -0.96875q-0.328125 -0.421875 -0.89062595 -0.609375q-0.875 -0.28125 -1.921875 -0.28125l-5.0625 0l0 -1.625zm3.109375 12.853302l-0.203125 1.6875q-1.484375 -0.40625 -2.3125 -1.484375q-0.8125 -1.078125 -0.8125 -2.765625q0 -2.125 1.296875 -3.375q1.3125 -1.234375 3.671875 -1.234375q2.453126 0 3.796876 1.25q1.34375 1.265625 1.34375 3.265625q0 1.9375 -1.328125 3.15625q-1.3125 1.234375 -3.703126 1.234375q-0.15625 0 -0.4375 0l0 -7.21875q-1.59375 0.09375 -2.453125 0.90625q-0.84375 0.8125 -0.84375 2.015625q0 0.90625 0.46875 1.546875q0.484375 0.640625 1.515625 1.015625zm2.65625 -5.390625l0 5.40625q1.21875 -0.109375 1.828126 -0.625q0.953125 -0.78125 0.953125 -2.03125q0 -1.125 -0.765625 -1.90625q-0.75000095 -0.765625 -2.015626 -0.84375zm-2.875 8.485092l0.25 1.625q-0.96875 0.125 -1.5 0.75q-0.515625 0.625 -0.515625 1.75q0 1.125 0.453125 1.671875q0.46875 0.546875 1.09375 0.546875q0.546875 0 0.875 -0.484375q0.21875 -0.328125 0.546875 -1.671875q0.46875 -1.8125 0.796875 -2.515625q0.328125 -0.6875 0.90625 -1.046875q0.59375 -0.359375 1.3125 -0.359375q0.64062595 0 1.187501 0.296875q0.5625 0.296875 0.921875 0.8125q0.28125 0.375 0.46875 1.03125q0.203125 0.671875 0.203125 1.421875q0 1.140625 -0.328125 2.0q-0.328125 0.859375 -0.890625 1.265625q-0.5625 0.421875 -1.5 0.578125l-0.21875095 -1.609375q0.75000095 -0.109375 1.171876 -0.640625q0.421875 -0.515625 0.421875 -1.46875q0 -1.140625 -0.375 -1.625q-0.375 -0.46875 -0.875 -0.46875q-0.31250095 0 -0.57812595 0.1875q-0.265625 0.203125 -0.4375 0.640625q-0.09375 0.234375 -0.421875 1.4375q-0.453125 1.75 -0.75 2.4375q-0.296875 0.6875 -0.859375 1.078125q-0.5625 0.390625 -1.40625 0.390625q-0.828125 0 -1.546875 -0.484375q-0.71875 -0.46875 -1.125 -1.375q-0.390625 -0.90625 -0.390625 -2.046875q0 -1.875 0.78125 -2.875q0.78125 -0.984375 2.328125 -1.25zm-2.890625 20.886429l0 -1.640625l10.453126 0q-0.5625 -0.59375 -1.140625 -1.5625q-0.5625 -0.953125 -0.84375 -1.71875l1.59375 0q0.640625 1.375 1.5625 2.40625q0.921875 1.03125 1.78125 1.453125l0 1.0625l-13.406251 0z" fill-rule="nonzero"/><path fill="#000000" fill-opacity="0.0" d="m35.012775 147.54045l0 119.33858l-17.228348 0l0 -119.33858z" fill-rule="evenodd"/><path fill="#000000" d="m8.8644285 158.0717l13.359376 0l0 9.015625l-1.578125 0l0 -7.25l-4.140625 0l0 6.265625l-1.578126 0l0 -6.265625l-6.0625 0l0 -1.765625zm3.109375 17.724106l-0.203125 1.6875q-1.484375 -0.40625 -2.3125 -1.484375q-0.8125 -1.078125 -0.8125 -2.765625q0 -2.125 1.296875 -3.375q1.3125 -1.234375 3.671875 -1.234375q2.453126 0 3.796876 1.25q1.34375 1.265625 1.34375 3.265625q0 1.9375 -1.328125 3.15625q-1.3125 1.234375 -3.703126 1.234375q-0.15625 0 -0.4375 0l0 -7.21875q-1.59375 0.09375 -2.453125 0.90625q-0.84375 0.8125 -0.84375 2.015625q0 0.90625 0.46875 1.546875q0.484375 0.640625 1.515625 1.015625zm2.65625 -5.390625l0 5.40625q1.21875 -0.109375 1.828126 -0.625q0.953125 -0.78125 0.953125 -2.03125q0 -1.125 -0.765625 -1.90625q-0.75000095 -0.765625 -2.015626 -0.84375zm-4.578125 15.453842q-0.765625 -0.921875 -1.09375 -1.765625q-0.3125 -0.828125 -0.3125 -1.796875q0 -1.59375 0.78125 -2.453125q0.78125 -0.859375 1.984375 -0.859375q0.71875 0 1.296875 0.328125q0.59375 0.328125 0.9375 0.84375q0.359375 0.53125 0.546875 1.1875q0.125 0.46875 0.25 1.453125q0.234375 1.984375 0.5625 2.921875q0.34375 0.015625 0.421875 0.015625q1.000001 0 1.421876 -0.46875q0.546875 -0.625 0.546875 -1.875q0 -1.15625 -0.40625 -1.703125q-0.40625 -0.546875 -1.421876 -0.8125l0.21875 -1.609375q1.015626 0.21875 1.640626 0.71875q0.640625 0.5 0.984375 1.453125q0.34375 0.953125 0.34375 2.1875q0 1.25 -0.296875 2.015625q-0.28125 0.78125 -0.734375 1.140625q-0.4375 0.375 -1.109375 0.515625q-0.421875 0.078125 -1.515626 0.078125l-2.1875 0q-2.28125 0 -2.890625 0.109375q-0.59375 0.109375 -1.15625 0.40625l0 -1.703125q0.515625 -0.265625 1.1875 -0.328125zm3.671875 -0.140625q-0.375 -0.890625 -0.625 -2.671875q-0.140625 -1.015625 -0.328125 -1.4375q-0.1875 -0.421875 -0.53125 -0.65625q-0.34375 -0.21875 -0.78125 -0.21875q-0.65625 0 -1.09375 0.5q-0.4375 0.5 -0.4375 1.453125q0 0.9375 0.40625 1.671875q0.421875 0.75 1.140625 1.09375q0.5625 0.265625 1.640625 0.265625l0.609375 0zm-3.390625 7.781967l-1.453125 0.234375q-0.140625 -0.6875 -0.140625 -1.234375q0 -0.890625 0.28125 -1.390625q0.28125 -0.484375 0.734375 -0.6875q0.46875 -0.203125 1.9375 -0.203125l5.578126 0l0 -1.203125l1.265625 0l0 1.203125l2.390625 0l0.984375 1.625l-3.375 0l0 1.65625l-1.265625 0l0 -1.65625l-5.671876 0q-0.6875 0 -0.890625 0.078125q-0.203125 0.09375 -0.328125 0.28125q-0.109375 0.203125 -0.109375 0.578125q0 0.265625 0.0625 0.71875zm-1.46875 7.933304l1.421875 0q-1.640625 -1.125 -1.640625 -3.0625q0 -0.859375 0.328125 -1.609375q0.328125 -0.734375 0.828125 -1.09375q0.5 -0.359375 1.21875 -0.5q0.46875 -0.109375 1.53125 -0.109375l5.984376 0l0 1.640625l-5.359376 0q-1.28125 0 -1.734375 0.109375q-0.640625 0.15625 -1.015625 0.65625q-0.375 0.5 -0.375 1.234375q0 0.734375 0.375 1.375q0.390625 0.65625 1.03125 0.921875q0.65625 0.265625 1.890625 0.265625l5.187501 0l0 1.640625l-9.671876 0l0 -1.46875zm0 4.031967l9.671876 0l0 1.46875l-1.46875 0q1.03125 0.5625 1.359375 1.03125q0.328125 0.484375 0.328125 1.0625q0 0.828125 -0.53125 1.6875l-1.515625 -0.5625q0.359375 -0.609375 0.359375 -1.203125q0 -0.546875 -0.328125 -0.96875q-0.328125 -0.421875 -0.89062595 -0.609375q-0.875 -0.28125 -1.921875 -0.28125l-5.0625 0l0 -1.625zm3.109375 12.853302l-0.203125 1.6875q-1.484375 -0.40625 -2.3125 -1.484375q-0.8125 -1.078125 -0.8125 -2.765625q0 -2.125 1.296875 -3.375q1.3125 -1.234375 3.671875 -1.234375q2.453126 0 3.796876 1.25q1.34375 1.265625 1.34375 3.265625q0 1.9375 -1.328125 3.15625q-1.3125 1.234375 -3.703126 1.234375q-0.15625 0 -0.4375 0l0 -7.21875q-1.59375 0.09375 -2.453125 0.90625q-0.84375 0.8125 -0.84375 2.015625q0 0.90625 0.46875 1.546875q0.484375 0.640625 1.515625 1.015625zm2.65625 -5.390625l0 5.40625q1.21875 -0.109375 1.828126 -0.625q0.953125 -0.78125 0.953125 -2.03125q0 -1.125 -0.765625 -1.90625q-0.75000095 -0.765625 -2.015626 -0.84375zm-2.875 8.485092l0.25 1.625q-0.96875 0.125 -1.5 0.75q-0.515625 0.625 -0.515625 1.75q0 1.125 0.453125 1.671875q0.46875 0.546875 1.09375 0.546875q0.546875 0 0.875 -0.484375q0.21875 -0.328125 0.546875 -1.671875q0.46875 -1.8125 0.796875 -2.515625q0.328125 -0.6875 0.90625 -1.046875q0.59375 -0.359375 1.3125 -0.359375q0.64062595 0 1.187501 0.296875q0.5625 0.296875 0.921875 0.8125q0.28125 0.375 0.46875 1.03125q0.203125 0.671875 0.203125 1.421875q0 1.140625 -0.328125 2.0q-0.328125 0.859375 -0.890625 1.265625q-0.5625 0.421875 -1.5 0.578125l-0.21875095 -1.609375q0.75000095 -0.109375 1.171876 -0.640625q0.421875 -0.515625 0.421875 -1.46875q0 -1.140625 -0.375 -1.625q-0.375 -0.46875 -0.875 -0.46875q-0.31250095 0 -0.57812595 0.1875q-0.265625 0.203125 -0.4375 0.640625q-0.09375 0.234375 -0.421875 1.4375q-0.453125 1.75 -0.75 2.4375q-0.296875 0.6875 -0.859375 1.078125q-0.5625 0.390625 -1.40625 0.390625q-0.828125 0 -1.546875 -0.484375q-0.71875 -0.46875 -1.125 -1.375q-0.390625 -0.90625 -0.390625 -2.046875q0 -1.875 0.78125 -2.875q0.78125 -0.984375 2.328125 -1.25zm-1.3125 23.323929l-1.578125 0l0 -8.828125q0.59375 -0.015625 1.140625 0.1875q0.90625 0.34375 1.78125 1.078125q0.875 0.75 2.015625 2.15625q1.78125 2.171875 2.828126 2.9375q1.046875 0.765625 1.96875 0.765625q0.984375 0 1.640625 -0.703125q0.671875 -0.6875 0.671875 -1.8125q0 -1.1875 -0.71875 -1.90625q-0.703125 -0.703125 -1.953125 -0.703125l0.171875 -1.6875q1.890625 0.171875 2.875 1.296875q0.984375 1.140625 0.984375 3.03125q0 1.921875 -1.0625 3.046875q-1.0625 1.125 -2.640625 1.125q-0.796875 0 -1.578125 -0.328125q-0.78125 -0.328125 -1.640626 -1.09375q-0.84375 -0.75 -2.34375 -2.53125q-1.234375 -1.46875 -1.6875 -1.890625q-0.4375 -0.421875 -0.875 -0.6875l0 6.546875z" fill-rule="nonzero"/><path fill="#000000" fill-opacity="0.0" d="m35.012775 265.8992l0 119.33859l-17.228348 0l0 -119.33859z" fill-rule="evenodd"/><path fill="#000000" d="m8.8644285 276.43045l13.359376 0l0 9.015625l-1.578125 0l0 -7.25l-4.140625 0l0 6.265625l-1.578126 0l0 -6.265625l-6.0625 0l0 -1.765625zm3.109375 17.724121l-0.203125 1.6875q-1.484375 -0.40625 -2.3125 -1.484375q-0.8125 -1.078125 -0.8125 -2.765625q0 -2.125 1.296875 -3.375q1.3125 -1.234375 3.671875 -1.234375q2.453126 0 3.796876 1.25q1.34375 1.265625 1.34375 3.265625q0 1.9375 -1.328125 3.15625q-1.3125 1.234375 -3.703126 1.234375q-0.15625 0 -0.4375 0l0 -7.21875q-1.59375 0.09375 -2.453125 0.90625q-0.84375 0.8125 -0.84375 2.015625q0 0.90625 0.46875 1.546875q0.484375 0.640625 1.515625 1.015625zm2.65625 -5.390625l0 5.40625q1.21875 -0.109375 1.828126 -0.625q0.953125 -0.78125 0.953125 -2.03125q0 -1.125 -0.765625 -1.90625q-0.75000095 -0.765625 -2.015626 -0.84375zm-4.578125 15.453827q-0.765625 -0.921875 -1.09375 -1.765625q-0.3125 -0.828125 -0.3125 -1.796875q0 -1.59375 0.78125 -2.453125q0.78125 -0.859375 1.984375 -0.859375q0.71875 0 1.296875 0.328125q0.59375 0.328125 0.9375 0.84375q0.359375 0.53125 0.546875 1.1875q0.125 0.46875 0.25 1.453125q0.234375 1.984375 0.5625 2.921875q0.34375 0.015625 0.421875 0.015625q1.000001 0 1.421876 -0.46875q0.546875 -0.625 0.546875 -1.875q0 -1.15625 -0.40625 -1.703125q-0.40625 -0.546875 -1.421876 -0.8125l0.21875 -1.609375q1.015626 0.21875 1.640626 0.71875q0.640625 0.5 0.984375 1.453125q0.34375 0.953125 0.34375 2.1875q0 1.25 -0.296875 2.015625q-0.28125 0.78125 -0.734375 1.140625q-0.4375 0.375 -1.109375 0.515625q-0.421875 0.078125 -1.515626 0.078125l-2.1875 0q-2.28125 0 -2.890625 0.109375q-0.59375 0.109375 -1.15625 0.40625l0 -1.703125q0.515625 -0.265625 1.1875 -0.328125zm3.671875 -0.140625q-0.375 -0.890625 -0.625 -2.671875q-0.140625 -1.015625 -0.328125 -1.4375q-0.1875 -0.421875 -0.53125 -0.65625q-0.34375 -0.21875 -0.78125 -0.21875q-0.65625 0 -1.09375 0.5q-0.4375 0.5 -0.4375 1.453125q0 0.9375 0.40625 1.671875q0.421875 0.75 1.140625 1.09375q0.5625 0.265625 1.640625 0.265625l0.609375 0zm-3.390625 7.7819824l-1.453125 0.234375q-0.140625 -0.6875 -0.140625 -1.234375q0 -0.890625 0.28125 -1.390625q0.28125 -0.484375 0.734375 -0.6875q0.46875 -0.203125 1.9375 -0.203125l5.578126 0l0 -1.203125l1.265625 0l0 1.203125l2.390625 0l0.984375 1.625l-3.375 0l0 1.65625l-1.265625 0l0 -1.65625l-5.671876 0q-0.6875 0 -0.890625 0.078125q-0.203125 0.09375 -0.328125 0.28125q-0.109375 0.203125 -0.109375 0.578125q0 0.265625 0.0625 0.71875zm-1.46875 7.9332886l1.421875 0q-1.640625 -1.125 -1.640625 -3.0625q0 -0.859375 0.328125 -1.609375q0.328125 -0.734375 0.828125 -1.09375q0.5 -0.359375 1.21875 -0.5q0.46875 -0.109375 1.53125 -0.109375l5.984376 0l0 1.640625l-5.359376 0q-1.28125 0 -1.734375 0.109375q-0.640625 0.15625 -1.015625 0.65625q-0.375 0.5 -0.375 1.234375q0 0.734375 0.375 1.375q0.390625 0.65625 1.03125 0.921875q0.65625 0.265625 1.890625 0.265625l5.187501 0l0 1.640625l-9.671876 0l0 -1.46875zm0 4.0319824l9.671876 0l0 1.46875l-1.46875 0q1.03125 0.5625 1.359375 1.03125q0.328125 0.484375 0.328125 1.0625q0 0.828125 -0.53125 1.6875l-1.515625 -0.5625q0.359375 -0.609375 0.359375 -1.203125q0 -0.546875 -0.328125 -0.96875q-0.328125 -0.421875 -0.89062595 -0.609375q-0.875 -0.28125 -1.921875 -0.28125l-5.0625 0l0 -1.625zm3.109375 12.853302l-0.203125 1.6875q-1.484375 -0.40625 -2.3125 -1.484375q-0.8125 -1.078125 -0.8125 -2.765625q0 -2.125 1.296875 -3.375q1.3125 -1.234375 3.671875 -1.234375q2.453126 0 3.796876 1.25q1.34375 1.265625 1.34375 3.265625q0 1.9375 -1.328125 3.15625q-1.3125 1.234375 -3.703126 1.234375q-0.15625 0 -0.4375 0l0 -7.21875q-1.59375 0.09375 -2.453125 0.90625q-0.84375 0.8125 -0.84375 2.015625q0 0.90625 0.46875 1.546875q0.484375 0.640625 1.515625 1.015625zm2.65625 -5.390625l0 5.40625q1.21875 -0.109375 1.828126 -0.625q0.953125 -0.78125 0.953125 -2.03125q0 -1.125 -0.765625 -1.90625q-0.75000095 -0.765625 -2.015626 -0.84375zm-2.875 8.485077l0.25 1.625q-0.96875 0.125 -1.5 0.75q-0.515625 0.625 -0.515625 1.75q0 1.125 0.453125 1.671875q0.46875 0.546875 1.09375 0.546875q0.546875 0 0.875 -0.484375q0.21875 -0.328125 0.546875 -1.671875q0.46875 -1.8125 0.796875 -2.515625q0.328125 -0.6875 0.90625 -1.046875q0.59375 -0.359375 1.3125 -0.359375q0.64062595 0 1.187501 0.296875q0.5625 0.296875 0.921875 0.8125q0.28125 0.375 0.46875 1.03125q0.203125 0.671875 0.203125 1.421875q0 1.140625 -0.328125 2.0q-0.328125 0.859375 -0.890625 1.265625q-0.5625 0.421875 -1.5 0.578125l-0.21875095 -1.609375q0.75000095 -0.109375 1.171876 -0.640625q0.421875 -0.515625 0.421875 -1.46875q0 -1.140625 -0.375 -1.625q-0.375 -0.46875 -0.875 -0.46875q-0.31250095 0 -0.57812595 0.1875q-0.265625 0.203125 -0.4375 0.640625q-0.09375 0.234375 -0.421875 1.4375q-0.453125 1.75 -0.75 2.4375q-0.296875 0.6875 -0.859375 1.078125q-0.5625 0.390625 -1.40625 0.390625q-0.828125 0 -1.546875 -0.484375q-0.71875 -0.46875 -1.125 -1.375q-0.390625 -0.90625 -0.390625 -2.046875q0 -1.875 0.78125 -2.875q0.78125 -0.984375 2.328125 -1.25zm0.640625 14.714569l0.21875 1.640625q-1.40625 0.28125 -2.015625 0.953125q-0.609375 0.6875 -0.609375 1.65625q0 1.15625 0.796875 1.953125q0.796875 0.796875 1.984375 0.796875q1.125 0 1.859375 -0.734375q0.734375 -0.734375 0.734375 -1.875q0 -0.46875 -0.171875 -1.15625l1.437501 0.1875q-0.015625 0.15625 -0.015625 0.265625q0 1.046875 0.546875 1.875q0.546875 0.84375 1.671875 0.84375q0.90625 0 1.5 -0.609375q0.59375 -0.609375 0.59375 -1.578125q0 -0.953125 -0.609375 -1.59375q-0.59375 -0.640625 -1.796875 -0.8125l0.296875 -1.640625q1.640625 0.296875 2.546875 1.359375q0.90625 1.0625 0.90625 2.65625q0 1.09375 -0.46875 2.0q-0.46875 0.921875 -1.28125 1.40625q-0.8125 0.5 -1.71875 0.5q-0.859375 0 -1.578125 -0.46875q-0.703125 -0.46875 -1.125 -1.375q-0.28125095 1.1875 -1.140626 1.84375q-0.859375 0.65625 -2.15625 0.65625q-1.734375 0 -2.953125 -1.28125q-1.21875 -1.265625 -1.21875 -3.21875q0 -1.765625 1.046875 -2.921875q1.046875 -1.15625 2.71875 -1.328125z" fill-rule="nonzero"/><path fill="#000000" fill-opacity="0.0" d="m447.7569 200.73204l9.301514 0l0 -9.301498l8.7561035 0l0 9.301498l9.301514 0l0 8.7561035l-9.301514 0l0 9.301498l-8.7561035 0l0 -9.301498l-9.301514 0z" fill-rule="evenodd"/><path stroke="#000000" stroke-width="1.0" stroke-linejoin="round" stroke-linecap="butt" d="m447.7569 200.73204l9.301514 0l0 -9.301498l8.7561035 0l0 9.301498l9.301514 0l0 8.7561035l-9.301514 0l0 9.301498l-8.7561035 0l0 -9.301498l-9.301514 0z" fill-rule="evenodd"/><path fill="#000000" fill-opacity="0.0" d="m535.2127 32.0l0 0c-14.707275 0 -26.629913 1.9870224 -26.629913 4.438141l0 165.51741c0 2.451126 -11.922638 4.438156 -26.629944 4.438156l0 0c14.707306 0 26.629944 1.9870148 26.629944 4.438141l0 165.51743c0 2.4511108 11.922638 4.438141 26.629913 4.438141z" fill-rule="evenodd"/><path fill="#000000" fill-opacity="0.0" d="m535.2127 32.0l0 0c-14.707275 0 -26.629913 1.9870224 -26.629913 4.438141l0 165.51741c0 2.451126 -11.922638 4.438156 -26.629944 4.438156l0 0c14.707306 0 26.629944 1.9870148 26.629944 4.438141l0 165.51743c0 2.4511108 11.922638 4.438141 26.629913 4.438141" fill-rule="evenodd"/><path stroke="#595959" stroke-width="1.0" stroke-linejoin="round" stroke-linecap="butt" d="m535.2127 32.0l0 0c-14.707275 0 -26.629913 1.9870224 -26.629913 4.438141l0 165.51741c0 2.451126 -11.922638 4.438156 -26.629944 4.438156l0 0c14.707306 0 26.629944 1.9870148 26.629944 4.438141l0 165.51743c0 2.4511108 11.922638 4.438141 26.629913 4.438141" fill-rule="evenodd"/><path fill="#f9cb9c" d="m544.0004 32.942883l20.566956 0l0 20.566929l-20.566956 0z" fill-rule="evenodd"/><path stroke="#595959" stroke-width="1.0" stroke-linejoin="round" stroke-linecap="butt" d="m544.0004 32.942883l20.566956 0l0 20.566929l-20.566956 0z" fill-rule="evenodd"/><path fill="#fce5cd" d="m565.77325 32.942883l20.566895 0l0 20.566929l-20.566895 0z" fill-rule="evenodd"/><path stroke="#595959" stroke-width="1.0" stroke-linejoin="round" stroke-linecap="butt" d="m565.77325 32.942883l20.566895 0l0 20.566929l-20.566895 0z" fill-rule="evenodd"/><path fill="#f9cb9c" d="m587.546 32.942883l20.566956 0l0 20.566929l-20.566956 0z" fill-rule="evenodd"/><path stroke="#595959" stroke-width="1.0" stroke-linejoin="round" stroke-linecap="butt" d="m587.546 32.942883l20.566956 0l0 20.566929l-20.566956 0z" fill-rule="evenodd"/><path fill="#f6b26b" d="m609.31885 32.942883l20.566895 0l0 20.566929l-20.566895 0z" fill-rule="evenodd"/><path stroke="#595959" stroke-width="1.0" stroke-linejoin="round" stroke-linecap="butt" d="m609.31885 32.942883l20.566895 0l0 20.566929l-20.566895 0z" fill-rule="evenodd"/><path fill="#e69138" d="m544.0004 54.71568l20.566956 0l0 20.566929l-20.566956 0z" fill-rule="evenodd"/><path stroke="#595959" stroke-width="1.0" stroke-linejoin="round" stroke-linecap="butt" d="m544.0004 54.71568l20.566956 0l0 20.566929l-20.566956 0z" fill-rule="evenodd"/><path fill="#b45f06" d="m565.77325 54.71568l20.566895 0l0 20.566929l-20.566895 0z" fill-rule="evenodd"/><path stroke="#595959" stroke-width="1.0" stroke-linejoin="round" stroke-linecap="butt" d="m565.77325 54.71568l20.566895 0l0 20.566929l-20.566895 0z" fill-rule="evenodd"/><path fill="#fce5cd" d="m587.546 54.71568l20.566956 0l0 20.566929l-20.566956 0z" fill-rule="evenodd"/><path stroke="#595959" stroke-width="1.0" stroke-linejoin="round" stroke-linecap="butt" d="m587.546 54.71568l20.566956 0l0 20.566929l-20.566956 0z" fill-rule="evenodd"/><path fill="#e69138" d="m609.31885 54.71568l20.566895 0l0 20.566929l-20.566895 0z" fill-rule="evenodd"/><path stroke="#595959" stroke-width="1.0" stroke-linejoin="round" stroke-linecap="butt" d="m609.31885 54.71568l20.566895 0l0 20.566929l-20.566895 0z" fill-rule="evenodd"/><path fill="#b45f06" d="m544.0004 76.48848l20.566956 0l0 20.566933l-20.566956 0z" fill-rule="evenodd"/><path stroke="#595959" stroke-width="1.0" stroke-linejoin="round" stroke-linecap="butt" d="m544.0004 76.48848l20.566956 0l0 20.566933l-20.566956 0z" fill-rule="evenodd"/><path fill="#f6b26b" d="m565.77325 76.48848l20.566895 0l0 20.566933l-20.566895 0z" fill-rule="evenodd"/><path stroke="#595959" stroke-width="1.0" stroke-linejoin="round" stroke-linecap="butt" d="m565.77325 76.48848l20.566895 0l0 20.566933l-20.566895 0z" fill-rule="evenodd"/><path fill="#f9cb9c" d="m587.546 76.48848l20.566956 0l0 20.566933l-20.566956 0z" fill-rule="evenodd"/><path stroke="#595959" stroke-width="1.0" stroke-linejoin="round" stroke-linecap="butt" d="m587.546 76.48848l20.566956 0l0 20.566933l-20.566956 0z" fill-rule="evenodd"/><path fill="#b45f06" d="m609.31885 76.48848l20.566895 0l0 20.566933l-20.566895 0z" fill-rule="evenodd"/><path stroke="#595959" stroke-width="1.0" stroke-linejoin="round" stroke-linecap="butt" d="m609.31885 76.48848l20.566895 0l0 20.566933l-20.566895 0z" fill-rule="evenodd"/><path fill="#fce5cd" d="m544.0004 98.261284l20.566956 0l0 20.566925l-20.566956 0z" fill-rule="evenodd"/><path stroke="#595959" stroke-width="1.0" stroke-linejoin="round" stroke-linecap="butt" d="m544.0004 98.261284l20.566956 0l0 20.566925l-20.566956 0z" fill-rule="evenodd"/><path fill="#f6b26b" d="m565.77325 98.261284l20.566895 0l0 20.566925l-20.566895 0z" fill-rule="evenodd"/><path stroke="#595959" stroke-width="1.0" stroke-linejoin="round" stroke-linecap="butt" d="m565.77325 98.261284l20.566895 0l0 20.566925l-20.566895 0z" fill-rule="evenodd"/><path fill="#b45f06" d="m587.546 98.261284l20.566956 0l0 20.566925l-20.566956 0z" fill-rule="evenodd"/><path stroke="#595959" stroke-width="1.0" stroke-linejoin="round" stroke-linecap="butt" d="m587.546 98.261284l20.566956 0l0 20.566925l-20.566956 0z" fill-rule="evenodd"/><path fill="#fce5cd" d="m609.31885 98.261284l20.566895 0l0 20.566925l-20.566895 0z" fill-rule="evenodd"/><path stroke="#595959" stroke-width="1.0" stroke-linejoin="round" stroke-linecap="butt" d="m609.31885 98.261284l20.566895 0l0 20.566925l-20.566895 0z" fill-rule="evenodd"/><path fill="#e69138" d="m544.0004 120.03408l20.566956 0l0 20.566933l-20.566956 0z" fill-rule="evenodd"/><path stroke="#595959" stroke-width="1.0" stroke-linejoin="round" stroke-linecap="butt" d="m544.0004 120.03408l20.566956 0l0 20.566933l-20.566956 0z" fill-rule="evenodd"/><path fill="#fce5cd" d="m565.77325 120.03408l20.566895 0l0 20.566933l-20.566895 0z" fill-rule="evenodd"/><path stroke="#595959" stroke-width="1.0" stroke-linejoin="round" stroke-linecap="butt" d="m565.77325 120.03408l20.566895 0l0 20.566933l-20.566895 0z" fill-rule="evenodd"/><path fill="#fce5cd" d="m587.546 120.03408l20.566956 0l0 20.566933l-20.566956 0z" fill-rule="evenodd"/><path stroke="#595959" stroke-width="1.0" stroke-linejoin="round" stroke-linecap="butt" d="m587.546 120.03408l20.566956 0l0 20.566933l-20.566956 0z" fill-rule="evenodd"/><path fill="#f6b26b" d="m609.31885 120.03408l20.566895 0l0 20.566933l-20.566895 0z" fill-rule="evenodd"/><path stroke="#595959" stroke-width="1.0" stroke-linejoin="round" stroke-linecap="butt" d="m609.31885 120.03408l20.566895 0l0 20.566933l-20.566895 0z" fill-rule="evenodd"/><path fill="#b4a7d6" d="m544.0004 150.6859l20.566956 0l0 20.566925l-20.566956 0z" fill-rule="evenodd"/><path stroke="#595959" stroke-width="1.0" stroke-linejoin="round" stroke-linecap="butt" d="m544.0004 150.6859l20.566956 0l0 20.566925l-20.566956 0z" fill-rule="evenodd"/><path fill="#d9d2e9" d="m565.77325 150.6859l20.566895 0l0 20.566925l-20.566895 0z" fill-rule="evenodd"/><path stroke="#595959" stroke-width="1.0" stroke-linejoin="round" stroke-linecap="butt" d="m565.77325 150.6859l20.566895 0l0 20.566925l-20.566895 0z" fill-rule="evenodd"/><path fill="#351c75" d="m587.546 150.6859l20.566956 0l0 20.566925l-20.566956 0z" fill-rule="evenodd"/><path stroke="#595959" stroke-width="1.0" stroke-linejoin="round" stroke-linecap="butt" d="m587.546 150.6859l20.566956 0l0 20.566925l-20.566956 0z" fill-rule="evenodd"/><path fill="#b4a7d6" d="m609.31885 150.6859l20.566895 0l0 20.566925l-20.566895 0z" fill-rule="evenodd"/><path stroke="#595959" stroke-width="1.0" stroke-linejoin="round" stroke-linecap="butt" d="m609.31885 150.6859l20.566895 0l0 20.566925l-20.566895 0z" fill-rule="evenodd"/><path fill="#b4a7d6" d="m544.0004 172.4587l20.566956 0l0 20.566925l-20.566956 0z" fill-rule="evenodd"/><path stroke="#595959" stroke-width="1.0" stroke-linejoin="round" stroke-linecap="butt" d="m544.0004 172.4587l20.566956 0l0 20.566925l-20.566956 0z" fill-rule="evenodd"/><path fill="#674ea7" d="m565.77325 172.4587l20.566895 0l0 20.566925l-20.566895 0z" fill-rule="evenodd"/><path stroke="#595959" stroke-width="1.0" stroke-linejoin="round" stroke-linecap="butt" d="m565.77325 172.4587l20.566895 0l0 20.566925l-20.566895 0z" fill-rule="evenodd"/><path fill="#b4a7d6" d="m587.546 172.4587l20.566956 0l0 20.566925l-20.566956 0z" fill-rule="evenodd"/><path stroke="#595959" stroke-width="1.0" stroke-linejoin="round" stroke-linecap="butt" d="m587.546 172.4587l20.566956 0l0 20.566925l-20.566956 0z" fill-rule="evenodd"/><path fill="#674ea7" d="m609.31885 172.4587l20.566895 0l0 20.566925l-20.566895 0z" fill-rule="evenodd"/><path stroke="#595959" stroke-width="1.0" stroke-linejoin="round" stroke-linecap="butt" d="m609.31885 172.4587l20.566895 0l0 20.566925l-20.566895 0z" fill-rule="evenodd"/><path fill="#351c75" d="m544.0004 194.23149l20.566956 0l0 20.566925l-20.566956 0z" fill-rule="evenodd"/><path stroke="#595959" stroke-width="1.0" stroke-linejoin="round" stroke-linecap="butt" d="m544.0004 194.23149l20.566956 0l0 20.566925l-20.566956 0z" fill-rule="evenodd"/><path fill="#d9d2e9" d="m565.77325 194.23149l20.566895 0l0 20.566925l-20.566895 0z" fill-rule="evenodd"/><path stroke="#595959" stroke-width="1.0" stroke-linejoin="round" stroke-linecap="butt" d="m565.77325 194.23149l20.566895 0l0 20.566925l-20.566895 0z" fill-rule="evenodd"/><path fill="#674ea7" d="m587.546 194.23149l20.566956 0l0 20.566925l-20.566956 0z" fill-rule="evenodd"/><path stroke="#595959" stroke-width="1.0" stroke-linejoin="round" stroke-linecap="butt" d="m587.546 194.23149l20.566956 0l0 20.566925l-20.566956 0z" fill-rule="evenodd"/><path fill="#d9d2e9" d="m609.31885 194.23149l20.566895 0l0 20.566925l-20.566895 0z" fill-rule="evenodd"/><path stroke="#595959" stroke-width="1.0" stroke-linejoin="round" stroke-linecap="butt" d="m609.31885 194.23149l20.566895 0l0 20.566925l-20.566895 0z" fill-rule="evenodd"/><path fill="#8e7cc3" d="m544.0004 216.00429l20.566956 0l0 20.56694l-20.566956 0z" fill-rule="evenodd"/><path stroke="#595959" stroke-width="1.0" stroke-linejoin="round" stroke-linecap="butt" d="m544.0004 216.00429l20.566956 0l0 20.56694l-20.566956 0z" fill-rule="evenodd"/><path fill="#351c75" d="m565.77325 216.00429l20.566895 0l0 20.56694l-20.566895 0z" fill-rule="evenodd"/><path stroke="#595959" stroke-width="1.0" stroke-linejoin="round" stroke-linecap="butt" d="m565.77325 216.00429l20.566895 0l0 20.56694l-20.566895 0z" fill-rule="evenodd"/><path fill="#d9d2e9" d="m587.546 216.00429l20.566956 0l0 20.56694l-20.566956 0z" fill-rule="evenodd"/><path stroke="#595959" stroke-width="1.0" stroke-linejoin="round" stroke-linecap="butt" d="m587.546 216.00429l20.566956 0l0 20.56694l-20.566956 0z" fill-rule="evenodd"/><path fill="#b4a7d6" d="m609.31885 216.00429l20.566895 0l0 20.56694l-20.566895 0z" fill-rule="evenodd"/><path stroke="#595959" stroke-width="1.0" stroke-linejoin="round" stroke-linecap="butt" d="m609.31885 216.00429l20.566895 0l0 20.56694l-20.566895 0z" fill-rule="evenodd"/><path fill="#b4a7d6" d="m544.0004 237.7771l20.566956 0l0 20.566925l-20.566956 0z" fill-rule="evenodd"/><path stroke="#595959" stroke-width="1.0" stroke-linejoin="round" stroke-linecap="butt" d="m544.0004 237.7771l20.566956 0l0 20.566925l-20.566956 0z" fill-rule="evenodd"/><path fill="#b4a7d6" d="m565.77325 237.7771l20.566895 0l0 20.566925l-20.566895 0z" fill-rule="evenodd"/><path stroke="#595959" stroke-width="1.0" stroke-linejoin="round" stroke-linecap="butt" d="m565.77325 237.7771l20.566895 0l0 20.566925l-20.566895 0z" fill-rule="evenodd"/><path fill="#8e7cc3" d="m587.546 237.7771l20.566956 0l0 20.566925l-20.566956 0z" fill-rule="evenodd"/><path stroke="#595959" stroke-width="1.0" stroke-linejoin="round" stroke-linecap="butt" d="m587.546 237.7771l20.566956 0l0 20.566925l-20.566956 0z" fill-rule="evenodd"/><path fill="#b4a7d6" d="m609.31885 237.7771l20.566895 0l0 20.566925l-20.566895 0z" fill-rule="evenodd"/><path stroke="#595959" stroke-width="1.0" stroke-linejoin="round" stroke-linecap="butt" d="m609.31885 237.7771l20.566895 0l0 20.566925l-20.566895 0z" fill-rule="evenodd"/><path fill="#d0e0e3" d="m544.0004 267.19986l20.566956 0l0 20.566925l-20.566956 0z" fill-rule="evenodd"/><path stroke="#595959" stroke-width="1.0" stroke-linejoin="round" stroke-linecap="butt" d="m544.0004 267.19986l20.566956 0l0 20.566925l-20.566956 0z" fill-rule="evenodd"/><path fill="#a2c4c9" d="m565.77325 267.19986l20.566895 0l0 20.566925l-20.566895 0z" fill-rule="evenodd"/><path stroke="#595959" stroke-width="1.0" stroke-linejoin="round" stroke-linecap="butt" d="m565.77325 267.19986l20.566895 0l0 20.566925l-20.566895 0z" fill-rule="evenodd"/><path fill="#76a5af" d="m587.546 267.19986l20.566956 0l0 20.566925l-20.566956 0z" fill-rule="evenodd"/><path stroke="#595959" stroke-width="1.0" stroke-linejoin="round" stroke-linecap="butt" d="m587.546 267.19986l20.566956 0l0 20.566925l-20.566956 0z" fill-rule="evenodd"/><path fill="#76a5af" d="m609.31885 267.19986l20.566895 0l0 20.566925l-20.566895 0z" fill-rule="evenodd"/><path stroke="#595959" stroke-width="1.0" stroke-linejoin="round" stroke-linecap="butt" d="m609.31885 267.19986l20.566895 0l0 20.566925l-20.566895 0z" fill-rule="evenodd"/><path fill="#45818e" d="m544.0004 288.97266l20.566956 0l0 20.566956l-20.566956 0z" fill-rule="evenodd"/><path stroke="#595959" stroke-width="1.0" stroke-linejoin="round" stroke-linecap="butt" d="m544.0004 288.97266l20.566956 0l0 20.566956l-20.566956 0z" fill-rule="evenodd"/><path fill="#0c343d" d="m565.77325 288.97266l20.566895 0l0 20.566956l-20.566895 0z" fill-rule="evenodd"/><path stroke="#595959" stroke-width="1.0" stroke-linejoin="round" stroke-linecap="butt" d="m565.77325 288.97266l20.566895 0l0 20.566956l-20.566895 0z" fill-rule="evenodd"/><path fill="#d0e0e3" d="m587.546 288.97266l20.566956 0l0 20.566956l-20.566956 0z" fill-rule="evenodd"/><path stroke="#595959" stroke-width="1.0" stroke-linejoin="round" stroke-linecap="butt" d="m587.546 288.97266l20.566956 0l0 20.566956l-20.566956 0z" fill-rule="evenodd"/><path fill="#a2c4c9" d="m609.31885 288.97266l20.566895 0l0 20.566956l-20.566895 0z" fill-rule="evenodd"/><path stroke="#595959" stroke-width="1.0" stroke-linejoin="round" stroke-linecap="butt" d="m609.31885 288.97266l20.566895 0l0 20.566956l-20.566895 0z" fill-rule="evenodd"/><path fill="#134f5c" d="m544.0004 310.74548l20.566956 0l0 20.566925l-20.566956 0z" fill-rule="evenodd"/><path stroke="#595959" stroke-width="1.0" stroke-linejoin="round" stroke-linecap="butt" d="m544.0004 310.74548l20.566956 0l0 20.566925l-20.566956 0z" fill-rule="evenodd"/><path fill="#45818e" d="m565.77325 310.74548l20.566895 0l0 20.566925l-20.566895 0z" fill-rule="evenodd"/><path stroke="#595959" stroke-width="1.0" stroke-linejoin="round" stroke-linecap="butt" d="m565.77325 310.74548l20.566895 0l0 20.566925l-20.566895 0z" fill-rule="evenodd"/><path fill="#76a5af" d="m587.546 310.74548l20.566956 0l0 20.566925l-20.566956 0z" fill-rule="evenodd"/><path stroke="#595959" stroke-width="1.0" stroke-linejoin="round" stroke-linecap="butt" d="m587.546 310.74548l20.566956 0l0 20.566925l-20.566956 0z" fill-rule="evenodd"/><path fill="#a2c4c9" d="m609.31885 310.74548l20.566895 0l0 20.566925l-20.566895 0z" fill-rule="evenodd"/><path stroke="#595959" stroke-width="1.0" stroke-linejoin="round" stroke-linecap="butt" d="m609.31885 310.74548l20.566895 0l0 20.566925l-20.566895 0z" fill-rule="evenodd"/><path fill="#a2c4c9" d="m544.0004 332.51828l20.566956 0l0 20.566925l-20.566956 0z" fill-rule="evenodd"/><path stroke="#595959" stroke-width="1.0" stroke-linejoin="round" stroke-linecap="butt" d="m544.0004 332.51828l20.566956 0l0 20.566925l-20.566956 0z" fill-rule="evenodd"/><path fill="#d0e0e3" d="m565.77325 332.51828l20.566895 0l0 20.566925l-20.566895 0z" fill-rule="evenodd"/><path stroke="#595959" stroke-width="1.0" stroke-linejoin="round" stroke-linecap="butt" d="m565.77325 332.51828l20.566895 0l0 20.566925l-20.566895 0z" fill-rule="evenodd"/><path fill="#a2c4c9" d="m587.546 332.51828l20.566956 0l0 20.566925l-20.566956 0z" fill-rule="evenodd"/><path stroke="#595959" stroke-width="1.0" stroke-linejoin="round" stroke-linecap="butt" d="m587.546 332.51828l20.566956 0l0 20.566925l-20.566956 0z" fill-rule="evenodd"/><path fill="#76a5af" d="m609.31885 332.51828l20.566895 0l0 20.566925l-20.566895 0z" fill-rule="evenodd"/><path stroke="#595959" stroke-width="1.0" stroke-linejoin="round" stroke-linecap="butt" d="m609.31885 332.51828l20.566895 0l0 20.566925l-20.566895 0z" fill-rule="evenodd"/><path fill="#134f5c" d="m544.0004 354.29108l20.566956 0l0 20.566925l-20.566956 0z" fill-rule="evenodd"/><path stroke="#595959" stroke-width="1.0" stroke-linejoin="round" stroke-linecap="butt" d="m544.0004 354.29108l20.566956 0l0 20.566925l-20.566956 0z" fill-rule="evenodd"/><path fill="#76a5af" d="m565.77325 354.29108l20.566895 0l0 20.566925l-20.566895 0z" fill-rule="evenodd"/><path stroke="#595959" stroke-width="1.0" stroke-linejoin="round" stroke-linecap="butt" d="m565.77325 354.29108l20.566895 0l0 20.566925l-20.566895 0z" fill-rule="evenodd"/><path fill="#d0e0e3" d="m587.546 354.29108l20.566956 0l0 20.566925l-20.566956 0z" fill-rule="evenodd"/><path stroke="#595959" stroke-width="1.0" stroke-linejoin="round" stroke-linecap="butt" d="m587.546 354.29108l20.566956 0l0 20.566925l-20.566956 0z" fill-rule="evenodd"/><path fill="#d0e0e3" d="m609.31885 354.29108l20.566895 0l0 20.566925l-20.566895 0z" fill-rule="evenodd"/><path stroke="#595959" stroke-width="1.0" stroke-linejoin="round" stroke-linecap="butt" d="m609.31885 354.29108l20.566895 0l0 20.566925l-20.566895 0z" fill-rule="evenodd"/><path fill="#000000" fill-opacity="0.0" d="m550.5621 2.0744045l169.32281 0l0 17.228348l-169.32281 0z" fill-rule="evenodd"/><path fill="#000000" d="m560.98395 28.22275l0 -13.359374l1.8125 0l7.015625 10.484374l0 -10.484374l1.6875 0l0 13.359374l-1.8125 0l-7.015625 -10.5l0 10.5l-1.6875 0zm12.676086 -4.84375q0 -2.6875 1.484375 -3.96875q1.25 -1.078125 3.046875 -1.078125q2.0 0 3.265625 1.3125q1.265625 1.296875 1.265625 3.609375q0 1.859375 -0.5625 2.9375q-0.5625 1.0625 -1.640625 1.65625q-1.0625 0.59375 -2.328125 0.59375q-2.03125 0 -3.28125 -1.296875q-1.25 -1.3125 -1.25 -3.765625zm1.6875 0q0 1.859375 0.796875 2.796875q0.8125 0.921875 2.046875 0.921875q1.21875 0 2.03125 -0.921875q0.8125 -0.9375 0.8125 -2.84375q0 -1.796875 -0.8125 -2.71875q-0.8125 -0.921875 -2.03125 -0.921875q-1.234375 0 -2.046875 0.921875q-0.796875 0.90625 -0.796875 2.765625zm9.297546 -6.625l0 -1.890624l1.640625 0l0 1.890624l-1.640625 0zm0 11.46875l0 -9.671875l1.640625 0l0 9.671875l-1.640625 0zm3.4885864 -2.890625l1.625 -0.25q0.125 0.96875 0.75 1.5q0.625 0.515625 1.75 0.515625q1.125 0 1.671875 -0.453125q0.546875 -0.46875 0.546875 -1.09375q0 -0.546875 -0.484375 -0.875q-0.328125 -0.21875 -1.671875 -0.546875q-1.8125 -0.46875 -2.515625 -0.796875q-0.6875 -0.328125 -1.046875 -0.90625q-0.359375 -0.59375 -0.359375 -1.3125q0 -0.640625 0.296875 -1.1875q0.296875 -0.5625 0.8125 -0.921875q0.375 -0.28125 1.03125 -0.46875q0.671875 -0.203125 1.421875 -0.203125q1.140625 0 2.0 0.328125q0.859375 0.328125 1.265625 0.890625q0.421875 0.5625 0.578125 1.5l-1.609375 0.21875q-0.109375 -0.75 -0.640625 -1.171875q-0.515625 -0.421875 -1.46875 -0.421875q-1.140625 0 -1.625 0.375q-0.46875 0.375 -0.46875 0.875q0 0.3125 0.1875 0.578125q0.203125 0.265625 0.640625 0.4375q0.234375 0.09375 1.4375 0.421875q1.75 0.453125 2.4375 0.75q0.6875 0.296875 1.078125 0.859375q0.390625 0.5625 0.390625 1.40625q0 0.828125 -0.484375 1.546875q-0.46875 0.71875 -1.375 1.125q-0.90625 0.390625 -2.046875 0.390625q-1.875 0 -2.875 -0.78125q-0.984375 -0.78125 -1.25 -2.328125zm16.609375 -0.21875l1.6875 0.203125q-0.40625 1.484375 -1.484375 2.3125q-1.078125 0.8125 -2.765625 0.8125q-2.125 0 -3.375 -1.296875q-1.234375 -1.3125 -1.234375 -3.671875q0 -2.453125 1.25 -3.796875q1.265625 -1.34375 3.265625 -1.34375q1.9375 0 3.15625 1.328125q1.234375 1.3125 1.234375 3.703125q0 0.15625 0 0.4375l-7.21875 0q0.09375 1.59375 0.90625 2.453125q0.8125 0.84375 2.015625 0.84375q0.90625 0 1.546875 -0.46875q0.640625 -0.484375 1.015625 -1.515625zm-5.390625 -2.65625l5.40625 0q-0.109375 -1.21875 -0.625 -1.828125q-0.78125 -0.953125 -2.03125 -0.953125q-1.125 0 -1.90625 0.765625q-0.765625 0.75 -0.84375 2.015625z" fill-rule="nonzero"/></g></svg>