<svg version="1.1" viewBox="0.0 0.0 489.5511811023622 184.73490813648294" fill="none" stroke="none" stroke-linecap="square" stroke-miterlimit="10" xmlns:xlink="http://www.w3.org/1999/xlink" xmlns="http://www.w3.org/2000/svg"><clipPath id="p.0"><path d="m0 0l489.55118 0l0 184.73491l-489.55118 0l0 -184.73491z" clip-rule="nonzero"/></clipPath><g clip-path="url(#p.0)"><path fill="#000000" fill-opacity="0.0" d="m0 0l489.55118 0l0 184.73491l-489.55118 0z" fill-rule="evenodd"/><path fill="#eeeeee" d="m24.0 24.0l30.204723 0l0 30.204723l-30.204723 0z" fill-rule="evenodd"/><path stroke="#595959" stroke-width="1.0" stroke-linejoin="round" stroke-linecap="butt" d="m24.0 24.0l30.204723 0l0 30.204723l-30.204723 0z" fill-rule="evenodd"/><path fill="#eeeeee" d="m56.0 24.0l30.204727 0l0 30.204723l-30.204727 0z" fill-rule="evenodd"/><path stroke="#595959" stroke-width="1.0" stroke-linejoin="round" stroke-linecap="butt" d="m56.0 24.0l30.204727 0l0 30.204723l-30.204727 0z" fill-rule="evenodd"/><path fill="#eeeeee" d="m88.0 24.0l30.204727 0l0 30.204723l-30.204727 0z" fill-rule="evenodd"/><path stroke="#595959" stroke-width="1.0" stroke-linejoin="round" stroke-linecap="butt" d="m88.0 24.0l30.204727 0l0 30.204723l-30.204727 0z" fill-rule="evenodd"/><path fill="#eeeeee" d="m120.0 24.0l30.204727 0l0 30.204723l-30.204727 0z" fill-rule="evenodd"/><path stroke="#595959" stroke-width="1.0" stroke-linejoin="round" stroke-linecap="butt" d="m120.0 24.0l30.204727 0l0 30.204723l-30.204727 0z" fill-rule="evenodd"/><path fill="#eeeeee" d="m24.0 56.0l30.204723 0l0 30.204727l-30.204723 0z" fill-rule="evenodd"/><path stroke="#595959" stroke-width="1.0" stroke-linejoin="round" stroke-linecap="butt" d="m24.0 56.0l30.204723 0l0 30.204727l-30.204723 0z" fill-rule="evenodd"/><path fill="#eeeeee" d="m56.0 56.0l30.204727 0l0 30.204727l-30.204727 0z" fill-rule="evenodd"/><path stroke="#595959" stroke-width="1.0" stroke-linejoin="round" stroke-linecap="butt" d="m56.0 56.0l30.204727 0l0 30.204727l-30.204727 0z" fill-rule="evenodd"/><path fill="#eeeeee" d="m88.0 56.0l30.204727 0l0 30.204727l-30.204727 0z" fill-rule="evenodd"/><path stroke="#595959" stroke-width="1.0" stroke-linejoin="round" stroke-linecap="butt" d="m88.0 56.0l30.204727 0l0 30.204727l-30.204727 0z" fill-rule="evenodd"/><path fill="#eeeeee" d="m120.0 56.0l30.204727 0l0 30.204727l-30.204727 0z" fill-rule="evenodd"/><path stroke="#595959" stroke-width="1.0" stroke-linejoin="round" stroke-linecap="butt" d="m120.0 56.0l30.204727 0l0 30.204727l-30.204727 0z" fill-rule="evenodd"/><path fill="#eeeeee" d="m24.0 88.0l30.204723 0l0 30.204727l-30.204723 0z" fill-rule="evenodd"/><path stroke="#595959" stroke-width="1.0" stroke-linejoin="round" stroke-linecap="butt" d="m24.0 88.0l30.204723 0l0 30.204727l-30.204723 0z" fill-rule="evenodd"/><path fill="#eeeeee" d="m56.0 88.0l30.204727 0l0 30.204727l-30.204727 0z" fill-rule="evenodd"/><path stroke="#595959" stroke-width="1.0" stroke-linejoin="round" stroke-linecap="butt" d="m56.0 88.0l30.204727 0l0 30.204727l-30.204727 0z" fill-rule="evenodd"/><path fill="#eeeeee" d="m88.0 88.0l30.204727 0l0 30.204727l-30.204727 0z" fill-rule="evenodd"/><path stroke="#595959" stroke-width="1.0" stroke-linejoin="round" stroke-linecap="butt" d="m88.0 88.0l30.204727 0l0 30.204727l-30.204727 0z" fill-rule="evenodd"/><path fill="#eeeeee" d="m120.0 88.0l30.204727 0l0 30.204727l-30.204727 0z" fill-rule="evenodd"/><path stroke="#595959" stroke-width="1.0" stroke-linejoin="round" stroke-linecap="butt" d="m120.0 88.0l30.204727 0l0 30.204727l-30.204727 0z" fill-rule="evenodd"/><path fill="#eeeeee" d="m24.0 120.0l30.204723 0l0 30.204727l-30.204723 0z" fill-rule="evenodd"/><path stroke="#595959" stroke-width="1.0" stroke-linejoin="round" stroke-linecap="butt" d="m24.0 120.0l30.204723 0l0 30.204727l-30.204723 0z" fill-rule="evenodd"/><path fill="#eeeeee" d="m56.0 120.0l30.204727 0l0 30.204727l-30.204727 0z" fill-rule="evenodd"/><path stroke="#595959" stroke-width="1.0" stroke-linejoin="round" stroke-linecap="butt" d="m56.0 120.0l30.204727 0l0 30.204727l-30.204727 0z" fill-rule="evenodd"/><path fill="#eeeeee" d="m88.0 120.0l30.204727 0l0 30.204727l-30.204727 0z" fill-rule="evenodd"/><path stroke="#595959" stroke-width="1.0" stroke-linejoin="round" stroke-linecap="butt" d="m88.0 120.0l30.204727 0l0 30.204727l-30.204727 0z" fill-rule="evenodd"/><path fill="#eeeeee" d="m120.0 120.0l30.204727 0l0 30.204727l-30.204727 0z" fill-rule="evenodd"/><path stroke="#595959" stroke-width="1.0" stroke-linejoin="round" stroke-linecap="butt" d="m120.0 120.0l30.204727 0l0 30.204727l-30.204727 0z" fill-rule="evenodd"/><path fill="#eeeeee" d="m24.0 152.0l30.204723 0l0 30.204727l-30.204723 0z" fill-rule="evenodd"/><path stroke="#595959" stroke-width="1.0" stroke-linejoin="round" stroke-linecap="butt" d="m24.0 152.0l30.204723 0l0 30.204727l-30.204723 0z" fill-rule="evenodd"/><path fill="#eeeeee" d="m56.0 152.0l30.204727 0l0 30.204727l-30.204727 0z" fill-rule="evenodd"/><path stroke="#595959" stroke-width="1.0" stroke-linejoin="round" stroke-linecap="butt" d="m56.0 152.0l30.204727 0l0 30.204727l-30.204727 0z" fill-rule="evenodd"/><path fill="#eeeeee" d="m88.0 152.0l30.204727 0l0 30.204727l-30.204727 0z" fill-rule="evenodd"/><path stroke="#595959" stroke-width="1.0" stroke-linejoin="round" stroke-linecap="butt" d="m88.0 152.0l30.204727 0l0 30.204727l-30.204727 0z" fill-rule="evenodd"/><path fill="#eeeeee" d="m120.0 152.0l30.204727 0l0 30.204727l-30.204727 0z" fill-rule="evenodd"/><path stroke="#595959" stroke-width="1.0" stroke-linejoin="round" stroke-linecap="butt" d="m120.0 152.0l30.204727 0l0 30.204727l-30.204727 0z" fill-rule="evenodd"/><path fill="#eeeeee" d="m361.042 120.0l30.204712 0l0 30.204727l-30.204712 0z" fill-rule="evenodd"/><path stroke="#595959" stroke-width="1.0" stroke-linejoin="round" stroke-linecap="butt" d="m361.042 120.0l30.204712 0l0 30.204727l-30.204712 0z" fill-rule="evenodd"/><path fill="#eeeeee" d="m393.042 120.0l30.204712 0l0 30.204727l-30.204712 0z" fill-rule="evenodd"/><path stroke="#595959" stroke-width="1.0" stroke-linejoin="round" stroke-linecap="butt" d="m393.042 120.0l30.204712 0l0 30.204727l-30.204712 0z" fill-rule="evenodd"/><path fill="#eeeeee" d="m425.042 120.0l30.204712 0l0 30.204727l-30.204712 0z" fill-rule="evenodd"/><path stroke="#595959" stroke-width="1.0" stroke-linejoin="round" stroke-linecap="butt" d="m425.042 120.0l30.204712 0l0 30.204727l-30.204712 0z" fill-rule="evenodd"/><path fill="#eeeeee" d="m457.042 120.0l30.204712 0l0 30.204727l-30.204712 0z" fill-rule="evenodd"/><path stroke="#595959" stroke-width="1.0" stroke-linejoin="round" stroke-linecap="butt" d="m457.042 120.0l30.204712 0l0 30.204727l-30.204712 0z" fill-rule="evenodd"/><path fill="#eeeeee" d="m361.042 152.0l30.204712 0l0 30.204727l-30.204712 0z" fill-rule="evenodd"/><path stroke="#595959" stroke-width="1.0" stroke-linejoin="round" stroke-linecap="butt" d="m361.042 152.0l30.204712 0l0 30.204727l-30.204712 0z" fill-rule="evenodd"/><path fill="#eeeeee" d="m393.042 152.0l30.204712 0l0 30.204727l-30.204712 0z" fill-rule="evenodd"/><path stroke="#595959" stroke-width="1.0" stroke-linejoin="round" stroke-linecap="butt" d="m393.042 152.0l30.204712 0l0 30.204727l-30.204712 0z" fill-rule="evenodd"/><path fill="#eeeeee" d="m425.042 152.0l30.204712 0l0 30.204727l-30.204712 0z" fill-rule="evenodd"/><path stroke="#595959" stroke-width="1.0" stroke-linejoin="round" stroke-linecap="butt" d="m425.042 152.0l30.204712 0l0 30.204727l-30.204712 0z" fill-rule="evenodd"/><path fill="#eeeeee" d="m457.042 152.0l30.204712 0l0 30.204727l-30.204712 0z" fill-rule="evenodd"/><path stroke="#595959" stroke-width="1.0" stroke-linejoin="round" stroke-linecap="butt" d="m457.042 152.0l30.204712 0l0 30.204727l-30.204712 0z" fill-rule="evenodd"/><path fill="#eeeeee" d="m227.0105 24.0l30.204712 0l0 30.204723l-30.204712 0z" fill-rule="evenodd"/><path stroke="#595959" stroke-width="1.0" stroke-linejoin="round" stroke-linecap="butt" d="m227.0105 24.0l30.204712 0l0 30.204723l-30.204712 0z" fill-rule="evenodd"/><path fill="#eeeeee" d="m259.0105 24.0l30.204712 0l0 30.204723l-30.204712 0z" fill-rule="evenodd"/><path stroke="#595959" stroke-width="1.0" stroke-linejoin="round" stroke-linecap="butt" d="m259.0105 24.0l30.204712 0l0 30.204723l-30.204712 0z" fill-rule="evenodd"/><path fill="#eeeeee" d="m227.0105 56.0l30.204712 0l0 30.204727l-30.204712 0z" fill-rule="evenodd"/><path stroke="#595959" stroke-width="1.0" stroke-linejoin="round" stroke-linecap="butt" d="m227.0105 56.0l30.204712 0l0 30.204727l-30.204712 0z" fill-rule="evenodd"/><path fill="#eeeeee" d="m259.0105 56.0l30.204712 0l0 30.204727l-30.204712 0z" fill-rule="evenodd"/><path stroke="#595959" stroke-width="1.0" stroke-linejoin="round" stroke-linecap="butt" d="m259.0105 56.0l30.204712 0l0 30.204727l-30.204712 0z" fill-rule="evenodd"/><path fill="#eeeeee" d="m227.0105 88.0l30.204712 0l0 30.204727l-30.204712 0z" fill-rule="evenodd"/><path stroke="#595959" stroke-width="1.0" stroke-linejoin="round" stroke-linecap="butt" d="m227.0105 88.0l30.204712 0l0 30.204727l-30.204712 0z" fill-rule="evenodd"/><path fill="#eeeeee" d="m259.0105 88.0l30.204712 0l0 30.204727l-30.204712 0z" fill-rule="evenodd"/><path stroke="#595959" stroke-width="1.0" stroke-linejoin="round" stroke-linecap="butt" d="m259.0105 88.0l30.204712 0l0 30.204727l-30.204712 0z" fill-rule="evenodd"/><path fill="#eeeeee" d="m227.0105 120.0l30.204712 0l0 30.204727l-30.204712 0z" fill-rule="evenodd"/><path stroke="#595959" stroke-width="1.0" stroke-linejoin="round" stroke-linecap="butt" d="m227.0105 120.0l30.204712 0l0 30.204727l-30.204712 0z" fill-rule="evenodd"/><path fill="#eeeeee" d="m259.0105 120.0l30.204712 0l0 30.204727l-30.204712 0z" fill-rule="evenodd"/><path stroke="#595959" stroke-width="1.0" stroke-linejoin="round" stroke-linecap="butt" d="m259.0105 120.0l30.204712 0l0 30.204727l-30.204712 0z" fill-rule="evenodd"/><path fill="#eeeeee" d="m227.0105 152.0l30.204712 0l0 30.204727l-30.204712 0z" fill-rule="evenodd"/><path stroke="#595959" stroke-width="1.0" stroke-linejoin="round" stroke-linecap="butt" d="m227.0105 152.0l30.204712 0l0 30.204727l-30.204712 0z" fill-rule="evenodd"/><path fill="#eeeeee" d="m259.0105 152.0l30.204712 0l0 30.204727l-30.204712 0z" fill-rule="evenodd"/><path stroke="#595959" stroke-width="1.0" stroke-linejoin="round" stroke-linecap="butt" d="m259.0105 152.0l30.204712 0l0 30.204727l-30.204712 0z" fill-rule="evenodd"/><path fill="#000000" fill-opacity="0.0" d="m170.54646 86.509605l37.150055 0l0 10.408066l-37.150055 0zm0 15.612099l37.150055 0l0 10.408058l-37.150055 0z" fill-rule="evenodd"/><path stroke="#595959" stroke-width="1.0" stroke-linejoin="round" stroke-linecap="butt" d="m170.54646 86.509605l37.150055 0l0 10.408066l-37.150055 0zm0 15.612099l37.150055 0l0 10.408058l-37.150055 0z" fill-rule="evenodd"/><path fill="#000000" fill-opacity="0.0" d="m307.44897 141.55923l7.3595886 -7.359619l7.8179626 7.8179626l7.8179626 -7.8179626l7.359619 7.359619l-7.8179626 7.8179626l7.8179626 7.8179626l-7.359619 7.359604l-7.8179626 -7.8179626l-7.8179626 7.8179626l-7.3595886 -7.359604l7.8179626 -7.8179626z" fill-rule="evenodd"/><path stroke="#595959" stroke-width="1.0" stroke-linejoin="round" stroke-linecap="butt" d="m307.44897 141.55923l7.3595886 -7.359619l7.8179626 7.8179626l7.8179626 -7.8179626l7.359619 7.359619l-7.8179626 7.8179626l7.8179626 7.8179626l-7.359619 7.359604l-7.8179626 -7.8179626l-7.8179626 7.8179626l-7.3595886 -7.359604l7.8179626 -7.8179626z" fill-rule="evenodd"/><path fill="#000000" fill-opacity="0.0" d="m170.79572 78.169846c1.5800629 -1.1115494 6.144806 -6.435257 9.480316 -6.6692886c3.3355255 -0.23403168 6.963257 5.382324 10.532806 5.265091c3.5695648 -0.11723328 9.070435 -4.973755 10.8845215 -5.968506" fill-rule="evenodd"/><path stroke="#595959" stroke-width="1.0" stroke-linejoin="round" stroke-linecap="butt" d="m170.79572 78.169846c1.5800629 -1.1115494 6.144806 -6.435257 9.480316 -6.6692886c3.3355255 -0.23403168 6.963257 5.382324 10.532806 5.265091c3.5695648 -0.11723328 9.070435 -4.973755 10.8845215 -5.968506" fill-rule="evenodd"/><path fill="#000000" fill-opacity="0.0" d="m41.914795 -6.7637796l169.32283 0l0 17.228348l-169.32283 0z" fill-rule="evenodd"/><path fill="#000000" d="m51.758545 15.087691l1.65625 -0.140625q0.125 1.0 0.546875 1.640626q0.4375 0.640625 1.34375 1.046875q0.921875 0.390625 2.0625 0.390625q1.0 0 1.78125 -0.296875q0.78125 -0.296875 1.15625 -0.8125q0.375 -0.53125 0.375 -1.156251q0 -0.625 -0.375 -1.09375q-0.359375 -0.46875 -1.1875 -0.796875q-0.546875 -0.203125 -2.390625 -0.640625q-1.828125 -0.453125 -2.5625 -0.84375q-0.96875 -0.5 -1.4375 -1.234375q-0.46875 -0.75 -0.46875 -1.671875q0 -1.0 0.578125 -1.875q0.578125 -0.890625 1.671875 -1.34375q1.109375 -0.453125 2.453125 -0.453125q1.484375 0 2.609375 0.484375q1.140625 0.46875 1.75 1.40625q0.609375 0.921875 0.65625 2.09375l-1.6875 0.125q-0.140625 -1.265625 -0.9375 -1.90625q-0.78125 -0.65625 -2.3125 -0.65625q-1.609375 0 -2.34375 0.59375q-0.734375 0.59375 -0.734375 1.421875q0 0.71875 0.53125 1.171875q0.5 0.46875 2.65625 0.96875q2.15625 0.484375 2.953125 0.84375q1.171875 0.53125 1.71875 1.359375q0.5625 0.828125 0.5625 1.90625q0 1.062501 -0.609375 2.015626q-0.609375 0.9375 -1.75 1.46875q-1.140625 0.515625 -2.578125 0.515625q-1.8125 0 -3.046875 -0.53125q-1.21875 -0.53125 -1.921875 -1.59375q-0.6875 -1.0625 -0.71875 -2.406251zm19.146698 3.109376q-0.921875 0.765625 -1.765625 1.09375q-0.828125 0.3125 -1.796875 0.3125q-1.59375 0 -2.453125 -0.78125q-0.859375 -0.78125 -0.859375 -1.984375q0 -0.71875 0.328125 -1.296876q0.328125 -0.59375 0.84375 -0.9375q0.53125 -0.359375 1.1875 -0.546875q0.46875 -0.125 1.453125 -0.25q1.984375 -0.234375 2.921875 -0.5625q0.015625 -0.34375 0.015625 -0.421875q0 -1.0 -0.46875 -1.421875q-0.625 -0.546875 -1.875 -0.546875q-1.15625 0 -1.703125 0.40625q-0.546875 0.40625 -0.8125 1.421875l-1.609375 -0.21875q0.21875 -1.015625 0.71875 -1.640625q0.5 -0.640625 1.453125 -0.984375q0.953125 -0.34375 2.1875 -0.34375q1.25 0 2.015625 0.296875q0.78125 0.28125 1.140625 0.734375q0.375 0.4375 0.515625 1.109375q0.078125 0.421875 0.078125 1.515625l0 2.1875q0 2.281251 0.109375 2.890626q0.109375 0.59375 0.40625 1.15625l-1.703125 0q-0.265625 -0.515625 -0.328125 -1.1875zm-0.140625 -3.671876q-0.890625 0.375 -2.671875 0.625q-1.015625 0.140625 -1.4375 0.328125q-0.421875 0.1875 -0.65625 0.53125095q-0.21875 0.34375 -0.21875 0.78125q0 0.65625 0.5 1.09375q0.5 0.4375 1.453125 0.4375q0.9375 0 1.671875 -0.40625q0.75 -0.421875 1.09375 -1.140625q0.265625 -0.5625 0.265625 -1.640626l0 -0.609375zm4.203842 4.859376l0 -9.671876l1.46875 0l0 1.359375q0.453125 -0.71875 1.203125 -1.140625q0.765625 -0.4375 1.71875 -0.4375q1.078125 0 1.765625 0.453125q0.6875 0.4375 0.96875 1.234375q1.15625 -1.6875 2.984375 -1.6875q1.453125 0 2.21875 0.796875q0.78125 0.796875 0.78125 2.453125l0 6.640626l-1.640625 0l0 -6.093751q0 -0.984375 -0.15625 -1.40625q-0.15625 -0.4375 -0.578125 -0.703125q-0.421875 -0.265625 -0.984375 -0.265625q-1.015625 0 -1.6875 0.6875q-0.671875 0.671875 -0.671875 2.15625l0 5.625001l-1.640625 0l0 -6.281251q0 -1.09375 -0.40625 -1.640625q-0.40625 -0.546875 -1.3125 -0.546875q-0.6875 0 -1.28125 0.359375q-0.59375 0.359375 -0.859375 1.0625q-0.25 0.703125 -0.25 2.03125l0 5.015626l-1.640625 0zm15.540802 3.703125l0 -13.375001l1.484375 0l0 1.25q0.53125 -0.734375 1.1875 -1.09375q0.671875 -0.375 1.625 -0.375q1.234375 0 2.171875 0.640625q0.953125 0.625 1.4375 1.796875q0.484375 1.15625 0.484375 2.546875q0 1.484375 -0.53125 2.671876q-0.53125 1.1875 -1.546875 1.828125q-1.015625 0.625 -2.140625 0.625q-0.8125 0 -1.46875 -0.34375q-0.65625 -0.34375 -1.0625 -0.875l0 4.703125l-1.640625 0zm1.484375 -8.484376q0 1.859376 0.75 2.765626q0.765625 0.890625 1.828125 0.890625q1.09375 0 1.875 -0.921875q0.78125 -0.9375 0.78125 -2.875001q0 -1.84375 -0.765625 -2.765625q-0.75 -0.921875 -1.8125 -0.921875q-1.046875 0 -1.859375 0.984375q-0.796875 0.96875 -0.796875 2.84375zm8.844467 4.781251l0 -13.359376l1.640625 0l0 13.359376l-1.640625 0zm10.816696 -3.109375l1.6875 0.203125q-0.40625 1.484375 -1.484375 2.3125q-1.078125 0.8125 -2.765625 0.8125q-2.125 0 -3.375 -1.296875q-1.234375 -1.3125 -1.234375 -3.671876q0 -2.453125 1.25 -3.796875q1.265625 -1.34375 3.265625 -1.34375q1.9375 0 3.15625 1.328125q1.234375 1.3125 1.234375 3.703125q0 0.15625 0 0.4375l-7.21875 0q0.09375 1.593751 0.90625 2.453126q0.8125 0.84375 2.015625 0.84375q0.90625 0 1.546875 -0.46875q0.640625 -0.484375 1.015625 -1.515625zm-5.390625 -2.656251l5.40625 0q-0.109375 -1.21875 -0.625 -1.828125q-0.78125 -0.953125 -2.03125 -0.953125q-1.125 0 -1.90625 0.765625q-0.765625 0.75 -0.84375 2.015625zm8.485092 2.875001l1.625 -0.25q0.125 0.96875 0.75 1.5q0.625 0.515625 1.75 0.515625q1.125 0 1.671875 -0.453125q0.546875 -0.46875 0.546875 -1.09375q0 -0.546875 -0.484375 -0.87500095q-0.328125 -0.21875 -1.671875 -0.546875q-1.8125 -0.46875 -2.515625 -0.796875q-0.6875 -0.328125 -1.046875 -0.90625q-0.359375 -0.59375 -0.359375 -1.3125q0 -0.640625 0.296875 -1.1875q0.296875 -0.5625 0.8125 -0.921875q0.375 -0.28125 1.03125 -0.46875q0.671875 -0.203125 1.421875 -0.203125q1.140625 0 2.0 0.328125q0.859375 0.328125 1.265625 0.890625q0.421875 0.5625 0.578125 1.5l-1.609375 0.21875q-0.109375 -0.75 -0.640625 -1.171875q-0.515625 -0.421875 -1.46875 -0.421875q-1.140625 0 -1.625 0.375q-0.46875 0.375 -0.46875 0.875q0 0.3125 0.1875 0.578125q0.203125 0.265625 0.640625 0.4375q0.234375 0.09375 1.4375 0.421875q1.75 0.453125 2.4375 0.75q0.6875 0.296875 1.078125 0.859375q0.390625 0.5625 0.390625 1.406251q0 0.828125 -0.484375 1.546875q-0.46875 0.71875 -1.375 1.125q-0.90625 0.390625 -2.046875 0.390625q-1.875 0 -2.875 -0.78125q-0.984375 -0.78125 -1.25 -2.328125z" fill-rule="nonzero"/><path fill="#000000" fill-opacity="0.0" d="m34.55643 19.427309l0 171.40158l-17.228348 0l0 -171.40158z" fill-rule="evenodd"/><path fill="#000000" d="m8.408085 29.958559l13.359375 0l0 9.015627l-1.578125 0l0 -7.250002l-4.140625 0l0 6.265627l-1.578125 0l0 -6.265627l-6.0625 0l0 -1.765625zm3.109375 17.724108l-0.203125 1.6875q-1.484375 -0.40625 -2.3125 -1.484375q-0.8125 -1.078125 -0.8125 -2.765625q0 -2.125 1.296875 -3.375q1.3125 -1.234375 3.671875 -1.234375q2.453125 0 3.796875 1.25q1.34375 1.265625 1.34375 3.265625q0 1.9375 -1.328125 3.15625q-1.3125 1.234375 -3.703125 1.234375q-0.15625 0 -0.4375 0l0 -7.21875q-1.59375 0.09375 -2.453125 0.90625q-0.84375 0.8125 -0.84375 2.015625q0 0.90625 0.46875 1.546875q0.484375 0.640625 1.515625 1.015625zm2.65625 -5.390625l0 5.40625q1.21875 -0.109375 1.828125 -0.625q0.953125 -0.78125 0.953125 -2.03125q0 -1.125 -0.765625 -1.90625q-0.75 -0.765625 -2.015625 -0.84375zm-4.578125 15.453842q-0.765625 -0.921875 -1.09375 -1.765625q-0.3125 -0.828125 -0.3125 -1.796875q0 -1.59375 0.78125 -2.453125q0.78125 -0.859375 1.984375 -0.859375q0.71875 0 1.296875 0.328125q0.59375 0.328125 0.9375 0.84375q0.359375 0.53125 0.546875 1.1875q0.125 0.46875 0.25 1.453125q0.234375 1.984375 0.5625 2.921875q0.34375 0.015625 0.421875 0.015625q1.0 0 1.421875 -0.46875q0.546875 -0.625 0.546875 -1.875q0 -1.15625 -0.40625 -1.703125q-0.40625 -0.546875 -1.421875 -0.8125l0.21875 -1.609375q1.015625 0.21875 1.640625 0.71875q0.640625 0.5 0.984375 1.453125q0.34375 0.953125 0.34375 2.1875q0 1.25 -0.296875 2.015625q-0.28125 0.78125 -0.734375 1.140625q-0.4375 0.375 -1.109375 0.515625q-0.421875 0.078125 -1.515625 0.078125l-2.1875 0q-2.28125 0 -2.890625 0.109375q-0.59375 0.109375 -1.15625 0.40625l0 -1.703125q0.515625 -0.265625 1.1875 -0.328125zm3.671875 -0.140625q-0.375 -0.890625 -0.625 -2.671875q-0.140625 -1.015625 -0.328125 -1.4375q-0.1875 -0.421875 -0.53125 -0.65625q-0.34375 -0.21875 -0.78125 -0.21875q-0.65625 0 -1.09375 0.5q-0.4375 0.5 -0.4375 1.453125q0 0.9375 0.40625 1.671875q0.421875 0.75 1.140625 1.09375q0.5625 0.265625 1.640625 0.265625l0.609375 0zm-3.390625 7.7819633l-1.453125 0.234375q-0.140625 -0.6875 -0.140625 -1.234375q0 -0.8906212 0.28125 -1.3906212q0.28125 -0.484375 0.734375 -0.6875q0.46875 -0.203125 1.9375 -0.203125l5.578125 0l0 -1.203125l1.265625 0l0 1.203125l2.390625 0l0.984375 1.625l-3.375 0l0 1.6562462l-1.265625 0l0 -1.6562462l-5.671875 0q-0.6875 0 -0.890625 0.078125q-0.203125 0.09375 -0.328125 0.2812462q-0.109375 0.203125 -0.109375 0.578125q0 0.265625 0.0625 0.71875zm-1.46875 7.933304l1.421875 0q-1.640625 -1.125 -1.640625 -3.0625q0 -0.859375 0.328125 -1.609375q0.328125 -0.734375 0.828125 -1.09375q0.5 -0.359375 1.21875 -0.5q0.46875 -0.109375 1.53125 -0.109375l5.984375 0l0 1.640625l-5.359375 0q-1.28125 0 -1.734375 0.109375q-0.640625 0.15625 -1.015625 0.65625q-0.375 0.5 -0.375 1.234375q0 0.734375 0.375 1.375q0.390625 0.65625 1.03125 0.921875q0.65625 0.265625 1.890625 0.265625l5.1875 0l0 1.640625l-9.671875 0l0 -1.46875zm0 4.031967l9.671875 0l0 1.46875l-1.46875 0q1.03125 0.5625 1.359375 1.03125q0.328125 0.484375 0.328125 1.0625q0 0.828125 -0.53125 1.6875l-1.515625 -0.5625q0.359375 -0.609375 0.359375 -1.203125q0 -0.546875 -0.328125 -0.96875q-0.328125 -0.421875 -0.890625 -0.609375q-0.875 -0.28125 -1.921875 -0.28125l-5.0625 0l0 -1.625zm3.109375 12.853302l-0.203125 1.6875q-1.484375 -0.40625 -2.3125 -1.484375q-0.8125 -1.078125 -0.8125 -2.765625q0 -2.125 1.296875 -3.375q1.3125 -1.234375 3.671875 -1.234375q2.453125 0 3.796875 1.25q1.34375 1.265625 1.34375 3.265625q0 1.9375 -1.328125 3.15625q-1.3125 1.234375 -3.703125 1.234375q-0.15625 0 -0.4375 0l0 -7.21875q-1.59375 0.09375 -2.453125 0.90625q-0.84375 0.8125 -0.84375 2.015625q0 0.90625 0.46875 1.546875q0.484375 0.640625 1.515625 1.015625zm2.65625 -5.390625l0 5.40625q1.21875 -0.109375 1.828125 -0.625q0.953125 -0.78125 0.953125 -2.03125q0 -1.125 -0.765625 -1.90625q-0.75 -0.765625 -2.015625 -0.84375zm-2.875 8.485092l0.25 1.625q-0.96875 0.125 -1.5 0.75q-0.515625 0.625 -0.515625 1.75q0 1.125 0.453125 1.671875q0.46875 0.546875 1.09375 0.546875q0.546875 0 0.875 -0.484375q0.21875 -0.328125 0.546875 -1.671875q0.46875 -1.8125 0.796875 -2.515625q0.328125 -0.6875 0.90625 -1.046875q0.59375 -0.359375 1.3125 -0.359375q0.640625 0 1.1875 0.296875q0.5625 0.296875 0.921875 0.8125q0.28125 0.375 0.46875 1.03125q0.203125 0.671875 0.203125 1.421875q0 1.140625 -0.328125 2.0q-0.328125 0.859375 -0.890625 1.265625q-0.5625 0.421875 -1.5 0.578125l-0.21875 -1.609375q0.75 -0.109375 1.171875 -0.640625q0.421875 -0.515625 0.421875 -1.46875q0 -1.140625 -0.375 -1.625q-0.375 -0.46875 -0.875 -0.46875q-0.3125 0 -0.578125 0.1875q-0.265625 0.203125 -0.4375 0.640625q-0.09375 0.234375 -0.421875 1.4375q-0.453125 1.75 -0.75 2.4375q-0.296875 0.6875 -0.859375 1.078125q-0.5625 0.390625 -1.40625 0.390625q-0.828125 0 -1.546875 -0.484375q-0.71875 -0.46875 -1.125 -1.375q-0.390625 -0.90625 -0.390625 -2.046875q0 -1.875 0.78125 -2.875q0.78125 -0.984375 2.328125 -1.25zm-6.8125005 18.292679q1.703125 -1.359375 4.0000005 -2.296875q2.296875 -0.9375 4.765625 -0.9375q2.15625 0 4.140625 0.703125q2.3125 0.828125 4.59375 2.53125l0 1.171875q-1.890625 -1.09375 -2.703125 -1.453125q-1.25 -0.546875 -2.625 -0.875q-1.703125 -0.390625 -3.421875 -0.390625q-4.375 0 -8.75 2.71875l0 -1.171875zm3.125 2.775177l-0.234375 1.59375q-0.75 0.109375 -1.078125 0.5625q-0.453125 0.609375 -0.453125 1.671875q0 1.140625 0.453125 1.75q0.453125 0.625 1.265625 0.84375q0.5000005 0.125 2.1093755 0.109375q-1.265625 -1.0625 -1.265625 -2.671875q0 -2.0 1.4375 -3.09375q1.4375 -1.09375 3.453125 -1.09375q1.390625 0 2.5625 0.5q1.171875 0.515625 1.796875 1.453125q0.640625 0.953125 0.640625 2.25q0 1.703125 -1.375 2.8125l1.15625 0l0 1.515625l-8.359375 0q-2.2656255 0 -3.2031255 -0.46875q-0.9375 -0.453125 -1.484375 -1.453125q-0.546875 -0.984375 -0.546875 -2.453125q0 -1.71875 0.78125 -2.796875q0.765625 -1.0625 2.34375 -1.03125zm5.8125005 1.359375q-1.90625 0 -2.78125 0.75q-0.875 0.765625 -0.875 1.90625q0 1.125 0.859375 1.890625q0.875 0.765625 2.734375 0.765625q1.78125 0 2.671875 -0.796875q0.90625 -0.78125 0.90625 -1.890625q0 -1.09375 -0.890625 -1.859375q-0.875 -0.765625 -2.625 -0.765625zm-1.90625 15.953842l-0.203125 1.6875q-1.484375 -0.40625 -2.3125 -1.484375q-0.8125 -1.078125 -0.8125 -2.765625q0 -2.125 1.296875 -3.375q1.3125 -1.234375 3.671875 -1.234375q2.453125 0 3.796875 1.25q1.34375 1.265625 1.34375 3.265625q0 1.9375 -1.328125 3.15625q-1.3125 1.234375 -3.703125 1.234375q-0.15625 0 -0.4375 0l0 -7.21875q-1.59375 0.09375 -2.453125 0.90625q-0.84375 0.8125 -0.84375 2.015625q0 0.90625 0.46875 1.546875q0.484375 0.640625 1.515625 1.015625zm2.65625 -5.390625l0 5.40625q1.21875 -0.109375 1.828125 -0.625q0.953125 -0.78125 0.953125 -2.03125q0 -1.125 -0.765625 -1.90625q-0.75 -0.765625 -2.015625 -0.84375zm-5.765625 9.141342l9.671875 0l0 1.46875l-1.375 0q1.59375 1.0625 1.59375 3.078125q0 0.875 -0.3125 1.609375q-0.3125 0.734375 -0.828125 1.09375q-0.5 0.375 -1.203125 0.515625q-0.453125 0.09375 -1.59375 0.09375l-5.953125 0l0 -1.640625l5.890625 0q1.0 0 1.484375 -0.203125q0.5 -0.1875 0.796875 -0.671875q0.296875 -0.484375 0.296875 -1.140625q0 -1.046875 -0.671875 -1.8125q-0.65625 -0.75 -2.515625 -0.75l-5.28125 0l0 -1.640625zm3.109375 17.000717l-0.203125 1.6875q-1.484375 -0.40625 -2.3125 -1.484375q-0.8125 -1.078125 -0.8125 -2.765625q0 -2.125 1.296875 -3.375q1.3125 -1.234375 3.671875 -1.234375q2.453125 0 3.796875 1.25q1.34375 1.265625 1.34375 3.265625q0 1.9375 -1.328125 3.15625q-1.3125 1.234375 -3.703125 1.234375q-0.15625 0 -0.4375 0l0 -7.21875q-1.59375 0.09375 -2.453125 0.90625q-0.84375 0.8125 -0.84375 2.015625q0 0.90625 0.46875 1.546875q0.484375 0.640625 1.515625 1.015625zm2.65625 -5.390625l0 5.40625q1.21875 -0.109375 1.828125 -0.625q0.953125 -0.78125 0.953125 -2.03125q0 -1.125 -0.765625 -1.90625q-0.75 -0.765625 -2.015625 -0.84375zm-2.875 8.485092l0.25 1.625q-0.96875 0.125 -1.5 0.75q-0.515625 0.625 -0.515625 1.75q0 1.125 0.453125 1.671875q0.46875 0.546875 1.09375 0.546875q0.546875 0 0.875 -0.484375q0.21875 -0.328125 0.546875 -1.671875q0.46875 -1.8125 0.796875 -2.515625q0.328125 -0.6875 0.90625 -1.046875q0.59375 -0.359375 1.3125 -0.359375q0.640625 0 1.1875 0.296875q0.5625 0.296875 0.921875 0.8125q0.28125 0.375 0.46875 1.03125q0.203125 0.671875 0.203125 1.421875q0 1.140625 -0.328125 2.0q-0.328125 0.859375 -0.890625 1.265625q-0.5625 0.421875 -1.5 0.578125l-0.21875 -1.609375q0.75 -0.109375 1.171875 -0.640625q0.421875 -0.515625 0.421875 -1.46875q0 -1.140625 -0.375 -1.625q-0.375 -0.46875 -0.875 -0.46875q-0.3125 0 -0.578125 0.1875q-0.265625 0.203125 -0.4375 0.640625q-0.09375 0.234375 -0.421875 1.4375q-0.453125 1.75 -0.75 2.4375q-0.296875 0.6875 -0.859375 1.078125q-0.5625 0.390625 -1.40625 0.390625q-0.828125 0 -1.546875 -0.484375q-0.71875 -0.46875 -1.125 -1.375q-0.390625 -0.90625 -0.390625 -2.046875q0 -1.875 0.78125 -2.875q0.78125 -0.984375 2.328125 -1.25zm-6.8125005 11.0625l0 -1.1875q4.3750005 2.734375 8.75 2.734375q1.71875 0 3.390625 -0.390625q1.375 -0.3125 2.625 -0.875q0.828125 -0.359375 2.734375 -1.46875l0 1.1875q-2.28125 1.703125 -4.59375 2.53125q-1.984375 0.6875 -4.140625 0.6875q-2.46875 0 -4.765625 -0.9375q-2.2968755 -0.9375 -4.0000005 -2.28125z" fill-rule="nonzero"/></g></svg>