<svg version="1.1" viewBox="0.0 0.0 380.53543307086613 356.2283464566929" fill="none" stroke="none" stroke-linecap="square" stroke-miterlimit="10" xmlns:xlink="http://www.w3.org/1999/xlink" xmlns="http://www.w3.org/2000/svg"><clipPath id="p.0"><path d="m0 0l380.53543 0l0 356.22833l-380.53543 0l0 -356.22833z" clip-rule="nonzero"/></clipPath><g clip-path="url(#p.0)"><path fill="#000000" fill-opacity="0.0" d="m0 0l380.53543 0l0 356.22833l-380.53543 0z" fill-rule="evenodd"/><path fill="#fce5cd" d="m23.850039 23.92793l20.56693 0l0 20.566927l-20.56693 0z" fill-rule="evenodd"/><path stroke="#595959" stroke-width="1.0" stroke-linejoin="round" stroke-linecap="butt" d="m23.850039 23.92793l20.56693 0l0 20.566927l-20.56693 0z" fill-rule="evenodd"/><path fill="#fce5cd" d="m45.62284 23.92793l20.566925 0l0 20.566927l-20.566925 0z" fill-rule="evenodd"/><path stroke="#595959" stroke-width="1.0" stroke-linejoin="round" stroke-linecap="butt" d="m45.62284 23.92793l20.566925 0l0 20.566927l-20.566925 0z" fill-rule="evenodd"/><path fill="#fce5cd" d="m67.39564 23.92793l20.566933 0l0 20.566927l-20.566933 0z" fill-rule="evenodd"/><path stroke="#595959" stroke-width="1.0" stroke-linejoin="round" stroke-linecap="butt" d="m67.39564 23.92793l20.566933 0l0 20.566927l-20.566933 0z" fill-rule="evenodd"/><path fill="#fce5cd" d="m89.16844 23.92793l20.566925 0l0 20.566927l-20.566925 0z" fill-rule="evenodd"/><path stroke="#595959" stroke-width="1.0" stroke-linejoin="round" stroke-linecap="butt" d="m89.16844 23.92793l20.566925 0l0 20.566927l-20.566925 0z" fill-rule="evenodd"/><path fill="#fce5cd" d="m23.850039 45.70073l20.56693 0l0 20.566933l-20.56693 0z" fill-rule="evenodd"/><path stroke="#595959" stroke-width="1.0" stroke-linejoin="round" stroke-linecap="butt" d="m23.850039 45.70073l20.56693 0l0 20.566933l-20.56693 0z" fill-rule="evenodd"/><path fill="#fce5cd" d="m45.62284 45.70073l20.566925 0l0 20.566933l-20.566925 0z" fill-rule="evenodd"/><path stroke="#595959" stroke-width="1.0" stroke-linejoin="round" stroke-linecap="butt" d="m45.62284 45.70073l20.566925 0l0 20.566933l-20.566925 0z" fill-rule="evenodd"/><path fill="#fce5cd" d="m67.39564 45.70073l20.566933 0l0 20.566933l-20.566933 0z" fill-rule="evenodd"/><path stroke="#595959" stroke-width="1.0" stroke-linejoin="round" stroke-linecap="butt" d="m67.39564 45.70073l20.566933 0l0 20.566933l-20.566933 0z" fill-rule="evenodd"/><path fill="#fce5cd" d="m89.16844 45.70073l20.566925 0l0 20.566933l-20.566925 0z" fill-rule="evenodd"/><path stroke="#595959" stroke-width="1.0" stroke-linejoin="round" stroke-linecap="butt" d="m89.16844 45.70073l20.566925 0l0 20.566933l-20.566925 0z" fill-rule="evenodd"/><path fill="#fce5cd" d="m23.850039 67.47353l20.56693 0l0 20.566925l-20.56693 0z" fill-rule="evenodd"/><path stroke="#595959" stroke-width="1.0" stroke-linejoin="round" stroke-linecap="butt" d="m23.850039 67.47353l20.56693 0l0 20.566925l-20.56693 0z" fill-rule="evenodd"/><path fill="#fce5cd" d="m45.62284 67.47353l20.566925 0l0 20.566925l-20.566925 0z" fill-rule="evenodd"/><path stroke="#595959" stroke-width="1.0" stroke-linejoin="round" stroke-linecap="butt" d="m45.62284 67.47353l20.566925 0l0 20.566925l-20.566925 0z" fill-rule="evenodd"/><path fill="#fce5cd" d="m67.39564 67.47353l20.566933 0l0 20.566925l-20.566933 0z" fill-rule="evenodd"/><path stroke="#595959" stroke-width="1.0" stroke-linejoin="round" stroke-linecap="butt" d="m67.39564 67.47353l20.566933 0l0 20.566925l-20.566933 0z" fill-rule="evenodd"/><path fill="#fce5cd" d="m89.16844 67.47353l20.566925 0l0 20.566925l-20.566925 0z" fill-rule="evenodd"/><path stroke="#595959" stroke-width="1.0" stroke-linejoin="round" stroke-linecap="butt" d="m89.16844 67.47353l20.566925 0l0 20.566925l-20.566925 0z" fill-rule="evenodd"/><path fill="#fce5cd" d="m23.850039 89.24633l20.56693 0l0 20.566933l-20.56693 0z" fill-rule="evenodd"/><path stroke="#595959" stroke-width="1.0" stroke-linejoin="round" stroke-linecap="butt" d="m23.850039 89.24633l20.56693 0l0 20.566933l-20.56693 0z" fill-rule="evenodd"/><path fill="#fce5cd" d="m45.62284 89.24633l20.566925 0l0 20.566933l-20.566925 0z" fill-rule="evenodd"/><path stroke="#595959" stroke-width="1.0" stroke-linejoin="round" stroke-linecap="butt" d="m45.62284 89.24633l20.566925 0l0 20.566933l-20.566925 0z" fill-rule="evenodd"/><path fill="#fce5cd" d="m67.39564 89.24633l20.566933 0l0 20.566933l-20.566933 0z" fill-rule="evenodd"/><path stroke="#595959" stroke-width="1.0" stroke-linejoin="round" stroke-linecap="butt" d="m67.39564 89.24633l20.566933 0l0 20.566933l-20.566933 0z" fill-rule="evenodd"/><path fill="#fce5cd" d="m89.16844 89.24633l20.566925 0l0 20.566933l-20.566925 0z" fill-rule="evenodd"/><path stroke="#595959" stroke-width="1.0" stroke-linejoin="round" stroke-linecap="butt" d="m89.16844 89.24633l20.566925 0l0 20.566933l-20.566925 0z" fill-rule="evenodd"/><path fill="#fce5cd" d="m23.850039 111.01913l20.56693 0l0 20.566933l-20.56693 0z" fill-rule="evenodd"/><path stroke="#595959" stroke-width="1.0" stroke-linejoin="round" stroke-linecap="butt" d="m23.850039 111.01913l20.56693 0l0 20.566933l-20.56693 0z" fill-rule="evenodd"/><path fill="#fce5cd" d="m45.62284 111.01913l20.566925 0l0 20.566933l-20.566925 0z" fill-rule="evenodd"/><path stroke="#595959" stroke-width="1.0" stroke-linejoin="round" stroke-linecap="butt" d="m45.62284 111.01913l20.566925 0l0 20.566933l-20.566925 0z" fill-rule="evenodd"/><path fill="#fce5cd" d="m67.39564 111.01913l20.566933 0l0 20.566933l-20.566933 0z" fill-rule="evenodd"/><path stroke="#595959" stroke-width="1.0" stroke-linejoin="round" stroke-linecap="butt" d="m67.39564 111.01913l20.566933 0l0 20.566933l-20.566933 0z" fill-rule="evenodd"/><path fill="#fce5cd" d="m89.16844 111.01913l20.566925 0l0 20.566933l-20.566925 0z" fill-rule="evenodd"/><path stroke="#595959" stroke-width="1.0" stroke-linejoin="round" stroke-linecap="butt" d="m89.16844 111.01913l20.566925 0l0 20.566933l-20.566925 0z" fill-rule="evenodd"/><path fill="#d0e0e3" d="m23.86354 241.6443l20.566929 0l0 20.56694l-20.566929 0z" fill-rule="evenodd"/><path stroke="#595959" stroke-width="1.0" stroke-linejoin="round" stroke-linecap="butt" d="m23.86354 241.6443l20.566929 0l0 20.56694l-20.566929 0z" fill-rule="evenodd"/><path fill="#d0e0e3" d="m45.63634 241.6443l20.566929 0l0 20.56694l-20.566929 0z" fill-rule="evenodd"/><path stroke="#595959" stroke-width="1.0" stroke-linejoin="round" stroke-linecap="butt" d="m45.63634 241.6443l20.566929 0l0 20.56694l-20.566929 0z" fill-rule="evenodd"/><path fill="#d0e0e3" d="m67.40914 241.6443l20.566925 0l0 20.56694l-20.566925 0z" fill-rule="evenodd"/><path stroke="#595959" stroke-width="1.0" stroke-linejoin="round" stroke-linecap="butt" d="m67.40914 241.6443l20.566925 0l0 20.56694l-20.566925 0z" fill-rule="evenodd"/><path fill="#d0e0e3" d="m89.18194 241.6443l20.566933 0l0 20.56694l-20.566933 0z" fill-rule="evenodd"/><path stroke="#595959" stroke-width="1.0" stroke-linejoin="round" stroke-linecap="butt" d="m89.18194 241.6443l20.566933 0l0 20.56694l-20.566933 0z" fill-rule="evenodd"/><path fill="#d0e0e3" d="m23.86354 263.4171l20.566929 0l0 20.566925l-20.566929 0z" fill-rule="evenodd"/><path stroke="#595959" stroke-width="1.0" stroke-linejoin="round" stroke-linecap="butt" d="m23.86354 263.4171l20.566929 0l0 20.566925l-20.566929 0z" fill-rule="evenodd"/><path fill="#d0e0e3" d="m45.63634 263.4171l20.566929 0l0 20.566925l-20.566929 0z" fill-rule="evenodd"/><path stroke="#595959" stroke-width="1.0" stroke-linejoin="round" stroke-linecap="butt" d="m45.63634 263.4171l20.566929 0l0 20.566925l-20.566929 0z" fill-rule="evenodd"/><path fill="#d0e0e3" d="m67.40914 263.4171l20.566925 0l0 20.566925l-20.566925 0z" fill-rule="evenodd"/><path stroke="#595959" stroke-width="1.0" stroke-linejoin="round" stroke-linecap="butt" d="m67.40914 263.4171l20.566925 0l0 20.566925l-20.566925 0z" fill-rule="evenodd"/><path fill="#d0e0e3" d="m89.18194 263.4171l20.566933 0l0 20.566925l-20.566933 0z" fill-rule="evenodd"/><path stroke="#595959" stroke-width="1.0" stroke-linejoin="round" stroke-linecap="butt" d="m89.18194 263.4171l20.566933 0l0 20.566925l-20.566933 0z" fill-rule="evenodd"/><path fill="#d0e0e3" d="m23.86354 285.1899l20.566929 0l0 20.566925l-20.566929 0z" fill-rule="evenodd"/><path stroke="#595959" stroke-width="1.0" stroke-linejoin="round" stroke-linecap="butt" d="m23.86354 285.1899l20.566929 0l0 20.566925l-20.566929 0z" fill-rule="evenodd"/><path fill="#d0e0e3" d="m45.63634 285.1899l20.566929 0l0 20.566925l-20.566929 0z" fill-rule="evenodd"/><path stroke="#595959" stroke-width="1.0" stroke-linejoin="round" stroke-linecap="butt" d="m45.63634 285.1899l20.566929 0l0 20.566925l-20.566929 0z" fill-rule="evenodd"/><path fill="#d0e0e3" d="m67.40914 285.1899l20.566925 0l0 20.566925l-20.566925 0z" fill-rule="evenodd"/><path stroke="#595959" stroke-width="1.0" stroke-linejoin="round" stroke-linecap="butt" d="m67.40914 285.1899l20.566925 0l0 20.566925l-20.566925 0z" fill-rule="evenodd"/><path fill="#d0e0e3" d="m89.18194 285.1899l20.566933 0l0 20.566925l-20.566933 0z" fill-rule="evenodd"/><path stroke="#595959" stroke-width="1.0" stroke-linejoin="round" stroke-linecap="butt" d="m89.18194 285.1899l20.566933 0l0 20.566925l-20.566933 0z" fill-rule="evenodd"/><path fill="#d0e0e3" d="m23.86354 306.9627l20.566929 0l0 20.566925l-20.566929 0z" fill-rule="evenodd"/><path stroke="#595959" stroke-width="1.0" stroke-linejoin="round" stroke-linecap="butt" d="m23.86354 306.9627l20.566929 0l0 20.566925l-20.566929 0z" fill-rule="evenodd"/><path fill="#d0e0e3" d="m45.63634 306.9627l20.566929 0l0 20.566925l-20.566929 0z" fill-rule="evenodd"/><path stroke="#595959" stroke-width="1.0" stroke-linejoin="round" stroke-linecap="butt" d="m45.63634 306.9627l20.566929 0l0 20.566925l-20.566929 0z" fill-rule="evenodd"/><path fill="#d0e0e3" d="m67.40914 306.9627l20.566925 0l0 20.566925l-20.566925 0z" fill-rule="evenodd"/><path stroke="#595959" stroke-width="1.0" stroke-linejoin="round" stroke-linecap="butt" d="m67.40914 306.9627l20.566925 0l0 20.566925l-20.566925 0z" fill-rule="evenodd"/><path fill="#d0e0e3" d="m89.18194 306.9627l20.566933 0l0 20.566925l-20.566933 0z" fill-rule="evenodd"/><path stroke="#595959" stroke-width="1.0" stroke-linejoin="round" stroke-linecap="butt" d="m89.18194 306.9627l20.566933 0l0 20.566925l-20.566933 0z" fill-rule="evenodd"/><path fill="#d0e0e3" d="m23.86354 328.7355l20.566929 0l0 20.566925l-20.566929 0z" fill-rule="evenodd"/><path stroke="#595959" stroke-width="1.0" stroke-linejoin="round" stroke-linecap="butt" d="m23.86354 328.7355l20.566929 0l0 20.566925l-20.566929 0z" fill-rule="evenodd"/><path fill="#d0e0e3" d="m45.63634 328.7355l20.566929 0l0 20.566925l-20.566929 0z" fill-rule="evenodd"/><path stroke="#595959" stroke-width="1.0" stroke-linejoin="round" stroke-linecap="butt" d="m45.63634 328.7355l20.566929 0l0 20.566925l-20.566929 0z" fill-rule="evenodd"/><path fill="#d0e0e3" d="m67.40914 328.7355l20.566925 0l0 20.566925l-20.566925 0z" fill-rule="evenodd"/><path stroke="#595959" stroke-width="1.0" stroke-linejoin="round" stroke-linecap="butt" d="m67.40914 328.7355l20.566925 0l0 20.566925l-20.566925 0z" fill-rule="evenodd"/><path fill="#d0e0e3" d="m89.18194 328.7355l20.566933 0l0 20.566925l-20.566933 0z" fill-rule="evenodd"/><path stroke="#595959" stroke-width="1.0" stroke-linejoin="round" stroke-linecap="butt" d="m89.18194 328.7355l20.566933 0l0 20.566925l-20.566933 0z" fill-rule="evenodd"/><path fill="#d9d2e9" d="m45.63135 132.78659l20.566929 0l0 20.566925l-20.566929 0z" fill-rule="evenodd"/><path stroke="#595959" stroke-width="1.0" stroke-linejoin="round" stroke-linecap="butt" d="m45.63135 132.78659l20.566929 0l0 20.566925l-20.566929 0z" fill-rule="evenodd"/><path fill="#d9d2e9" d="m67.40415 132.78659l20.566925 0l0 20.566925l-20.566925 0z" fill-rule="evenodd"/><path stroke="#595959" stroke-width="1.0" stroke-linejoin="round" stroke-linecap="butt" d="m67.40415 132.78659l20.566925 0l0 20.566925l-20.566925 0z" fill-rule="evenodd"/><path fill="#d9d2e9" d="m89.17695 132.78659l20.566933 0l0 20.566925l-20.566933 0z" fill-rule="evenodd"/><path stroke="#595959" stroke-width="1.0" stroke-linejoin="round" stroke-linecap="butt" d="m89.17695 132.78659l20.566933 0l0 20.566925l-20.566933 0z" fill-rule="evenodd"/><path fill="#d9d2e9" d="m45.63135 154.55939l20.566929 0l0 20.566925l-20.566929 0z" fill-rule="evenodd"/><path stroke="#595959" stroke-width="1.0" stroke-linejoin="round" stroke-linecap="butt" d="m45.63135 154.55939l20.566929 0l0 20.566925l-20.566929 0z" fill-rule="evenodd"/><path fill="#d9d2e9" d="m67.40415 154.55939l20.566925 0l0 20.566925l-20.566925 0z" fill-rule="evenodd"/><path stroke="#595959" stroke-width="1.0" stroke-linejoin="round" stroke-linecap="butt" d="m67.40415 154.55939l20.566925 0l0 20.566925l-20.566925 0z" fill-rule="evenodd"/><path fill="#d9d2e9" d="m89.17695 154.55939l20.566933 0l0 20.566925l-20.566933 0z" fill-rule="evenodd"/><path stroke="#595959" stroke-width="1.0" stroke-linejoin="round" stroke-linecap="butt" d="m89.17695 154.55939l20.566933 0l0 20.566925l-20.566933 0z" fill-rule="evenodd"/><path fill="#d9d2e9" d="m45.63135 176.33218l20.566929 0l0 20.566925l-20.566929 0z" fill-rule="evenodd"/><path stroke="#595959" stroke-width="1.0" stroke-linejoin="round" stroke-linecap="butt" d="m45.63135 176.33218l20.566929 0l0 20.566925l-20.566929 0z" fill-rule="evenodd"/><path fill="#d9d2e9" d="m67.40415 176.33218l20.566925 0l0 20.566925l-20.566925 0z" fill-rule="evenodd"/><path stroke="#595959" stroke-width="1.0" stroke-linejoin="round" stroke-linecap="butt" d="m67.40415 176.33218l20.566925 0l0 20.566925l-20.566925 0z" fill-rule="evenodd"/><path fill="#d9d2e9" d="m89.17695 176.33218l20.566933 0l0 20.566925l-20.566933 0z" fill-rule="evenodd"/><path stroke="#595959" stroke-width="1.0" stroke-linejoin="round" stroke-linecap="butt" d="m89.17695 176.33218l20.566933 0l0 20.566925l-20.566933 0z" fill-rule="evenodd"/><path fill="#d9d2e9" d="m45.63135 198.10498l20.566929 0l0 20.56694l-20.566929 0z" fill-rule="evenodd"/><path stroke="#595959" stroke-width="1.0" stroke-linejoin="round" stroke-linecap="butt" d="m45.63135 198.10498l20.566929 0l0 20.56694l-20.566929 0z" fill-rule="evenodd"/><path fill="#d9d2e9" d="m67.40415 198.10498l20.566925 0l0 20.56694l-20.566925 0z" fill-rule="evenodd"/><path stroke="#595959" stroke-width="1.0" stroke-linejoin="round" stroke-linecap="butt" d="m67.40415 198.10498l20.566925 0l0 20.56694l-20.566925 0z" fill-rule="evenodd"/><path fill="#d9d2e9" d="m89.17695 198.10498l20.566933 0l0 20.56694l-20.566933 0z" fill-rule="evenodd"/><path stroke="#595959" stroke-width="1.0" stroke-linejoin="round" stroke-linecap="butt" d="m89.17695 198.10498l20.566933 0l0 20.56694l-20.566933 0z" fill-rule="evenodd"/><path fill="#d9d2e9" d="m23.858551 132.78659l20.566929 0l0 20.566925l-20.566929 0z" fill-rule="evenodd"/><path stroke="#595959" stroke-width="1.0" stroke-linejoin="round" stroke-linecap="butt" d="m23.858551 132.78659l20.566929 0l0 20.566925l-20.566929 0z" fill-rule="evenodd"/><path fill="#d9d2e9" d="m23.858551 154.55939l20.566929 0l0 20.566925l-20.566929 0z" fill-rule="evenodd"/><path stroke="#595959" stroke-width="1.0" stroke-linejoin="round" stroke-linecap="butt" d="m23.858551 154.55939l20.566929 0l0 20.566925l-20.566929 0z" fill-rule="evenodd"/><path fill="#d9d2e9" d="m23.858551 176.33218l20.566929 0l0 20.566925l-20.566929 0z" fill-rule="evenodd"/><path stroke="#595959" stroke-width="1.0" stroke-linejoin="round" stroke-linecap="butt" d="m23.858551 176.33218l20.566929 0l0 20.566925l-20.566929 0z" fill-rule="evenodd"/><path fill="#d9d2e9" d="m23.858551 198.10498l20.566929 0l0 20.56694l-20.566929 0z" fill-rule="evenodd"/><path stroke="#595959" stroke-width="1.0" stroke-linejoin="round" stroke-linecap="butt" d="m23.858551 198.10498l20.566929 0l0 20.56694l-20.566929 0z" fill-rule="evenodd"/><path fill="#d9d2e9" d="m23.858551 219.87779l20.566929 0l0 20.566925l-20.566929 0z" fill-rule="evenodd"/><path stroke="#595959" stroke-width="1.0" stroke-linejoin="round" stroke-linecap="butt" d="m23.858551 219.87779l20.566929 0l0 20.566925l-20.566929 0z" fill-rule="evenodd"/><path fill="#d9d2e9" d="m45.63135 219.87779l20.566929 0l0 20.566925l-20.566929 0z" fill-rule="evenodd"/><path stroke="#595959" stroke-width="1.0" stroke-linejoin="round" stroke-linecap="butt" d="m45.63135 219.87779l20.566929 0l0 20.566925l-20.566929 0z" fill-rule="evenodd"/><path fill="#d9d2e9" d="m67.40415 219.87779l20.566925 0l0 20.566925l-20.566925 0z" fill-rule="evenodd"/><path stroke="#595959" stroke-width="1.0" stroke-linejoin="round" stroke-linecap="butt" d="m67.40415 219.87779l20.566925 0l0 20.566925l-20.566925 0z" fill-rule="evenodd"/><path fill="#d9d2e9" d="m89.17695 219.87779l20.566933 0l0 20.566925l-20.566933 0z" fill-rule="evenodd"/><path stroke="#595959" stroke-width="1.0" stroke-linejoin="round" stroke-linecap="butt" d="m89.17695 219.87779l20.566933 0l0 20.566925l-20.566933 0z" fill-rule="evenodd"/><path fill="#000000" fill-opacity="0.0" d="m131.01186 173.59702l37.150055 0l0 10.408066l-37.150055 0zm0 15.612091l37.150055 0l0 10.408066l-37.150055 0z" fill-rule="evenodd"/><path stroke="#595959" stroke-width="1.0" stroke-linejoin="round" stroke-linecap="butt" d="m131.01186 173.59702l37.150055 0l0 10.408066l-37.150055 0zm0 15.612091l37.150055 0l0 10.408066l-37.150055 0z" fill-rule="evenodd"/><path fill="#000000" fill-opacity="0.0" d="m245.855 320.06396l7.359604 -7.359619l7.8179626 7.8179626l7.8179626 -7.8179626l7.359619 7.359619l-7.8179626 7.8179626l7.8179626 7.8179626l-7.359619 7.359619l-7.8179626 -7.8179626l-7.8179626 7.8179626l-7.359604 -7.359619l7.8179626 -7.8179626z" fill-rule="evenodd"/><path stroke="#595959" stroke-width="1.0" stroke-linejoin="round" stroke-linecap="butt" d="m245.855 320.06396l7.359604 -7.359619l7.8179626 7.8179626l7.8179626 -7.8179626l7.359619 7.359619l-7.8179626 7.8179626l7.8179626 7.8179626l-7.359619 7.359619l-7.8179626 -7.8179626l-7.8179626 7.8179626l-7.359604 -7.359619l7.8179626 -7.8179626z" fill-rule="evenodd"/><path fill="#000000" fill-opacity="0.0" d="m134.2106 165.66888c1.5800476 -1.1115417 6.1447906 -6.435257 9.480316 -6.669281c3.3355103 -0.2340393 6.963257 5.382324 10.532806 5.265091c3.5695496 -0.117248535 9.070435 -4.973755 10.884506 -5.968506" fill-rule="evenodd"/><path stroke="#595959" stroke-width="1.0" stroke-linejoin="round" stroke-linecap="butt" d="m134.2106 165.66888c1.5800476 -1.1115417 6.1447906 -6.435257 9.480316 -6.669281c3.3355103 -0.2340393 6.963257 5.382324 10.532806 5.265091c3.5695496 -0.117248535 9.070435 -4.973755 10.884506 -5.968506" fill-rule="evenodd"/><path fill="#f6b26b" d="m191.85004 23.92793l20.566925 0l0 20.566927l-20.566925 0z" fill-rule="evenodd"/><path stroke="#595959" stroke-width="1.0" stroke-linejoin="round" stroke-linecap="butt" d="m191.85004 23.92793l20.566925 0l0 20.566927l-20.566925 0z" fill-rule="evenodd"/><path fill="#f6b26b" d="m213.62283 23.92793l20.56694 0l0 20.566927l-20.56694 0z" fill-rule="evenodd"/><path stroke="#595959" stroke-width="1.0" stroke-linejoin="round" stroke-linecap="butt" d="m213.62283 23.92793l20.56694 0l0 20.566927l-20.56694 0z" fill-rule="evenodd"/><path fill="#f6b26b" d="m191.85004 45.70073l20.566925 0l0 20.566933l-20.566925 0z" fill-rule="evenodd"/><path stroke="#595959" stroke-width="1.0" stroke-linejoin="round" stroke-linecap="butt" d="m191.85004 45.70073l20.566925 0l0 20.566933l-20.566925 0z" fill-rule="evenodd"/><path fill="#f6b26b" d="m213.62283 45.70073l20.56694 0l0 20.566933l-20.56694 0z" fill-rule="evenodd"/><path stroke="#595959" stroke-width="1.0" stroke-linejoin="round" stroke-linecap="butt" d="m213.62283 45.70073l20.56694 0l0 20.566933l-20.56694 0z" fill-rule="evenodd"/><path fill="#f6b26b" d="m191.85004 67.47353l20.566925 0l0 20.566925l-20.566925 0z" fill-rule="evenodd"/><path stroke="#595959" stroke-width="1.0" stroke-linejoin="round" stroke-linecap="butt" d="m191.85004 67.47353l20.566925 0l0 20.566925l-20.566925 0z" fill-rule="evenodd"/><path fill="#f6b26b" d="m213.62283 67.47353l20.56694 0l0 20.566925l-20.56694 0z" fill-rule="evenodd"/><path stroke="#595959" stroke-width="1.0" stroke-linejoin="round" stroke-linecap="butt" d="m213.62283 67.47353l20.56694 0l0 20.566925l-20.56694 0z" fill-rule="evenodd"/><path fill="#f6b26b" d="m191.85004 89.24633l20.566925 0l0 20.566933l-20.566925 0z" fill-rule="evenodd"/><path stroke="#595959" stroke-width="1.0" stroke-linejoin="round" stroke-linecap="butt" d="m191.85004 89.24633l20.566925 0l0 20.566933l-20.566925 0z" fill-rule="evenodd"/><path fill="#f6b26b" d="m213.62283 89.24633l20.56694 0l0 20.566933l-20.56694 0z" fill-rule="evenodd"/><path stroke="#595959" stroke-width="1.0" stroke-linejoin="round" stroke-linecap="butt" d="m213.62283 89.24633l20.56694 0l0 20.566933l-20.56694 0z" fill-rule="evenodd"/><path fill="#f6b26b" d="m191.85004 111.01913l20.566925 0l0 20.566933l-20.566925 0z" fill-rule="evenodd"/><path stroke="#595959" stroke-width="1.0" stroke-linejoin="round" stroke-linecap="butt" d="m191.85004 111.01913l20.566925 0l0 20.566933l-20.566925 0z" fill-rule="evenodd"/><path fill="#f6b26b" d="m213.62283 111.01913l20.56694 0l0 20.566933l-20.56694 0z" fill-rule="evenodd"/><path stroke="#595959" stroke-width="1.0" stroke-linejoin="round" stroke-linecap="butt" d="m213.62283 111.01913l20.56694 0l0 20.566933l-20.56694 0z" fill-rule="evenodd"/><path fill="#f6b26b" d="m191.86354 241.6443l20.566925 0l0 20.56694l-20.566925 0z" fill-rule="evenodd"/><path stroke="#595959" stroke-width="1.0" stroke-linejoin="round" stroke-linecap="butt" d="m191.86354 241.6443l20.566925 0l0 20.56694l-20.566925 0z" fill-rule="evenodd"/><path fill="#f6b26b" d="m213.63634 241.6443l20.56694 0l0 20.56694l-20.56694 0z" fill-rule="evenodd"/><path stroke="#595959" stroke-width="1.0" stroke-linejoin="round" stroke-linecap="butt" d="m213.63634 241.6443l20.56694 0l0 20.56694l-20.56694 0z" fill-rule="evenodd"/><path fill="#f6b26b" d="m191.86354 263.4171l20.566925 0l0 20.566925l-20.566925 0z" fill-rule="evenodd"/><path stroke="#595959" stroke-width="1.0" stroke-linejoin="round" stroke-linecap="butt" d="m191.86354 263.4171l20.566925 0l0 20.566925l-20.566925 0z" fill-rule="evenodd"/><path fill="#f6b26b" d="m213.63634 263.4171l20.56694 0l0 20.566925l-20.56694 0z" fill-rule="evenodd"/><path stroke="#595959" stroke-width="1.0" stroke-linejoin="round" stroke-linecap="butt" d="m213.63634 263.4171l20.56694 0l0 20.566925l-20.56694 0z" fill-rule="evenodd"/><path fill="#f6b26b" d="m191.86354 285.1899l20.566925 0l0 20.566925l-20.566925 0z" fill-rule="evenodd"/><path stroke="#595959" stroke-width="1.0" stroke-linejoin="round" stroke-linecap="butt" d="m191.86354 285.1899l20.566925 0l0 20.566925l-20.566925 0z" fill-rule="evenodd"/><path fill="#f6b26b" d="m213.63634 285.1899l20.56694 0l0 20.566925l-20.56694 0z" fill-rule="evenodd"/><path stroke="#595959" stroke-width="1.0" stroke-linejoin="round" stroke-linecap="butt" d="m213.63634 285.1899l20.56694 0l0 20.566925l-20.56694 0z" fill-rule="evenodd"/><path fill="#f6b26b" d="m191.86354 306.9627l20.566925 0l0 20.566925l-20.566925 0z" fill-rule="evenodd"/><path stroke="#595959" stroke-width="1.0" stroke-linejoin="round" stroke-linecap="butt" d="m191.86354 306.9627l20.566925 0l0 20.566925l-20.566925 0z" fill-rule="evenodd"/><path fill="#f6b26b" d="m213.63634 306.9627l20.56694 0l0 20.566925l-20.56694 0z" fill-rule="evenodd"/><path stroke="#595959" stroke-width="1.0" stroke-linejoin="round" stroke-linecap="butt" d="m213.63634 306.9627l20.56694 0l0 20.566925l-20.56694 0z" fill-rule="evenodd"/><path fill="#f6b26b" d="m191.86354 328.7355l20.566925 0l0 20.566925l-20.566925 0z" fill-rule="evenodd"/><path stroke="#595959" stroke-width="1.0" stroke-linejoin="round" stroke-linecap="butt" d="m191.86354 328.7355l20.566925 0l0 20.566925l-20.566925 0z" fill-rule="evenodd"/><path fill="#f6b26b" d="m213.63634 328.7355l20.56694 0l0 20.566925l-20.56694 0z" fill-rule="evenodd"/><path stroke="#595959" stroke-width="1.0" stroke-linejoin="round" stroke-linecap="butt" d="m213.63634 328.7355l20.56694 0l0 20.566925l-20.56694 0z" fill-rule="evenodd"/><path fill="#f6b26b" d="m213.63135 132.78659l20.56694 0l0 20.566925l-20.56694 0z" fill-rule="evenodd"/><path stroke="#595959" stroke-width="1.0" stroke-linejoin="round" stroke-linecap="butt" d="m213.63135 132.78659l20.56694 0l0 20.566925l-20.56694 0z" fill-rule="evenodd"/><path fill="#f6b26b" d="m213.63135 154.55939l20.56694 0l0 20.566925l-20.56694 0z" fill-rule="evenodd"/><path stroke="#595959" stroke-width="1.0" stroke-linejoin="round" stroke-linecap="butt" d="m213.63135 154.55939l20.56694 0l0 20.566925l-20.56694 0z" fill-rule="evenodd"/><path fill="#f6b26b" d="m213.63135 176.33218l20.56694 0l0 20.566925l-20.56694 0z" fill-rule="evenodd"/><path stroke="#595959" stroke-width="1.0" stroke-linejoin="round" stroke-linecap="butt" d="m213.63135 176.33218l20.56694 0l0 20.566925l-20.56694 0z" fill-rule="evenodd"/><path fill="#f6b26b" d="m213.63135 198.10498l20.56694 0l0 20.56694l-20.56694 0z" fill-rule="evenodd"/><path stroke="#595959" stroke-width="1.0" stroke-linejoin="round" stroke-linecap="butt" d="m213.63135 198.10498l20.56694 0l0 20.56694l-20.56694 0z" fill-rule="evenodd"/><path fill="#f6b26b" d="m191.85855 132.78659l20.566925 0l0 20.566925l-20.566925 0z" fill-rule="evenodd"/><path stroke="#595959" stroke-width="1.0" stroke-linejoin="round" stroke-linecap="butt" d="m191.85855 132.78659l20.566925 0l0 20.566925l-20.566925 0z" fill-rule="evenodd"/><path fill="#f6b26b" d="m191.85855 154.55939l20.566925 0l0 20.566925l-20.566925 0z" fill-rule="evenodd"/><path stroke="#595959" stroke-width="1.0" stroke-linejoin="round" stroke-linecap="butt" d="m191.85855 154.55939l20.566925 0l0 20.566925l-20.566925 0z" fill-rule="evenodd"/><path fill="#f6b26b" d="m191.85855 176.33218l20.566925 0l0 20.566925l-20.566925 0z" fill-rule="evenodd"/><path stroke="#595959" stroke-width="1.0" stroke-linejoin="round" stroke-linecap="butt" d="m191.85855 176.33218l20.566925 0l0 20.566925l-20.566925 0z" fill-rule="evenodd"/><path fill="#f6b26b" d="m191.85855 198.10498l20.566925 0l0 20.56694l-20.566925 0z" fill-rule="evenodd"/><path stroke="#595959" stroke-width="1.0" stroke-linejoin="round" stroke-linecap="butt" d="m191.85855 198.10498l20.566925 0l0 20.56694l-20.566925 0z" fill-rule="evenodd"/><path fill="#f6b26b" d="m191.85855 219.87779l20.566925 0l0 20.566925l-20.566925 0z" fill-rule="evenodd"/><path stroke="#595959" stroke-width="1.0" stroke-linejoin="round" stroke-linecap="butt" d="m191.85855 219.87779l20.566925 0l0 20.566925l-20.566925 0z" fill-rule="evenodd"/><path fill="#f6b26b" d="m213.63135 219.87779l20.56694 0l0 20.566925l-20.56694 0z" fill-rule="evenodd"/><path stroke="#595959" stroke-width="1.0" stroke-linejoin="round" stroke-linecap="butt" d="m213.63135 219.87779l20.56694 0l0 20.566925l-20.56694 0z" fill-rule="evenodd"/><path fill="#f6b26b" d="m287.86356 306.9627l20.566925 0l0 20.566925l-20.566925 0z" fill-rule="evenodd"/><path stroke="#595959" stroke-width="1.0" stroke-linejoin="round" stroke-linecap="butt" d="m287.86356 306.9627l20.566925 0l0 20.566925l-20.566925 0z" fill-rule="evenodd"/><path fill="#f6b26b" d="m309.63635 306.9627l20.566925 0l0 20.566925l-20.566925 0z" fill-rule="evenodd"/><path stroke="#595959" stroke-width="1.0" stroke-linejoin="round" stroke-linecap="butt" d="m309.63635 306.9627l20.566925 0l0 20.566925l-20.566925 0z" fill-rule="evenodd"/><path fill="#f6b26b" d="m331.40915 306.9627l20.566925 0l0 20.566925l-20.566925 0z" fill-rule="evenodd"/><path stroke="#595959" stroke-width="1.0" stroke-linejoin="round" stroke-linecap="butt" d="m331.40915 306.9627l20.566925 0l0 20.566925l-20.566925 0z" fill-rule="evenodd"/><path fill="#f6b26b" d="m353.18195 306.9627l20.566925 0l0 20.566925l-20.566925 0z" fill-rule="evenodd"/><path stroke="#595959" stroke-width="1.0" stroke-linejoin="round" stroke-linecap="butt" d="m353.18195 306.9627l20.566925 0l0 20.566925l-20.566925 0z" fill-rule="evenodd"/><path fill="#f6b26b" d="m287.86356 328.7355l20.566925 0l0 20.566925l-20.566925 0z" fill-rule="evenodd"/><path stroke="#595959" stroke-width="1.0" stroke-linejoin="round" stroke-linecap="butt" d="m287.86356 328.7355l20.566925 0l0 20.566925l-20.566925 0z" fill-rule="evenodd"/><path fill="#f6b26b" d="m309.63635 328.7355l20.566925 0l0 20.566925l-20.566925 0z" fill-rule="evenodd"/><path stroke="#595959" stroke-width="1.0" stroke-linejoin="round" stroke-linecap="butt" d="m309.63635 328.7355l20.566925 0l0 20.566925l-20.566925 0z" fill-rule="evenodd"/><path fill="#f6b26b" d="m331.40915 328.7355l20.566925 0l0 20.566925l-20.566925 0z" fill-rule="evenodd"/><path stroke="#595959" stroke-width="1.0" stroke-linejoin="round" stroke-linecap="butt" d="m331.40915 328.7355l20.566925 0l0 20.566925l-20.566925 0z" fill-rule="evenodd"/><path fill="#f6b26b" d="m353.18195 328.7355l20.566925 0l0 20.566925l-20.566925 0z" fill-rule="evenodd"/><path stroke="#595959" stroke-width="1.0" stroke-linejoin="round" stroke-linecap="butt" d="m353.18195 328.7355l20.566925 0l0 20.566925l-20.566925 0z" fill-rule="evenodd"/><path fill="#000000" fill-opacity="0.0" d="m25.914795 -10.57286l169.32283 0l0 17.228348l-169.32283 0z" fill-rule="evenodd"/><path fill="#000000" d="m35.758545 11.278611l1.65625 -0.140625q0.125 1.0 0.546875 1.640625q0.4375 0.640625 1.34375 1.046875q0.921875 0.390625 2.0625 0.390625q1.0 0 1.78125 -0.296875q0.78125 -0.296875 1.15625 -0.8125q0.375 -0.53125 0.375 -1.15625q0 -0.625 -0.375 -1.09375q-0.359375 -0.46875 -1.1875 -0.796875q-0.546875 -0.203125 -2.390625 -0.640625q-1.828125 -0.453125 -2.5625 -0.84375q-0.96875 -0.5 -1.4375 -1.234375q-0.46875 -0.75 -0.46875 -1.671875q0 -1.0 0.578125 -1.8749998q0.578125 -0.890625 1.671875 -1.34375q1.109375 -0.453125 2.453125 -0.453125q1.484375 0 2.609375 0.484375q1.140625 0.46875 1.75 1.40625q0.609375 0.92187476 0.65625 2.0937498l-1.6875 0.125q-0.140625 -1.265625 -0.9375 -1.90625q-0.78125 -0.65624976 -2.3125 -0.65624976q-1.609375 0 -2.34375 0.59374976q-0.734375 0.59375 -0.734375 1.421875q0 0.71875 0.53125 1.171875q0.5 0.46875 2.65625 0.96875q2.15625 0.484375 2.953125 0.84375q1.171875 0.53125 1.71875 1.359375q0.5625 0.828125 0.5625 1.90625q0 1.0625 -0.609375 2.015625q-0.609375 0.9375 -1.75 1.46875q-1.140625 0.515625 -2.578125 0.515625q-1.8125 0 -3.046875 -0.53125q-1.21875 -0.53125 -1.921875 -1.59375q-0.6875 -1.0625 -0.71875 -2.40625zm19.146698 3.109375q-0.921875 0.765625 -1.765625 1.09375q-0.828125 0.3125 -1.796875 0.3125q-1.59375 0 -2.453125 -0.78125q-0.859375 -0.78125 -0.859375 -1.984375q0 -0.71875 0.328125 -1.296875q0.328125 -0.59375 0.84375 -0.9375q0.53125 -0.359375 1.1875 -0.546875q0.46875 -0.125 1.453125 -0.25q1.984375 -0.234375 2.921875 -0.5625q0.015625 -0.34375 0.015625 -0.421875q0 -1.0 -0.46875 -1.421875q-0.625 -0.546875 -1.875 -0.546875q-1.15625 0 -1.703125 0.40625q-0.546875 0.40625 -0.8125 1.421875l-1.609375 -0.21875q0.21875 -1.015625 0.71875 -1.640625q0.5 -0.640625 1.453125 -0.984375q0.953125 -0.34375 2.1875 -0.34375q1.25 0 2.015625 0.296875q0.78125 0.28125 1.140625 0.734375q0.375 0.4375 0.515625 1.109375q0.078125 0.421875 0.078125 1.515625l0 2.1875q0 2.28125 0.109375 2.890625q0.109375 0.59375 0.40625 1.15625l-1.703125 0q-0.265625 -0.515625 -0.328125 -1.1875zm-0.140625 -3.671875q-0.890625 0.375 -2.671875 0.625q-1.015625 0.140625 -1.4375 0.328125q-0.421875 0.1875 -0.65625 0.53125q-0.21875 0.34375 -0.21875 0.78125q0 0.65625 0.5 1.09375q0.5 0.4375 1.453125 0.4375q0.9375 0 1.671875 -0.40625q0.75 -0.421875 1.09375 -1.140625q0.265625 -0.5625 0.265625 -1.640625l0 -0.609375zm4.203842 4.859375l0 -9.671875l1.46875 0l0 1.359375q0.453125 -0.71875 1.203125 -1.140625q0.765625 -0.4375 1.71875 -0.4375q1.078125 0 1.765625 0.453125q0.6875 0.4375 0.96875 1.234375q1.15625 -1.6875 2.984375 -1.6875q1.453125 0 2.21875 0.796875q0.78125 0.796875 0.78125 2.453125l0 6.640625l-1.640625 0l0 -6.09375q0 -0.984375 -0.15625 -1.40625q-0.15625 -0.4375 -0.578125 -0.703125q-0.421875 -0.265625 -0.984375 -0.265625q-1.015625 0 -1.6875 0.6875q-0.671875 0.671875 -0.671875 2.15625l0 5.625l-1.640625 0l0 -6.28125q0 -1.09375 -0.40625 -1.640625q-0.40625 -0.546875 -1.3125 -0.546875q-0.6875 0 -1.28125 0.359375q-0.59375 0.359375 -0.859375 1.0625q-0.25 0.703125 -0.25 2.03125l0 5.015625l-1.640625 0zm15.540802 3.703126l0 -13.375001l1.484375 0l0 1.25q0.53125 -0.734375 1.1875 -1.09375q0.671875 -0.375 1.625 -0.375q1.234375 0 2.171875 0.640625q0.953125 0.625 1.4375 1.796875q0.484375 1.15625 0.484375 2.546875q0 1.484375 -0.53125 2.671875q-0.53125 1.1875 -1.546875 1.828125q-1.015625 0.625 -2.140625 0.625q-0.8125 0 -1.46875 -0.34375q-0.65625 -0.34375 -1.0625 -0.875l0 4.703126l-1.640625 0zm1.484375 -8.484376q0 1.859375 0.75 2.765625q0.765625 0.890625 1.828125 0.890625q1.09375 0 1.875 -0.921875q0.78125 -0.9375 0.78125 -2.875q0 -1.84375 -0.765625 -2.765625q-0.75 -0.921875 -1.8125 -0.921875q-1.046875 0 -1.859375 0.984375q-0.796875 0.96875 -0.796875 2.84375zm8.844467 4.78125l0 -13.359375l1.640625 0l0 13.359375l-1.640625 0zm10.816696 -3.109375l1.6875 0.203125q-0.40625 1.484375 -1.484375 2.3125q-1.078125 0.8125 -2.765625 0.8125q-2.125 0 -3.375 -1.296875q-1.234375 -1.3125 -1.234375 -3.671875q0 -2.453125 1.25 -3.796875q1.265625 -1.34375 3.265625 -1.34375q1.9375 0 3.15625 1.328125q1.234375 1.3125 1.234375 3.703125q0 0.15625 0 0.4375l-7.21875 0q0.09375 1.59375 0.90625 2.453125q0.8125 0.84375 2.015625 0.84375q0.90625 0 1.546875 -0.46875q0.640625 -0.484375 1.015625 -1.515625zm-5.390625 -2.65625l5.40625 0q-0.109375 -1.21875 -0.625 -1.828125q-0.78125 -0.953125 -2.03125 -0.953125q-1.125 0 -1.90625 0.765625q-0.765625 0.75 -0.84375 2.015625zm8.485092 2.875l1.625 -0.25q0.125 0.96875 0.75 1.5q0.625 0.515625 1.75 0.515625q1.125 0 1.671875 -0.453125q0.546875 -0.46875 0.546875 -1.09375q0 -0.546875 -0.484375 -0.875q-0.328125 -0.21875 -1.671875 -0.546875q-1.8125 -0.46875 -2.515625 -0.796875q-0.6875 -0.328125 -1.046875 -0.90625q-0.359375 -0.59375 -0.359375 -1.3125q0 -0.640625 0.296875 -1.1875q0.296875 -0.5625 0.8125 -0.921875q0.375 -0.28125 1.03125 -0.46875q0.671875 -0.203125 1.421875 -0.203125q1.140625 0 2.0 0.328125q0.859375 0.328125 1.265625 0.890625q0.421875 0.5625 0.578125 1.5l-1.609375 0.21875q-0.109375 -0.75 -0.640625 -1.171875q-0.515625 -0.421875 -1.46875 -0.421875q-1.140625 0 -1.625 0.375q-0.46875 0.375 -0.46875 0.875q0 0.3125 0.1875 0.578125q0.203125 0.265625 0.640625 0.4375q0.234375 0.09375 1.4375 0.421875q1.75 0.453125 2.4375 0.75q0.6875 0.296875 1.078125 0.859375q0.390625 0.5625 0.390625 1.40625q0 0.828125 -0.484375 1.546875q-0.46875 0.71875 -1.375 1.125q-0.90625 0.390625 -2.046875 0.390625q-1.875 0 -2.875 -0.78125q-0.984375 -0.78125 -1.25 -2.328125z" fill-rule="nonzero"/><path fill="#000000" fill-opacity="0.0" d="m30.36551 15.619472l0 119.338585l-17.228348 0l0 -119.338585z" fill-rule="evenodd"/><path fill="#000000" d="m4.2171645 26.15072l13.359375 0l0 9.015627l-1.578125 0l0 -7.250002l-4.140625 0l0 6.265627l-1.578125 0l0 -6.265627l-6.0625005 0l0 -1.765625zm3.109375 17.724108l-0.203125 1.6875q-1.484375 -0.40625 -2.3125 -1.484375q-0.8125 -1.078125 -0.8125 -2.765625q0 -2.125 1.296875 -3.375q1.3125 -1.234375 3.6718755 -1.234375q2.453125 0 3.796875 1.25q1.34375 1.265625 1.34375 3.265625q0 1.9375 -1.328125 3.15625q-1.3125 1.234375 -3.703125 1.234375q-0.15625 0 -0.4375 0l0 -7.21875q-1.5937505 0.09375 -2.4531255 0.90625q-0.84375 0.8125 -0.84375 2.015625q0 0.90625 0.46875 1.546875q0.484375 0.640625 1.515625 1.015625zm2.6562505 -5.390625l0 5.40625q1.21875 -0.109375 1.828125 -0.625q0.953125 -0.78125 0.953125 -2.03125q0 -1.125 -0.765625 -1.90625q-0.75 -0.765625 -2.015625 -0.84375zm-4.5781255 15.453842q-0.765625 -0.921875 -1.09375 -1.765625q-0.3125 -0.828125 -0.3125 -1.796875q0 -1.59375 0.78125 -2.453125q0.78125 -0.859375 1.984375 -0.859375q0.71875 0 1.2968755 0.328125q0.59375 0.328125 0.9375 0.84375q0.359375 0.53125 0.546875 1.1875q0.125 0.46875 0.25 1.453125q0.234375 1.984375 0.5625 2.921875q0.34375 0.015625 0.421875 0.015625q1.0 0 1.421875 -0.46875q0.546875 -0.625 0.546875 -1.875q0 -1.15625 -0.40625 -1.703125q-0.40625 -0.546875 -1.421875 -0.8125l0.21875 -1.609375q1.015625 0.21875 1.640625 0.71875q0.640625 0.5 0.984375 1.453125q0.34375 0.953125 0.34375 2.1875q0 1.25 -0.296875 2.015625q-0.28125 0.78125 -0.734375 1.140625q-0.4375 0.375 -1.109375 0.515625q-0.421875 0.078125 -1.515625 0.078125l-2.1875 0q-2.2812505 0 -2.8906255 0.109375q-0.59375 0.109375 -1.15625 0.40625l0 -1.703125q0.515625 -0.265625 1.1875 -0.328125zm3.6718755 -0.140625q-0.375 -0.890625 -0.625 -2.671875q-0.140625 -1.015625 -0.328125 -1.4375q-0.18750048 -0.421875 -0.5312505 -0.65625q-0.34375 -0.21875 -0.78125 -0.21875q-0.65625 0 -1.09375 0.5q-0.4375 0.5 -0.4375 1.453125q0 0.9375 0.40625 1.671875q0.421875 0.75 1.140625 1.09375q0.5625 0.265625 1.6406255 0.265625l0.609375 0zm-3.3906255 7.781967l-1.453125 0.234375q-0.140625 -0.6875 -0.140625 -1.234375q0 -0.890625 0.28125 -1.390625q0.28125 -0.484375 0.734375 -0.6875q0.46875 -0.203125 1.9375 -0.203125l5.5781255 0l0 -1.203125l1.265625 0l0 1.203125l2.390625 0l0.984375 1.625l-3.375 0l0 1.65625l-1.265625 0l0 -1.65625l-5.6718755 0q-0.6875 0 -0.890625 0.078125q-0.203125 0.09375 -0.328125 0.28125q-0.109375 0.203125 -0.109375 0.578125q0 0.265625 0.0625 0.71875zm-1.46875 7.9333l1.421875 0q-1.640625 -1.125 -1.640625 -3.0625q0 -0.859375 0.328125 -1.609375q0.328125 -0.734375 0.828125 -1.0937462q0.5 -0.359375 1.21875 -0.5q0.46875 -0.109375 1.53125 -0.109375l5.9843755 0l0 1.6406212l-5.359375 0q-1.2812505 0 -1.7343755 0.109375q-0.640625 0.15625 -1.015625 0.65625q-0.375 0.5 -0.375 1.234375q0 0.734375 0.375 1.375q0.390625 0.65625 1.03125 0.921875q0.65625 0.265625 1.8906255 0.265625l5.1875 0l0 1.640625l-9.671875 0l0 -1.46875zm0 4.031967l9.671875 0l0 1.46875l-1.46875 0q1.03125 0.5625 1.359375 1.03125q0.328125 0.484375 0.328125 1.0625q0 0.828125 -0.53125 1.6875l-1.515625 -0.5625q0.359375 -0.609375 0.359375 -1.203125q0 -0.546875 -0.328125 -0.96875q-0.328125 -0.421875 -0.890625 -0.609375q-0.875 -0.28125 -1.921875 -0.28125l-5.0625005 0l0 -1.625zm3.109375 12.853302l-0.203125 1.6875q-1.484375 -0.40625 -2.3125 -1.484375q-0.8125 -1.078125 -0.8125 -2.765625q0 -2.125 1.296875 -3.375q1.3125 -1.234375 3.6718755 -1.234375q2.453125 0 3.796875 1.25q1.34375 1.265625 1.34375 3.265625q0 1.9375 -1.328125 3.15625q-1.3125 1.234375 -3.703125 1.234375q-0.15625 0 -0.4375 0l0 -7.21875q-1.5937505 0.09375 -2.4531255 0.90625q-0.84375 0.8125 -0.84375 2.015625q0 0.90625 0.46875 1.546875q0.484375 0.640625 1.515625 1.015625zm2.6562505 -5.390625l0 5.40625q1.21875 -0.109375 1.828125 -0.625q0.953125 -0.78125 0.953125 -2.03125q0 -1.125 -0.765625 -1.90625q-0.75 -0.765625 -2.015625 -0.84375zm-2.8750005 8.485092l0.25 1.625q-0.96875 0.125 -1.5 0.75q-0.515625 0.625 -0.515625 1.75q0 1.125 0.453125 1.671875q0.46875 0.546875 1.09375 0.546875q0.546875 0 0.875 -0.484375q0.21875 -0.328125 0.5468755 -1.671875q0.46875 -1.8125 0.796875 -2.515625q0.328125 -0.6875 0.90625 -1.046875q0.59375 -0.359375 1.3125 -0.359375q0.640625 0 1.1875 0.296875q0.5625 0.296875 0.921875 0.8125q0.28125 0.375 0.46875 1.03125q0.203125 0.671875 0.203125 1.421875q0 1.140625 -0.328125 2.0q-0.328125 0.859375 -0.890625 1.265625q-0.5625 0.421875 -1.5 0.578125l-0.21875 -1.609375q0.75 -0.109375 1.171875 -0.640625q0.421875 -0.515625 0.421875 -1.46875q0 -1.140625 -0.375 -1.625q-0.375 -0.46875 -0.875 -0.46875q-0.3125 0 -0.578125 0.1875q-0.265625 0.203125 -0.4375 0.640625q-0.09375 0.234375 -0.421875 1.4375q-0.453125 1.75 -0.75 2.4375q-0.296875 0.6875 -0.859375 1.078125q-0.5625005 0.390625 -1.4062505 0.390625q-0.828125 0 -1.546875 -0.484375q-0.71875 -0.46875 -1.125 -1.375q-0.390625 -0.90625 -0.390625 -2.046875q0 -1.875 0.78125 -2.875q0.78125 -0.984375 2.328125 -1.25zm-2.890625 20.886429l0 -1.640625l10.453125 0q-0.5625 -0.59375 -1.140625 -1.5625q-0.5625 -0.953125 -0.84375 -1.71875l1.59375 0q0.640625 1.375 1.5625 2.40625q0.921875 1.03125 1.78125 1.453125l0 1.0625l-13.40625 0z" fill-rule="nonzero"/><path fill="#000000" fill-opacity="0.0" d="m30.36551 128.56955l0 119.33858l-17.228348 0l0 -119.33858z" fill-rule="evenodd"/><path fill="#000000" d="m4.2171645 139.1008l13.359375 0l0 9.015625l-1.578125 0l0 -7.25l-4.140625 0l0 6.265625l-1.578125 0l0 -6.265625l-6.0625005 0l0 -1.765625zm3.109375 17.724106l-0.203125 1.6875q-1.484375 -0.40625 -2.3125 -1.484375q-0.8125 -1.078125 -0.8125 -2.765625q0 -2.125 1.296875 -3.375q1.3125 -1.234375 3.6718755 -1.234375q2.453125 0 3.796875 1.25q1.34375 1.265625 1.34375 3.265625q0 1.9375 -1.328125 3.15625q-1.3125 1.234375 -3.703125 1.234375q-0.15625 0 -0.4375 0l0 -7.21875q-1.5937505 0.09375 -2.4531255 0.90625q-0.84375 0.8125 -0.84375 2.015625q0 0.90625 0.46875 1.546875q0.484375 0.640625 1.515625 1.015625zm2.6562505 -5.390625l0 5.40625q1.21875 -0.109375 1.828125 -0.625q0.953125 -0.78125 0.953125 -2.03125q0 -1.125 -0.765625 -1.90625q-0.75 -0.765625 -2.015625 -0.84375zm-4.5781255 15.453842q-0.765625 -0.921875 -1.09375 -1.765625q-0.3125 -0.828125 -0.3125 -1.796875q0 -1.59375 0.78125 -2.453125q0.78125 -0.859375 1.984375 -0.859375q0.71875 0 1.2968755 0.328125q0.59375 0.328125 0.9375 0.84375q0.359375 0.53125 0.546875 1.1875q0.125 0.46875 0.25 1.453125q0.234375 1.984375 0.5625 2.921875q0.34375 0.015625 0.421875 0.015625q1.0 0 1.421875 -0.46875q0.546875 -0.625 0.546875 -1.875q0 -1.15625 -0.40625 -1.703125q-0.40625 -0.546875 -1.421875 -0.8125l0.21875 -1.609375q1.015625 0.21875 1.640625 0.71875q0.640625 0.5 0.984375 1.453125q0.34375 0.953125 0.34375 2.1875q0 1.25 -0.296875 2.015625q-0.28125 0.78125 -0.734375 1.140625q-0.4375 0.375 -1.109375 0.515625q-0.421875 0.078125 -1.515625 0.078125l-2.1875 0q-2.2812505 0 -2.8906255 0.109375q-0.59375 0.109375 -1.15625 0.40625l0 -1.703125q0.515625 -0.265625 1.1875 -0.328125zm3.6718755 -0.140625q-0.375 -0.890625 -0.625 -2.671875q-0.140625 -1.015625 -0.328125 -1.4375q-0.18750048 -0.421875 -0.5312505 -0.65625q-0.34375 -0.21875 -0.78125 -0.21875q-0.65625 0 -1.09375 0.5q-0.4375 0.5 -0.4375 1.453125q0 0.9375 0.40625 1.671875q0.421875 0.75 1.140625 1.09375q0.5625 0.265625 1.6406255 0.265625l0.609375 0zm-3.3906255 7.781967l-1.453125 0.234375q-0.140625 -0.6875 -0.140625 -1.234375q0 -0.890625 0.28125 -1.390625q0.28125 -0.484375 0.734375 -0.6875q0.46875 -0.203125 1.9375 -0.203125l5.5781255 0l0 -1.203125l1.265625 0l0 1.203125l2.390625 0l0.984375 1.625l-3.375 0l0 1.65625l-1.265625 0l0 -1.65625l-5.6718755 0q-0.6875 0 -0.890625 0.078125q-0.203125 0.09375 -0.328125 0.28125q-0.109375 0.203125 -0.109375 0.578125q0 0.265625 0.0625 0.71875zm-1.46875 7.933304l1.421875 0q-1.640625 -1.125 -1.640625 -3.0625q0 -0.859375 0.328125 -1.609375q0.328125 -0.734375 0.828125 -1.09375q0.5 -0.359375 1.21875 -0.5q0.46875 -0.109375 1.53125 -0.109375l5.9843755 0l0 1.640625l-5.359375 0q-1.2812505 0 -1.7343755 0.109375q-0.640625 0.15625 -1.015625 0.65625q-0.375 0.5 -0.375 1.234375q0 0.734375 0.375 1.375q0.390625 0.65625 1.03125 0.921875q0.65625 0.265625 1.8906255 0.265625l5.1875 0l0 1.640625l-9.671875 0l0 -1.46875zm0 4.031967l9.671875 0l0 1.46875l-1.46875 0q1.03125 0.5625 1.359375 1.03125q0.328125 0.484375 0.328125 1.0625q0 0.828125 -0.53125 1.6875l-1.515625 -0.5625q0.359375 -0.609375 0.359375 -1.203125q0 -0.546875 -0.328125 -0.96875q-0.328125 -0.421875 -0.890625 -0.609375q-0.875 -0.28125 -1.921875 -0.28125l-5.0625005 0l0 -1.625zm3.109375 12.853302l-0.203125 1.6875q-1.484375 -0.40625 -2.3125 -1.484375q-0.8125 -1.078125 -0.8125 -2.765625q0 -2.125 1.296875 -3.375q1.3125 -1.234375 3.6718755 -1.234375q2.453125 0 3.796875 1.25q1.34375 1.265625 1.34375 3.265625q0 1.9375 -1.328125 3.15625q-1.3125 1.234375 -3.703125 1.234375q-0.15625 0 -0.4375 0l0 -7.21875q-1.5937505 0.09375 -2.4531255 0.90625q-0.84375 0.8125 -0.84375 2.015625q0 0.90625 0.46875 1.546875q0.484375 0.640625 1.515625 1.015625zm2.6562505 -5.390625l0 5.40625q1.21875 -0.109375 1.828125 -0.625q0.953125 -0.78125 0.953125 -2.03125q0 -1.125 -0.765625 -1.90625q-0.75 -0.765625 -2.015625 -0.84375zm-2.8750005 8.485092l0.25 1.625q-0.96875 0.125 -1.5 0.75q-0.515625 0.625 -0.515625 1.75q0 1.125 0.453125 1.671875q0.46875 0.546875 1.09375 0.546875q0.546875 0 0.875 -0.484375q0.21875 -0.328125 0.5468755 -1.671875q0.46875 -1.8125 0.796875 -2.515625q0.328125 -0.6875 0.90625 -1.046875q0.59375 -0.359375 1.3125 -0.359375q0.640625 0 1.1875 0.296875q0.5625 0.296875 0.921875 0.8125q0.28125 0.375 0.46875 1.03125q0.203125 0.671875 0.203125 1.421875q0 1.140625 -0.328125 2.0q-0.328125 0.859375 -0.890625 1.265625q-0.5625 0.421875 -1.5 0.578125l-0.21875 -1.609375q0.75 -0.109375 1.171875 -0.640625q0.421875 -0.515625 0.421875 -1.46875q0 -1.140625 -0.375 -1.625q-0.375 -0.46875 -0.875 -0.46875q-0.3125 0 -0.578125 0.1875q-0.265625 0.203125 -0.4375 0.640625q-0.09375 0.234375 -0.421875 1.4375q-0.453125 1.75 -0.75 2.4375q-0.296875 0.6875 -0.859375 1.078125q-0.5625005 0.390625 -1.4062505 0.390625q-0.828125 0 -1.546875 -0.484375q-0.71875 -0.46875 -1.125 -1.375q-0.390625 -0.90625 -0.390625 -2.046875q0 -1.875 0.78125 -2.875q0.78125 -0.984375 2.328125 -1.25zm-1.3125 23.323929l-1.578125 0l0 -8.828125q0.59375 -0.015625 1.140625 0.1875q0.90625 0.34375 1.78125 1.078125q0.8750005 0.75 2.0156255 2.15625q1.78125 2.171875 2.828125 2.9375q1.046875 0.765625 1.96875 0.765625q0.984375 0 1.640625 -0.703125q0.671875 -0.6875 0.671875 -1.8125q0 -1.1875 -0.71875 -1.90625q-0.703125 -0.703125 -1.953125 -0.703125l0.171875 -1.6875q1.890625 0.171875 2.875 1.296875q0.984375 1.140625 0.984375 3.03125q0 1.921875 -1.0625 3.046875q-1.0625 1.125 -2.640625 1.125q-0.796875 0 -1.578125 -0.328125q-0.78125 -0.328125 -1.640625 -1.09375q-0.84375 -0.75 -2.34375 -2.53125q-1.2343755 -1.46875 -1.6875005 -1.890625q-0.4375 -0.421875 -0.875 -0.6875l0 6.546875z" fill-rule="nonzero"/><path fill="#000000" fill-opacity="0.0" d="m30.36551 237.25194l0 119.33858l-17.228348 0l0 -119.33858z" fill-rule="evenodd"/><path fill="#000000" d="m4.2171645 247.78319l13.359375 0l0 9.01564l-1.578125 0l0 -7.2500153l-4.140625 0l0 6.265625l-1.578125 0l0 -6.265625l-6.0625005 0l0 -1.765625zm3.109375 17.724106l-0.203125 1.6875q-1.484375 -0.40625 -2.3125 -1.484375q-0.8125 -1.078125 -0.8125 -2.765625q0 -2.125 1.296875 -3.375q1.3125 -1.234375 3.6718755 -1.234375q2.453125 0 3.796875 1.25q1.34375 1.265625 1.34375 3.265625q0 1.9375 -1.328125 3.15625q-1.3125 1.234375 -3.703125 1.234375q-0.15625 0 -0.4375 0l0 -7.21875q-1.5937505 0.09375 -2.4531255 0.90625q-0.84375 0.8125 -0.84375 2.015625q0 0.90625 0.46875 1.546875q0.484375 0.640625 1.515625 1.015625zm2.6562505 -5.390625l0 5.40625q1.21875 -0.109375 1.828125 -0.625q0.953125 -0.78125 0.953125 -2.03125q0 -1.125 -0.765625 -1.90625q-0.75 -0.765625 -2.015625 -0.84375zm-4.5781255 15.453857q-0.765625 -0.921875 -1.09375 -1.765625q-0.3125 -0.828125 -0.3125 -1.796875q0 -1.59375 0.78125 -2.453125q0.78125 -0.859375 1.984375 -0.859375q0.71875 0 1.2968755 0.328125q0.59375 0.328125 0.9375 0.84375q0.359375 0.53125 0.546875 1.1875q0.125 0.46875 0.25 1.453125q0.234375 1.984375 0.5625 2.921875q0.34375 0.015625 0.421875 0.015625q1.0 0 1.421875 -0.46875q0.546875 -0.625 0.546875 -1.875q0 -1.15625 -0.40625 -1.703125q-0.40625 -0.546875 -1.421875 -0.8125l0.21875 -1.609375q1.015625 0.21875 1.640625 0.71875q0.640625 0.5 0.984375 1.453125q0.34375 0.953125 0.34375 2.1875q0 1.25 -0.296875 2.015625q-0.28125 0.78125 -0.734375 1.140625q-0.4375 0.375 -1.109375 0.515625q-0.421875 0.078125 -1.515625 0.078125l-2.1875 0q-2.2812505 0 -2.8906255 0.109375q-0.59375 0.109375 -1.15625 0.40625l0 -1.703125q0.515625 -0.265625 1.1875 -0.328125zm3.6718755 -0.140625q-0.375 -0.890625 -0.625 -2.671875q-0.140625 -1.015625 -0.328125 -1.4375q-0.18750048 -0.421875 -0.5312505 -0.65625q-0.34375 -0.21875 -0.78125 -0.21875q-0.65625 0 -1.09375 0.5q-0.4375 0.5 -0.4375 1.453125q0 0.9375 0.40625 1.671875q0.421875 0.75 1.140625 1.09375q0.5625 0.265625 1.6406255 0.265625l0.609375 0zm-3.3906255 7.781952l-1.453125 0.234375q-0.140625 -0.6875 -0.140625 -1.234375q0 -0.890625 0.28125 -1.390625q0.28125 -0.484375 0.734375 -0.6875q0.46875 -0.203125 1.9375 -0.203125l5.5781255 0l0 -1.203125l1.265625 0l0 1.203125l2.390625 0l0.984375 1.625l-3.375 0l0 1.65625l-1.265625 0l0 -1.65625l-5.6718755 0q-0.6875 0 -0.890625 0.078125q-0.203125 0.09375 -0.328125 0.28125q-0.109375 0.203125 -0.109375 0.578125q0 0.265625 0.0625 0.71875zm-1.46875 7.933319l1.421875 0q-1.640625 -1.125 -1.640625 -3.0625q0 -0.859375 0.328125 -1.609375q0.328125 -0.734375 0.828125 -1.09375q0.5 -0.359375 1.21875 -0.5q0.46875 -0.109375 1.53125 -0.109375l5.9843755 0l0 1.640625l-5.359375 0q-1.2812505 0 -1.7343755 0.109375q-0.640625 0.15625 -1.015625 0.65625q-0.375 0.5 -0.375 1.234375q0 0.734375 0.375 1.375q0.390625 0.65625 1.03125 0.921875q0.65625 0.265625 1.8906255 0.265625l5.1875 0l0 1.640625l-9.671875 0l0 -1.46875zm0 4.031952l9.671875 0l0 1.46875l-1.46875 0q1.03125 0.5625 1.359375 1.03125q0.328125 0.484375 0.328125 1.0625q0 0.828125 -0.53125 1.6875l-1.515625 -0.5625q0.359375 -0.609375 0.359375 -1.203125q0 -0.546875 -0.328125 -0.96875q-0.328125 -0.421875 -0.890625 -0.609375q-0.875 -0.28125 -1.921875 -0.28125l-5.0625005 0l0 -1.625zm3.109375 12.853302l-0.203125 1.6875q-1.484375 -0.40625 -2.3125 -1.484375q-0.8125 -1.078125 -0.8125 -2.765625q0 -2.125 1.296875 -3.375q1.3125 -1.234375 3.6718755 -1.234375q2.453125 0 3.796875 1.25q1.34375 1.265625 1.34375 3.265625q0 1.9375 -1.328125 3.15625q-1.3125 1.234375 -3.703125 1.234375q-0.15625 0 -0.4375 0l0 -7.21875q-1.5937505 0.09375 -2.4531255 0.90625q-0.84375 0.8125 -0.84375 2.015625q0 0.90625 0.46875 1.546875q0.484375 0.640625 1.515625 1.015625zm2.6562505 -5.390625l0 5.40625q1.21875 -0.109375 1.828125 -0.625q0.953125 -0.78125 0.953125 -2.03125q0 -1.125 -0.765625 -1.90625q-0.75 -0.765625 -2.015625 -0.84375zm-2.8750005 8.485107l0.25 1.625q-0.96875 0.125 -1.5 0.75q-0.515625 0.625 -0.515625 1.75q0 1.125 0.453125 1.671875q0.46875 0.546875 1.09375 0.546875q0.546875 0 0.875 -0.484375q0.21875 -0.328125 0.5468755 -1.671875q0.46875 -1.8125 0.796875 -2.515625q0.328125 -0.6875 0.90625 -1.046875q0.59375 -0.359375 1.3125 -0.359375q0.640625 0 1.1875 0.296875q0.5625 0.296875 0.921875 0.8125q0.28125 0.375 0.46875 1.03125q0.203125 0.671875 0.203125 1.421875q0 1.140625 -0.328125 2.0q-0.328125 0.859375 -0.890625 1.265625q-0.5625 0.421875 -1.5 0.578125l-0.21875 -1.609375q0.75 -0.109375 1.171875 -0.640625q0.421875 -0.515625 0.421875 -1.46875q0 -1.140625 -0.375 -1.625q-0.375 -0.46875 -0.875 -0.46875q-0.3125 0 -0.578125 0.1875q-0.265625 0.203125 -0.4375 0.640625q-0.09375 0.234375 -0.421875 1.4375q-0.453125 1.75 -0.75 2.4375q-0.296875 0.6875 -0.859375 1.078125q-0.5625005 0.390625 -1.4062505 0.390625q-0.828125 0 -1.546875 -0.484375q-0.71875 -0.46875 -1.125 -1.375q-0.390625 -0.90625 -0.390625 -2.046875q0 -1.875 0.78125 -2.875q0.78125 -0.984375 2.328125 -1.25zm0.640625 14.714539l0.21875 1.640625q-1.40625 0.28125 -2.015625 0.953125q-0.609375 0.6875 -0.609375 1.65625q0 1.15625 0.796875 1.953125q0.796875 0.796875 1.9843755 0.796875q1.125 0 1.859375 -0.734375q0.734375 -0.734375 0.734375 -1.875q0 -0.46875 -0.171875 -1.15625l1.4375 0.1875q-0.015625 0.15625 -0.015625 0.265625q0 1.046875 0.546875 1.875q0.546875 0.84375 1.671875 0.84375q0.90625 0 1.5 -0.609375q0.59375 -0.609375 0.59375 -1.578125q0 -0.953125 -0.609375 -1.59375q-0.59375 -0.640625 -1.796875 -0.8125l0.296875 -1.640625q1.640625 0.296875 2.546875 1.359375q0.90625 1.0625 0.90625 2.65625q0 1.09375 -0.46875 2.0q-0.46875 0.921875 -1.28125 1.40625q-0.8125 0.5 -1.71875 0.5q-0.859375 0 -1.578125 -0.46875q-0.703125 -0.46875 -1.125 -1.375q-0.28125 1.1875 -1.140625 1.84375q-0.859375 0.65625 -2.15625 0.65625q-1.7343755 0 -2.9531255 -1.28125q-1.21875 -1.265625 -1.21875 -3.21875q0 -1.765625 1.046875 -2.921875q1.046875 -1.15625 2.71875 -1.328125z" fill-rule="nonzero"/></g></svg>